<?xml version="1.0" standalone="no"?>
<!DOCTYPE svg PUBLIC "-//W3C//DTD SVG 1.1//EN" "http://www.w3.org/Graphics/SVG/1.1/DTD/svg11.dtd" >
<svg xmlns="http://www.w3.org/2000/svg">
<metadata></metadata>
<defs>
<font id="mathletebulky" horiz-adv-x="550" >
<font-face units-per-em="2048" ascent="1638" descent="-410" />
<missing-glyph horiz-adv-x="614" />
<glyph horiz-adv-x="0" />
<glyph horiz-adv-x="0" />
<glyph horiz-adv-x="682" />
<glyph unicode="&#xd;" horiz-adv-x="681" />
<glyph unicode=" "  horiz-adv-x="614" />
<glyph unicode="&#x09;" horiz-adv-x="614" />
<glyph unicode="&#xa0;" horiz-adv-x="614" />
<glyph unicode="!" horiz-adv-x="274" d="M66 39q7 -26 30 -35q32 -14 82 10q18 11 21 27q3 12 3 24.5t1 14.5v12q-1 17 -14.5 28t-30.5 9q-32 -3 -62 -23q-37 -27 -30 -67zM98 317q0 -17 12 -29t29 -12t29 12t12 29v854q0 17 -12 29t-29 12t-29 -12t-12 -29v-854z" />
<glyph unicode="&#x22;" horiz-adv-x="405" d="M55 1042q0 -36 2 -61v-55q0 -17 12 -29t29 -12t29 12t12 29v69q-3 105 6 152q2 18 -7.5 32t-26.5 15q-18 2 -32.5 -8t-15.5 -27q-8 -52 -8 -117zM250 1169q2 -55 2 -237q0 -17 12 -29t29 -12t29 12t12 29q0 182 -2 237q0 18 -11.5 29.5t-29.5 11.5t-29.5 -11.5 t-11.5 -29.5z" />
<glyph unicode="#" horiz-adv-x="778" d="M-61 582q-2 -17 8.5 -30.5t27.5 -14.5q20 -2 68 -2q1 0 8.5 -0.5t8.5 -0.5t6.5 -1t6 -2t4.5 -2.5t3.5 -4t1 -6t0.5 -8t-2.5 -10.5t-3.5 -13q-31 -94 -35 -137q-2 -19 8.5 -32.5t28.5 -14.5q18 -2 31 8t14 27q9 76 55 186q6 14 39 17q66 5 98 8q25 3 35 -9.5t2 -35.5 q-31 -98 -41 -144q-4 -17 4 -30.5t25 -18.5q17 -4 30.5 4t18.5 25q29 106 57 192q9 34 46 37q100 12 118 13q17 2 27.5 14t9.5 31q-2 17 -14 27.5t-31 9.5q-52 -6 -59 -7q-29 -2 -38.5 6t1.5 39l26 74q11 33 48 33q70 0 88 2q17 0 28 12.5t11 30.5q0 17 -12.5 28t-30.5 11 q-3 0 -15 -1t-20 -1q-39 0 -42.5 12.5t7.5 34.5q9 27 12 51q2 18 -8 31t-27 14q-19 2 -32.5 -8.5t-14.5 -28.5q-4 -33 -22 -75q-11 -32 -47 -35q-74 0 -105 -2q-13 0 -18.5 1t-11 4.5t-5 13.5t6.5 26q2 5 7.5 21.5t8.5 23.5q6 17 -1 32t-24 21t-32 -0.5t-21 -23.5 q-25 -78 -29 -93q-11 -31 -45 -34q-99 -13 -141 -27q-17 -6 -24 -21t-1 -32t21.5 -24t32.5 -1q9 3 32.5 8t36.5 8q37 11 43 -4.5t-6 -40.5q-4 -11 -37 -96q-15 -30 -55 -33q-42 0 -104 4q-17 2 -30.5 -8.5t-14.5 -27.5zM242 638.5q-9 12.5 0 35.5l16 45l16 49q9 35 45 35h35 q16 2 52 2q14 0 20.5 -1t14 -5.5t5.5 -14t-6 -26.5l-30 -86q-13 -32 -45 -35l-91 -8q-23 -3 -32 9.5z" />
<glyph unicode="$" horiz-adv-x="671" d="M-16 809q9 -83 59 -121q25 -21 57.5 -31.5t61.5 -13t100 -6.5q2 0 2 -41q3 -302 6 -477q2 -25 -13.5 -34.5t-35.5 5.5q-77 64 -92 172q-1 17 -14 27t-31 8q-18 -1 -28.5 -14.5t-8.5 -32.5q12 -93 65 -162.5t130 -101.5q17 -8 25 -18t9 -29q0 -21 5 -119q0 -17 12.5 -28 t30.5 -11q17 0 27.5 12.5t10.5 30.5q-1 17 -2 50t-2 50q-3 37 37 43q89 18 145 89.5t60 185.5q4 101 -15 192.5t-72.5 167.5t-135.5 100q-31 21 -31 46q-3 222 -6 368q0 50 10 47q6 0 10 -4q68 -33 103 -164q4 -17 18 -25t31 -3t25 18.5t4 30.5q-41 164 -144 217 q-16 8 -24 10q-34 12 -37 45q0 39 -4 113q0 17 -12.5 28t-30.5 11q-17 0 -28 -12.5t-11 -30.5q4 -74 4 -113q3 -35 -31 -47q-20 -8 -30 -14q-100 -55 -160.5 -171t-48.5 -243zM66 817q-10 101 39 196t126 138q27 -2 27 -25q3 -142 6 -364q0 -44 -43 -41q-11 1 -25 1.5t-22 1 t-12 1.5q-46 8 -69 28.5t-27 63.5zM346 575l2 50h4q87 -28 129 -134t37 -245q-3 -79 -35.5 -129t-85.5 -66q-19 -6 -31 0t-12 19q-5 140 -8 505z" />
<glyph unicode="%" horiz-adv-x="659" d="M-4 29q-6 -18 0.5 -33t23.5 -21t32.5 1t21.5 24q252 700 510 1167q8 17 3 34t-20 24t-32 2t-25 -19q-255 -465 -514 -1179zM35 1065q-13 -47 2 -94t55 -66q61 -23 103.5 -8t66.5 61q12 34 8 73t-18 69q-14 32 -33 47q-15 15 -29 20q-59 10 -100 -19.5t-55 -82.5zM115 999 q-8 28 4 58q5 11 13.5 16t15 4t8.5 -4l10 -10q24 -19 26 -44.5t-17 -39t-46 -0.5q-11 4 -14 20zM248 87q7 -44 46.5 -67t92.5 -18q54 5 87.5 36.5t33 83t-44.5 107.5q-1 1 -4.5 5.5t-5.5 5.5t-12.5 8.5t-18.5 11.5q-13 4 -57 -2q-24 -3 -33 -8q-14 -8 -22.5 -17.5 t-28.5 -39.5q-40 -62 -33 -106zM332.5 93.5q-9.5 12.5 13.5 49.5l23 31q0 2 4 2q35 -3 45 -26q31 -59 -39 -66q-37 -3 -46.5 9.5z" />
<glyph unicode="&#x26;" horiz-adv-x="667" d="M-9.5 311.5q3.5 -145.5 56.5 -229.5q42 -70 105 -94.5t133 -3.5q61 17 113 62t83 106q43 82 37 219q0 43 41 43h-4q17 0 29 12t12 29t-12 29t-29 12h-82q-38 0 -84 -4q-41 -3 -84 -17q-17 -5 -26 -19.5t-3 -29.5q6 -18 25 -29q14 -1 16.5 -2t15.5 3t17 5q39 7 43 7 q16 1 25.5 0.5t13.5 -8t4.5 -11t1.5 -18.5q3 -123 -30 -185q-24 -45 -64 -80t-82 -47q-88 -24 -137 49t-51 203q-4 101 22.5 169t71.5 98q16 10 43 10h18h7q6 0 8 2q8 2 20 14q11 15 8 27q0 13 -12 31l-8 4q-18 6 -27 6q-6 0 -8 2q-4 0 -13 1t-14 1.5t-11.5 2t-12.5 5.5 q-24 17 -35 39q-27 56 -18 152q7 89 46.5 178t82.5 123q53 41 104 -31q24 -35 32.5 -78t-3.5 -63q-7 -14 -1.5 -31t19.5 -25q14 -7 31 -1t25 20q22 57 10 116q-13 63 -50.5 114.5t-89.5 68.5q-66 23 -125 -23t-106 -151q-48 -109 -59 -217t28 -189q11 -18 19 -29 q21 -30 0 -57q-20 -20 -41 -55q-48 -90 -44.5 -235.5z" />
<glyph unicode="'" horiz-adv-x="147" d="M-12 1190q-3 -57 2 -127q1 -25 2 -53.5t1.5 -44t0.5 -23.5q0 -17 12 -29t29 -12t29 12t12 29q0 30 -6 125q-3 73 0 119q1 17 -9.5 29t-27.5 14q-19 1 -31 -9.5t-14 -29.5z" />
<glyph unicode="(" horiz-adv-x="460" d="M66 516q-1 -68 0.5 -107t11 -95.5t29.5 -100.5t57 -102t92 -121q11 -12 28 -14t29 10q12 11 14 28t-10 29q-126 147 -153 270q-19 67 -17 202.5t25 258.5q27 145 76.5 239t116.5 120q14 8 21 24t1 31q-18 35 -55 22q-176 -74 -240 -419q-23 -126 -26 -275z" />
<glyph unicode=")" horiz-adv-x="468" d="M20 1174q-6 -17 1 -32.5t24 -21.5q54 -18 107 -84l49 -67q162 -223 94 -467q-17 -68 -49 -129q-26 -55 -29 -62q-7 -13 -39 -69l-39 -66l-43 -72l-43 -69q-8 -13 -3 -30.5t18 -24.5q13 -8 30.5 -3.5t24.5 17.5q8 15 49 78l53 88l41 73q36 60 47 86l31 76q24 61 31 86 q77 274 -109 537q-5 8 -51 72q-22 28 -62 60t-79 48q-18 6 -33 -0.5t-21 -23.5z" />
<glyph unicode="*" horiz-adv-x="575" d="M63 1061q-3 -18 4.5 -33t24.5 -16q31 -6 92 -27q30 -10 33 -18.5t-12 -36.5l-51 -92q-7 -17 -2 -33.5t20 -24.5q15 -7 31 -2t24 19l25 49q10 19 17.5 27t14.5 4t11 -9.5t12 -19.5q3 -5 13.5 -21t17.5 -26q10 -13 27 -16t30 6t17 25.5t-4 29.5q-34 53 -48 76 q-19 27 -18 35t33 22q74 33 102 43q17 6 24 21t1 32t-21 24t-32 1q-39 -14 -66 -27q-28 -14 -39.5 -12.5t-10 15t2.5 30.5q2 20 10 51q6 17 -2 32t-25 21q-17 5 -32 -3t-19 -25q-13 -37 -16 -88q0 -2 -0.5 -10t-1 -9.5t-1.5 -7t-2.5 -6t-5 -3t-8 -1.5t-11 2t-15.5 4 q-61 21 -94 27q-18 5 -32.5 -3.5t-17.5 -25.5z" />
<glyph unicode="+" horiz-adv-x="598" d="M-16 606q3 -17 16 -26t31 -7q80 17 172 17q40 0 43 -41q3 -125 12 -209q1 -17 14.5 -28t30.5 -9q17 1 28 14.5t9 30.5q-9 85 -12 197q-3 44 41 41q33 0 72 -1t46 -1q17 0 29 12t12 29t-12 29t-29 12q-7 0 -22.5 0.5t-44 1.5t-55.5 2q-41 0 -41 41q-2 113 -7 198 q0 17 -12.5 28t-30.5 11q-17 0 -27.5 -12.5t-10.5 -30.5q3 -56 6 -190q0 -43 -58 -43q-90 0 -170 -17q-37 -10 -30 -49z" />
<glyph unicode="," horiz-adv-x="223" d="M20.5 54.5q2.5 -18.5 14.5 -25.5q37 -25 37 -70t-31 -129q-6 -17 2.5 -32t24.5 -21q14 -6 29.5 2t21.5 22q25 71 33 117.5t-6.5 95t-61.5 80.5q-14 10 -31 7t-26 -15q-9 -13 -6.5 -31.5z" />
<glyph unicode="-" horiz-adv-x="655" d="M-6 537q1 -17 15 -27t32 -8q129 19 342 10q144 -4 160 -4q17 0 29 12t12 29t-12 29t-29 12q-8 0 -156 4q-216 9 -358 -10q-17 -1 -27 -15t-8 -32z" />
<glyph unicode="." horiz-adv-x="249" d="M14.5 75.5q-0.5 -30.5 18.5 -63.5q24 -30 55 -37.5t57 14.5t33 72q3 18 -14 35v2q4 9 -6 27q-9 15 -31 18q-51 4 -81.5 -16.5t-31 -51z" />
<glyph unicode="/" horiz-adv-x="563" d="M-43 -4q-2 -17 9 -30.5t28 -14.5q17 -2 30.5 9t14.5 28q3 46 18 96q15 62 62 176q33 80 37 92q203 543 331 824q8 13 2.5 30.5t-20.5 24.5t-32 0.5t-23 -23.5q-117 -256 -336 -827l-35 -88l-39 -96q-40 -123 -47 -201z" />
<glyph unicode="0" d="M-55 719q-4 -85 10 -219q15 -165 57 -305t109 -201q47 -45 105.5 -44t119.5 50q114 93 131 455q4 100 0 350q-4 119 -12 178q-6 110 -51 201q-28 59 -68 90.5t-92.5 27.5t-106.5 -51q-175 -152 -202 -532zM27 715q24 343 174 475q48 40 80 29t59 -72q25 -48 40 -164 t15 -158q6 -241 0 -366q-12 -328 -98 -393q-39 -33 -72 -33q-29 0 -49 20q-54 54 -94 193q-29 112 -44.5 254.5t-10.5 214.5z" />
<glyph unicode="1" horiz-adv-x="471" d="M-43 -6q0 -17 12 -29t29 -12q100 0 180 2t180 2q17 0 29 12t12 29t-12 29t-29 12h-108q-43 -3 -43 4v6q0 207 18 551q6 98 -6 303q-12 221 -12 297v4q-1 8 -12 29q-1 1 -2.5 3t-2.5 3q-12 12 -28 12q-18 0 -31 -10q-84 -84 -131 -158q-8 -13 -4.5 -29.5t16.5 -25.5 t30.5 -6t27.5 16q2 2 5 7.5t5 7.5q51 84 51 -15q0 -7 3.5 -57t4.5 -82q9 -194 4 -295q-18 -332 -18 -555q0 -8 2 -12q-51 -2 -129 -2q-17 0 -29 -12t-12 -29z" />
<glyph unicode="2" horiz-adv-x="552" d="M-20 16q0 -27 26 -39l12 -4q11 0 17 -2h45q75 0 223 4q12 1 31.5 2t33 1.5t23.5 1.5h49q17 0 29 11.5t12 28.5t-12 29t-29 12h-49q-13 -1 -43.5 -2t-46.5 -2q-148 -4 -221 -4q-1 0 18 47l6 15q47 114 56 131q27 73 125 246l71 126q133 257 93 424q-24 107 -105 164.5 t-170 36.5q-96 -21 -144 -114t-28 -232q1 -17 15 -27t32 -8q17 1 27 15t8 32q-18 110 14 175.5t92 78.5q58 12 109.5 -26t71.5 -115q34 -135 -88 -367q-33 -63 -66 -120l-82 -144q-25 -46 -53 -117q0 -1 -6 -15.5t-19 -45.5t-28 -66l-23 -57q-10 -20 -16 -35q-1 -3 -2 -7.5 t-2 -6.5t-2 -5.5t-2 -4.5q0 -4 -2 -6v-9z" />
<glyph unicode="3" horiz-adv-x="499" d="M-94 223q7 -141 95 -218t202 -50q116 25 178.5 148.5t42.5 308.5q-11 84 -53.5 150t-114.5 100q-18 9 25 40q87 68 117 165.5t-9 203.5q-50 121 -131 157.5t-158 -20.5q-68 -47 -103.5 -142.5t-23.5 -197.5q1 -17 14.5 -26.5t32.5 -7.5q17 1 27 14.5t8 32.5q-9 80 19 155 q27 71 69.5 103.5t81.5 15.5q48 -20 86 -117q38 -91 -3.5 -177.5t-139.5 -131.5q-19 -4 -31 -6q-2 0 -7 -1t-7 -1q-18 -3 -37 -14q-30 -23 -22.5 -57t40.5 -40q19 0 29 2q19 2 37 -4q11 -3 53 -20q49 -25 81 -74t38 -111q18 -156 -29.5 -253t-128.5 -117q-75 -18 -132.5 35 t-63.5 159q0 17 -12.5 28t-30.5 11q-17 0 -28 -12.5t-11 -30.5z" />
<glyph unicode="4" d="M-63 643q-4 -17 2 -30.5t20 -18.5q2 -1 5.5 -2t4.5 -2h17q2 2 14 2q1 1 39 8q44 11 86 16q91 9 141 7q44 0 41 -43q-26 -448 -26 -566q0 -17 12 -29t29 -12t28.5 12t11.5 29q0 98 27 564q3 41 43 38h4q18 0 30.5 11t12.5 28q0 18 -11 30.5t-28 12.5h-2q-42 3 -39 43 q0 36 2 52q1 13 6.5 95.5t6.5 115.5q4 123 -6 210q-4 19 -15 27q-15 12 -33 8q-12 -1 -34 -18q-8 -4 -11 -10q-6 -10 -225 -332l-106 -160l-35 -55q-12 -24 -12 -31zM87.5 728q-2.5 8 4.5 17l66 99l125 180q17 25 33.5 20t15.5 -34q0 -50 -6 -115q-9 -144 -9 -150 q-3 -40 -43 -40q-57 2 -157 -7q-2 1 -4.5 2t-9.5 5.5t-10 9.5t-5.5 13z" />
<glyph unicode="5" horiz-adv-x="581" d="M-27 231q0 17 12 29t29 12t29 -12t12 -29q0 -110 44 -162t114 -46q70 5 129.5 62.5t77.5 147.5q16 90 6 174.5t-53.5 150t-108.5 79.5q-16 2 -49 -2h-6q-3 -1 -12 -2.5t-21 -4t-26 -5.5l-58 -13q-10 -2 -20 -2q-2 -2 -9 -2h-6q-14 0 -26.5 11t-16.5 30q-2 6 -2 19v43 q0 25 2 41q2 14 2 22q0 3 -1 52.5t-1 78.5q-5 132 13 215q19 77 63 90q58 16 182 2q101 -16 170 -20q17 -2 27.5 -14t9.5 -29q-2 -19 -14 -29.5t-31 -9.5q-2 0 -29.5 3t-50.5 7q-9 1 -35.5 4.5t-39 5t-36 4t-38 3t-32.5 1t-31.5 -1t-24.5 -4.5v-2q-9 -13 -11 -28 q-12 -59 -12 -199q4 -94 4 -129q0 -13 -2 -29q0 -8 -2 -12q6 -35 37 -29q104 19 113 19q66 -4 118 -37.5t82.5 -85t49.5 -116.5t18.5 -132.5t-10.5 -132.5q-24 -116 -104.5 -193t-178.5 -83q-108 -8 -177 69t-69 221z" />
<glyph unicode="6" horiz-adv-x="555" d="M-29 502q25 -444 211 -508q82 -28 148 6.5t104 116.5q65 139 47 327q-8 90 -40.5 157t-86.5 89q-131 57 -286 -186q-9 -15 -14 -12q-1 0 -1 2v12q-9 157 10 313q36 283 197 346q36 9 57 -4q36 -22 60 -86q8 -16 8 -53v-23q0 -20 2 -26v-23q1 -17 14.5 -28t30.5 -9 q17 1 28 14.5t9 30.5q-2 8 -2 37v29q0 50 -12 80q-36 92 -94.5 127t-127.5 10q-103 -37 -186 -176q-42 -71 -63 -231.5t-13 -331.5zM80 297v31q7 61 64.5 147t113.5 125q39 24 64.5 14t46.5 -55q21 -50 30 -125q18 -165 -39 -282q-55 -116 -153 -80q-46 15 -86.5 107 t-40.5 118z" />
<glyph unicode="7" horiz-adv-x="552" d="M-29 1194q9 46 41 63q12 7 35 7h41q66 0 117 -2q20 -2 80 -2q46 -3 75 -3q18 -2 39 -2h2q1 1 13 5q38 6 59 -21q8 -8 8 -25v-10q0 -8 -2 -14q-3 -17 -12 -37l-35 -100l-61 -164q-35 -96 -78 -250q-46 -169 -72 -256l-71 -205q-39 -111 -64 -201q-4 -17 -18 -25t-31 -3 t-25 18.5t-4 30.5q25 97 66 209q9 24 23.5 65t18.5 52.5t12.5 35.5t11.5 35.5t8.5 29t11.5 40.5t12 45t18 67.5t23 84.5q44 162 80 256l61 163q15 40 17 47q1 2 4.5 10.5t4 11t1.5 8.5t-2 8t-7 5t-13 4t-21 1q-83 0 -137 4q-49 2 -111 2h-2q-37 0 -37 -2q-3 -15 0 -43 q2 -25 17 -84q6 -17 -2 -32t-25 -20q-17 -6 -31.5 2t-19.5 25q-33 104 -19 166z" />
<glyph unicode="8" horiz-adv-x="587" d="M-35 172q12 -129 98 -186.5t201 -30.5q107 26 180 112t72 199q-3 149 -90 246q-64 69 -139 123q-31 24 -8 57q9 13 22.5 34.5t17.5 27.5q22 35 49.5 117t37.5 122l8 43q15 95 -46.5 171.5t-148.5 66.5q-83 -8 -150.5 -77.5t-91.5 -176.5q-9 -43 -10 -81.5t7 -70.5 t20 -59.5t31 -53t38.5 -45.5t45.5 -42q29 -25 6 -58q-54 -70 -64 -88q-101 -162 -86 -350zM47 180q-15 160 74 299q15 25 59 82q24 35 58 8q77 -57 124 -108q69 -80 72 -195q1 -83 -53.5 -147.5t-136.5 -83.5q-79 -20 -134.5 17.5t-62.5 127.5zM59 1004q18 81 66 132t102 56 q40 6 67 -17.5t40 -68.5q6 -27 6 -51q0 -27 -33 -123t-57 -133q-6 -9 -18.5 -28t-18.5 -28q-25 -36 -57 -8q-66 56 -92.5 117t-4.5 152z" />
<glyph unicode="9" horiz-adv-x="534" d="M19 778.5q38 -80.5 108 -102.5q48 -14 105 7t110 79q4 5 10.5 13.5t9 12t6.5 6t5.5 -1t2.5 -12.5t1 -26q0 -179 4 -473v-244q0 -17 12 -29t29 -12t29 12t12 29q0 281 -2 500t-2 489v21l-4 32l-9 39q-9 39 -45.5 74.5t-74.5 44.5q-85 22 -176.5 -60t-129.5 -200 q-39 -118 -1 -198.5zM98 803q-31 55 0 148t99 157q127 124 174 -51q4 -18 4 -31v-6q-8 -78 -55.5 -154t-112.5 -106q-31 -14 -58.5 -5t-50.5 48z" />
<glyph unicode=":" horiz-adv-x="313" d="M49 301q-10 28 5 56.5t42 39.5q109 40 119 -30q2 -7 -2 -19q-5 -33 -10 -43q-10 -19 -56 -45q-29 -14 -57 -4t-41 45zM68 805q3 40 47 49q8 2 16 2h-25l46 4h10q51 -11 72.5 -39t-3.5 -67q-18 -21 -47.5 -28.5t-56.5 3.5q-66 25 -59 76z" />
<glyph unicode=";" horiz-adv-x="399" d="M101.5 775q10.5 42 50.5 69q25 17 53.5 20.5t53.5 -11t36 -46.5q11 -34 -16 -68q-3 -4 -9.5 -12t-9.5 -12q-10 -15 -14 -19q-25 -33 -58 -37t-65 31q-32 43 -21.5 85zM104 313q3 35 21 65t41 34q6 3 27 0.5t26 -2.5q69 -3 98 -74q22 -59 5 -123q-7 -32 -9 -49 q-10 -52 -34 -101q-8 -14 -23.5 -19.5t-30.5 1.5q-15 8 -21 23t1 32q4 10 11 27t9 23q4 20 4 32q-4 16 -39 19q-43 4 -66 38.5t-20 73.5z" />
<glyph unicode="&#x3c;" horiz-adv-x="405" d="M-25 350q-11 45 33 125q24 49 88 146l51 75l50 72q32 46 59 100q6 15 22 22t31 1q15 -8 22 -24t1 -29q-12 -28 -29 -56l-37 -59l-53 -76q-13 -18 -28 -42.5t-19 -29.5q-64 -98 -86 -137q-6 -15 -12 -24q0 -1 -4.5 -10.5t-4.5 -10.5q-6 -27 2 -51q29 -62 107 -149l41 -48 l47 -51q49 -53 70 -94q8 -13 3 -30.5t-18 -24.5q-13 -8 -30.5 -3.5t-24.5 17.5l-31 41q-13 18 -32 41l-43 49l-44 47q-113 131 -131 213z" />
<glyph unicode="=" horiz-adv-x="729" d="M-10.5 390.5q-6.5 -15.5 0.5 -30.5q6 -16 21 -22.5t32 0.5q51 21 129 30t151.5 10t294.5 1q17 0 29 12t12 29t-12 29t-29 12q-175 0 -233.5 -0.5t-149 -5t-135 -14.5t-90.5 -29q-14 -6 -20.5 -21.5zM14 725q0 -17 12 -29t29 -12q156 0 281 2h280q17 0 29 12t12 29t-12 29 t-29 12h-280q-125 -2 -281 -2q-17 0 -29 -12t-12 -29z" />
<glyph unicode="&#x3e;" horiz-adv-x="591" d="M-26 803q5 -18 18 -25q54 -32 160 -102l141 -92q2 -1 35 -19l55 -28l8 -5q40 -19 25 -40q0 -1 -17 -23q-36 -49 -131 -158l-96 -106l-98 -113q-26 -29 -35 -41q-23 -27 -23 -43q0 -18 19 -33q14 -12 37 -4q12 4 32 33q10 13 31 37l98 106l97 111q74 86 135 162 q34 48 41 61q1 2 5 11t5.5 12t3.5 11t2 13t-1.5 11.5t-4.5 13.5q-6 9 -12 12l-4 4l-8 4q-2 1 -8.5 5t-10.5 6l-53 26l-53 29q-27 12 -29 14l-143 92q-91 61 -162 103q-13 8 -31 3.5t-25 -17.5q-8 -13 -3 -31z" />
<glyph unicode="?" horiz-adv-x="546" d="M2 889q-1 -19 9.5 -31t29.5 -14q17 -1 29 9.5t14 27.5q1 10 2 34.5t2 36.5q0 72 12 121q8 40 28.5 66t70.5 30q95 6 143 -63q31 -44 44 -101.5t-0.5 -120t-57.5 -104.5q-11 -11 -41 -35q-79 -67 -109 -118q-33 -51 -44.5 -137t-4.5 -160q4 -36 4 -49v6q0 -17 12.5 -28 t30.5 -11q17 0 28 12.5t11 30.5q-21 205 33 295q27 39 88 94l49 41q61 57 80.5 139.5t3 158t-58.5 134.5q-36 52 -90 77.5t-105.5 23t-96.5 -25t-67 -59.5q-19 -32 -28 -71q-17 -61 -17 -148zM133 102q-6 -42 2 -67q6 -21 22.5 -31.5t33.5 -10t31.5 14t17.5 37.5 q3 42 -23 72q-7 7 -16.5 11t-10.5 5q-1 0 -4 1t-4 1q-40 3 -49 -33z" />
<glyph unicode="@" horiz-adv-x="778" d="M-10 461q-4 322 145 559q44 71 98.5 117.5t107 63t101.5 10t84 -36.5q120 -102 166 -345q10 -60 13 -102.5t-2 -99t-29.5 -113t-67.5 -115.5q-3 -3 -11.5 -14.5t-11 -14.5t-9.5 -12t-10.5 -12t-10.5 -10t-11 -9t-11 -6.5t-13.5 -5.5t-14.5 -2.5t-16 -1.5q-25 0 -49 17 q-29 23 -49 -2q-72 -97 -170 -66q-27 7 -51.5 32.5t-38.5 53.5q-30 86 -5 206t85 212q74 107 151 86q85 -27 113 -207v-12q-2 -8 -2 -37q2 -28 -6 -82l-2 -43q6 -33 12 -55q4 -2 9.5 -3.5t10 -2t8 -0.5h5.5h2q8 8 31 41q35 50 55 97.5t24.5 94.5t2.5 84.5t-11 89.5 q-9 53 -25.5 106t-44 109t-69.5 83.5t-92 12.5q-102 -30 -181 -154t-112 -296q-35 -166 -6 -312.5t111 -207.5q50 -37 141 -53t151 3q36 12 78 35q65 35 90 43q18 6 33 -0.5t21 -23.5t-1 -32.5t-24 -21.5q-32 -12 -80 -38q-75 -35 -92 -39q-78 -25 -189.5 -6.5t-177.5 67.5 q-72 54 -112.5 155t-40.5 216zM204.5 540.5q-21.5 -103.5 2.5 -161.5q4 -12 16.5 -25.5t20.5 -15.5q30 -10 60.5 16t55.5 84q2 4 3.5 9.5t4 12.5t3.5 11q6 18 6 51v90v11l-2 16q-3 25 4 35l-19 -19q24 24 15 54q-2 8 -8 19.5t-7 14.5q-6 9 -10 17q-4 4 -11.5 5t-13.5 0 l-6 -1q-22 -13 -43 -47q-50 -73 -71.5 -176.5z" />
<glyph unicode="A" horiz-adv-x="499" d="M-27 25q0 -17 12.5 -28t30.5 -11q17 0 28 12.5t11 30.5q-5 108 -5 220q0 168 11 347q3 40 37 43q4 1 62 6q18 1 44 4.5t29 3.5h6q37 0 37 -35q0 -6 -1 -19.5t-1 -20.5q-2 -90 -2 -164q0 -148 9 -231q14 -125 75 -193q10 -12 28 -14h5q14 0 25 10q14 13 14 33q0 14 -10 24 q-44 51 -56 167q-8 77 -8 210q0 70 2 155q2 76 2 142q0 159 -12 259q-17 140 -80 226q-36 50 -76 62q-14 4 -26 5q-24 1 -46 -15q-32 -22 -55 -70q-36 -75 -51 -199q-44 -401 -44 -739q0 -114 5 -221zM137 1149q13 26 20 33q4 4 8 4q5 0 9 -3q10 -6 27 -30q44 -59 58.5 -152 t16.5 -221q0 -41 -40 -41h32q-17 -2 -114 -12q-15 0 -43 -4q-3 0 -6 -1q-15 0 -23 9q-9 9 -8 29q0 250 63 389z" />
<glyph unicode="B" horiz-adv-x="514" d="M14 1100q-2 -34 -2 -70q0 -65 6 -139q1 -23 2 -44.5t2 -33t1 -14.5q6 -42 6 -157q0 -95 -4 -239q-9 -331 -9 -395q7 -27 13 -39q1 -3 12 -10q3 -2 6.5 -3t6 -2t7 -1h7t9 1t9.5 1.5t12.5 2.5t14.5 3q71 14 100 29q78 35 131 100q98 119 98 268q0 20 -2 41q-6 74 -52 156.5 t-105 128.5q-30 24 -9 53q37 49 43 117q4 43 4 83q0 114 -32 202q-31 85 -93 123q-37 23 -84 24q-31 0 -65 -10q-14 -3 -24 -19q-7 -14 -7 -22q0 -4 4.5 -23.5t2.5 -31.5q-6 -38 -9 -80zM94 1016q-1 17 -1 34q0 53 9 113q2 20 12 30q7 8 16 8q2 0 5 -1q21 -10 23 -12 q32 -19 53 -78q28 -76 28 -179q0 -33 -3 -69q-6 -61 -46 -98q-11 -11 -24 -16q-8 -6 -18 -11t-11 -6q-2 -1 -5 -2t-5 -2l-6 -2q-2 0 -4 -2q-4 0 -8 -4l-5 84q0 4 -0.5 16t-1.5 35.5t-2 46.5q-6 82 -6 115zM98 88q1 20 2.5 102t3.5 142q5 154 5 233v39q0 21 7 27t23 4 q15 -3 37 0q14 2 25 2h6q51 -26 112 -127q33 -52 39 -120q1 -15 2 -31q0 -51 -15 -99q-19 -62 -62.5 -116t-102.5 -81q-14 -7 -35 -10q-9 -2 -16 -2q-11 -1 -19 5q-12 10 -12 32z" />
<glyph unicode="C" horiz-adv-x="495" d="M-27 868q-8 -67 -8 -147q0 -123 18 -277q29 -256 91 -362q36 -68 95 -91q26 -10 50 -10q32 0 64 17q50 25 86 76t43 110q2 19 -8 32.5t-27 14.5q-19 2 -32.5 -7.5t-14.5 -26.5q-5 -37 -29 -76q-19 -27 -42 -44t-56 -9.5t-60 55.5q-55 102 -82 354q-12 131 -12 238 q0 87 8 159q17 160 66 254q43 74 102 91q8 2 16 2q43 0 75 -61q26 -52 26 -103q0 -20 -4 -39q-2 -18 7 -31t26 -16q6 -1 12 -1q29 0 37 31q5 23 5 47q0 72 -40 158q-29 58 -77 81q-30 14 -62 14q-20 0 -41 -5q-46 -12 -87.5 -47.5t-68.5 -83.5q-55 -108 -76 -297z" />
<glyph unicode="D" horiz-adv-x="528" d="M14 928q0 -156 9 -334q6 -120 6 -125v-19q0 -47 -2 -202q-1 -25 -1 -48q0 -115 13 -186q3 -15 18 -24q11 -8 25 -8q12 0 26 4t15 4q8 0 16 4q109 55 201.5 260t112.5 430q5 54 5 105q0 69 -10 131q-16 108 -60 190.5t-124.5 129t-191.5 46.5q-17 0 -29 -12t-12 -29 q2 -25 -2 -45q-15 -84 -15 -224v-48zM94 922q-1 27 -1 52q0 110 11 189q2 19 16 28q8 5 18 5q6 0 14 -2q126 -31 182 -161q42 -97 42 -240q0 -49 -5 -103q-17 -174 -76.5 -333t-132.5 -240q-14 -15 -27 -15q-5 0 -9 2q-17 8 -17 35q-2 24 -2 50.5t2 56.5q2 159 2 207v20 q0 2 -1 16.5t-2.5 46t-3.5 64.5q-6 117 -6 170q-1 20 -2 73t-2 79z" />
<glyph unicode="E" horiz-adv-x="512" d="M-2 778q0 -190 2 -313t2 -186v-54q-2 -33 -2 -84q0 -62 2 -82q1 -5 2 -16.5t2 -15.5q1 -3 2 -8t2 -7q7 -16 15 -22q6 -5 12 -8t10.5 -4t5.5 -1t4 -1t4 -1q10 -2 35 -2q18 -2 42 -1.5t55 1.5q57 0 94 2h61q17 0 29 12t12 29t-12 29t-29 12h-61q-39 -2 -97 -2 q-28 -2 -51 -1.5t-39 1.5q-16 0 -16 41v-30q-2 18 -2 75q0 51 2 84v54q0 59 -2 143q-2 68 -2 180q0 41 29 41q5 0 14.5 1t15.5 1q27 2 54 2q17 0 27.5 12.5t10.5 30.5q0 17 -12.5 28t-30.5 11q-26 0 -51 -2q-10 0 -16 -2q-41 0 -41 41v12q0 183 6 291q2 51 10 94q9 19 19 19 h16q30 1 65 1q58 0 130 -3q17 -1 34.5 -2t26.5 -1.5t12 -0.5q17 0 29 12t12 29t-12 28.5t-29 11.5q-3 0 -12.5 1t-25.5 2t-33 2q-70 3 -131 3q-37 0 -70 -1q-51 0 -78 -15q-29 -18 -33 -71q-7 -50 -10 -105q-8 -96 -8 -295z" />
<glyph unicode="F" horiz-adv-x="536" d="M-18 494q12 -424 12 -457q0 -17 12 -29t29 -12t29 12t12 29q0 10 -1.5 58t-5 169.5t-6.5 231.5q-2 45 -2 102q-3 40 35 43q32 4 60 4q17 0 29 12t12 29t-12 29t-29 12q-38 0 -54 -2q-44 0 -41 39q1 48 11 184q0 17 2 31q0 32 2 55t2 60l6 82q0 8 41 8h-16q228 8 315 8 q17 0 29 12t12 29t-12 29t-29 12q-84 0 -320 -8h-38q-6 -2 -15 -2h-10l-16 -11l-2 -2q-4 -4 -15 -26q0 -1 -1 -4t-1 -4q-1 -4 -2 -15.5t-2 -17.5q-3 -29 -6 -86q0 -35 -2 -58t-2 -55q-2 -14 -2 -29q-11 -135 -11 -295q0 -80 3 -167z" />
<glyph unicode="G" horiz-adv-x="479" d="M-17 662q-3 -57 -3 -111q0 -136 18 -252q30 -182 106 -272q49 -59 105 -59q30 0 61 16q64 30 103 131.5t41 206.5q0 37 -11 79q-13 47 -44 61q-23 10 -61 10q-14 0 -30 -1q-17 0 -37 -2q-14 -2 -28 -2q-17 0 -29 -12t-12 -29t12 -29t29 -12q21 0 35 2q10 0 26 1t23 1 q35 3 35 -4q0 -1 1 -3t1 -3q8 -19 8 -57q-3 -78 -31 -164q-20 -56 -42 -82t-50.5 -21t-61.5 45q-43 54 -67 211q-19 122 -19 260q0 40 2 82q11 195 52 334.5t100 169.5q17 10 33 10q24 0 44 -22q32 -34 32 -91v-7q0 -18 10.5 -30.5t27.5 -12.5q18 0 31 10.5t13 27.5v9 q0 89 -54 149q-36 42 -80 50q-11 1 -22 1q-34 0 -66 -17q-44 -24 -84 -83t-65 -143q-42 -146 -52 -346z" />
<glyph unicode="H" horiz-adv-x="471" d="M-16 1233q0 -340 2 -612t2 -613q0 -17 12 -29t29 -12t29 12t12 29q0 326 -2 594q0 43 38 43q11 1 38.5 2t41.5 2q46 3 84 6h5q38 0 38 -41q-6 -399 -6 -587q0 -17 12 -29t29 -12t29 12t12 29q0 203 6 608q4 536 4 604q0 17 -12 29t-29 12t-29 -12t-12 -29q0 -85 -4 -461 q0 -40 -39 -43q-29 -1 -88.5 -4t-76.5 -4q-41 0 -41 41q-2 188 -2 465q0 17 -12 29t-29 12t-29 -12t-12 -29z" />
<glyph unicode="I" horiz-adv-x="454" d="M-43 12q0 -17 12.5 -28t30.5 -11q75 4 154.5 4.5t164.5 -4.5q18 0 30.5 11t12.5 28q0 18 -10.5 30.5t-27.5 12.5q-16 2 -48 2q-40 0 -40 11v10q-10 66 -10 156q0 23 1 47q2 45 2 94q0 115 2 205q2 88 2 192q0 175 -10 332q0 41 38 41h5h76q17 0 29 12t12 29t-12 29 t-29 12q-47 0 -100 2q-29 1 -56 1q-116 0 -186 -11q-34 -9 -34 -37q0 -5 1 -11q6 -37 45 -34q53 8 86 10q43 0 43 -39q11 -172 11 -336q0 -104 -2 -192q-3 -135 -3 -205q0 -43 -2 -90q-1 -26 -1 -50q0 -96 10 -169q0 -5 2 -7q-58 0 -160 -4q-17 0 -28 -12.5t-11 -30.5z" />
<glyph unicode="J" d="M-47 274q12 -124 78 -206q44 -57 102 -59h4q56 0 117 59q44 44 84 229q29 154 42 359q6 108 6 204q0 85 -5 160q-5 72 -16 137q-1 7 -1 13q0 32 33 32h41q17 0 29 12t12 29t-12 29t-29 12l-153 -4q-25 -1 -48 -1q-54 0 -100 5h-5q-14 0 -26 -9q-13 -11 -14 -28 q-2 -17 9 -30.5t28 -14.5q31 -4 104 -4q40 0 48 -35q12 -56 18 -149q3 -66 3 -139q0 -104 -6 -220q-12 -197 -40 -344q-13 -64 -31 -125q-16 -49 -28 -61q-37 -35 -59 -35v0q-22 1 -44 29q-50 62 -59 164q-1 17 -14.5 27.5t-30.5 8.5q-17 -1 -28 -15q-9 -11 -9 -25v-5z" />
<glyph unicode="K" horiz-adv-x="534" d="M2 680q0 3 1 14t1 21q0 306 27 508q1 17 15 27q11 8 26 7h6q17 -1 27 -14.5t8 -32.5q-21 -163 -23 -266q0 -31 1.5 -47.5t4 -20.5t7.5 1.5t9.5 14.5l11 22t11.5 20q126 207 223 297q13 10 31 10q17 0 28 -12t11 -29q0 -19 -12 -31q-60 -54 -137 -164t-140 -229 q-18 -33 19 -51q51 -28 83 -96t52 -193q1 -8 14 -117q2 -17 7.5 -58t8.5 -60.5t8.5 -48t12 -46t14.5 -28.5l27 -15h14h23q17 0 29 -11.5t12 -28.5t-12 -29t-29 -12h-16q-16 -2 -46 2q-26 3 -53 30q-10 9 -18 21t-14.5 27.5t-11.5 28.5t-9.5 34.5t-7.5 34t-6 38t-4.5 36 t-4.5 38t-4 35.5q-8 72 -14 112t-20.5 98t-34.5 93q-11 19 -29 37q-3 2 -8.5 6t-8 6t-7 4t-6.5 1t-5 -3.5t-4.5 -8.5t-2.5 -16t-1 -24q0 -192 20 -589q0 -18 -10.5 -30.5t-27.5 -12.5q-18 0 -30.5 10.5t-12.5 27.5q-21 402 -21 650q0 2 -1 6t-1 6z" />
<glyph unicode="L" horiz-adv-x="428" d="M-4 1180q21 -147 21 -391q0 -87 -3 -187q-3 -143 -3 -216q0 -37 1 -56v-275q2 -14 2 -35q0 -10 2 -14v-6q1 -3 11 -18q16 -21 69 -25q11 -1 39.5 -2t42.5 -2h137q17 0 29 12t12 29t-12 29t-29 12h-135q-13 1 -39.5 2t-36.5 2q-6 0 -8 2q-2 4 -2 16v273q-1 18 -1 53 q0 71 3 215q3 101 3 190q0 250 -21 404q-1 17 -14 27q-11 8 -25 8h-6q-19 -1 -29 -15q-9 -11 -8 -26v-6z" />
<glyph unicode="M" horiz-adv-x="733" d="M0 211q2 45 2 78q0 136 8 332q6 221 6 331q0 128 -10 226v2q-3 3 -6 16q-3 11 -3 21q-1 27 25 43q13 8 28 9q21 0 42 -20l6 -6q2 -5 11 -14q28 -28 69 -105q44 -90 86 -141q13 -18 26 -22.5t19 6.5q91 158 174 247v3q4 4 9 14q8 13 18 20q13 11 28 11q10 0 21 -5 q12 -6 21 -18q1 -2 2 -5t2 -5q6 -22 8 -37v-4q3 -31 6 -82q2 -11 8 -137q9 -144 12 -291q12 -366 44 -635v-6q0 -14 -8 -25q-10 -13 -27 -14q-19 -2 -32.5 8.5t-14.5 28.5q-27 233 -43 637q-2 109 -13 293q-6 126 -8 135v14q0 8 -27 -23q-12 -13 -22 -28q-40 -54 -88 -137 l-12 -19q-16 -32 6 -57q58 -74 86 -117q8 -13 4 -29.5t-17 -25.5t-30 -6t-27 16q-8 13 -28 40.5t-25 35.5q-14 19 -29.5 17.5t-27.5 -21.5q-9 -15 -20 -30t-23.5 -31.5t-18.5 -24.5q-11 -14 -28 -16t-29 8q-14 11 -16 28t8 29q11 15 23.5 32.5t28.5 42t27 40.5q17 29 -4 59 q-55 69 -86 123q-15 22 -29.5 16t-13.5 -35v-49q0 -110 -6 -331q-8 -196 -8 -332v-68q-2 -29 -2 -67q0 -79 10 -123q5 -17 -3.5 -31.5t-25.5 -17.5q-5 -1 -10 -1q-17 0 -28 9q-8 8 -17 43q-9 52 -9 132q0 22 1 46z" />
<glyph unicode="N" horiz-adv-x="608" d="M12 1204q17 -187 17 -481v-90q-13 -331 -13 -578q0 -17 12 -29t29 -12t29 12t12 29q0 113 6 324q7 401 7 506q0 30 3.5 44.5t7.5 16t11.5 -8t12 -18.5t12.5 -24l-29 59l291 -565q11 -22 14 -49q6 -181 21 -324q1 -18 15 -28q11 -9 25 -8h5q17 0 28 14q9 11 9 26v5 q-7 65 -19 333.5t-16 397.5q-1 9 -1 28q0 39 3 119q3 73 3 134q0 123 -13 200q-5 17 -19 27q-11 7 -23 7q-4 0 -8 -1q-17 -3 -25.5 -17t-6.5 -32q13 -72 13 -187q0 -57 -3 -125q-3 -69 -3 -145q0 -45 1 -92q0 -20 -0.5 -34.5t-2.5 -21t-4 -11t-5.5 -1.5t-5.5 4.5t-7 10 t-7 12.5t-7 14.5t-6 13.5l-172 332q-7 12 -33 62q-30 59 -33 65q-31 64 -39 117q-1 17 -15 27q-12 8 -26 8h-6q-18 -3 -28 -19q-9 -14 -9 -34q-2 -4 -2 -13z" />
<glyph unicode="O" horiz-adv-x="575" d="M-27 530q4 -76 9 -129t14.5 -116.5t22 -106t34 -85.5t49 -68t67 -40.5t89.5 -15.5q42 0 86.5 17.5t73.5 46.5q37 42 53 166q19 95 27 273q6 121 5 242q0 57 -1 115q0 9 0.5 16t1.5 11v4v6q-6 155 -43 242q-28 73 -81 113q-52 39 -107 43q-8 1 -17 1q-46 -1 -90 -17 q-52 -20 -86 -56q-113 -125 -113 -487q0 -82 6 -175zM55 535q-5 92 -6 171q0 330 92 433q38 43 108 43h9q147 -3 162 -291v-8q3 -67 3 -143q0 -128 -9 -287q-10 -158 -23 -242q-7 -44 -18 -84q-10 -32 -17 -37q-13 -17 -42.5 -28t-55.5 -11q-60 0 -99.5 42t-64.5 128 q-27 88 -39 314z" />
<glyph unicode="P" horiz-adv-x="417" d="M-35 1231q2 -8 11 -24t10 -27q8 -110 8 -287q0 -123 -4 -277q-2 -87 -2 -166q0 -272 24 -446q0 -17 14 -27q11 -8 27 -8h6q17 1 27 14.5t8 32.5q-24 171 -24 436q0 77 2 162q0 12 28 29l47 25q26 13 72 47q86 63 111 151q17 52 17 101q0 55 -21 106q-38 99 -128 157 q-82 54 -178 54h-16q-17 0 -28 -12.5t-11 -30.5v-10zM72 1147v6q0 19 11 28q7 5 16 5q8 0 18 -4q85 -38 125 -120q23 -47 23 -96q0 -37 -13 -75q-27 -79 -127 -141q-13 -8 -23 -8q-8 0 -14 4q-14 9 -12 34q1 62 1 119q0 135 -5 248z" />
<glyph unicode="Q" d="M-12 201q15 -123 63 -197q34 -58 86 -76q24 -9 50 -9q34 0 71 15q65 28 86 93q6 18 12.5 26t14 5.5t13.5 -7.5t15 -16l9 -8q13 -13 30 -13q18 0 29.5 11.5t11.5 29.5q0 16 -10 29l-51 55q-22 22 -17 54q7 32 11.5 70t7 68t3.5 87t1 89q1 16 1 44.5t-1 70.5v126l4 122 q0 254 -127 355q-54 42 -109 47q-8 1 -15 1q-48 0 -92 -31q-51 -37 -83 -114q-51 -130 -51 -390q0 -221 37 -537zM70 209q-37 316 -37 532q0 243 47 359q36 91 94 91q34 0 76 -32q34 -27 56 -57.5t32 -57t14 -64.5q3 -31 3 -56v-12q-1 -30 -3 -79v-54v-31q1 -54 1 -100 q0 -58 -1 -105q-3 -84 -8.5 -156t-5.5 -78q-2 -32 -11.5 -40t-19.5 -0.5t-22 24.5q-40 51 -41 53q-7 13 -25.5 17t-30.5 -5q-14 -9 -17 -27t7 -30q69 -96 105 -137q23 -26 12 -55q-28 -70 -70 -93q-22 -13 -41 -13q-36 0 -63 44q-39 62 -51 162z" />
<glyph unicode="R" horiz-adv-x="565" d="M-68 1223q-3 -7 -3 -14q0 -9 5 -17q6 -15 23 -21.5t31 0.5q1 1 2 1.5t5 2t7.5 1.5t8 -1.5t8 -5.5t6 -13t2.5 -21q2 -72 3.5 -137.5t1.5 -105.5q0 -10 1 -23q1 -37 -1 -93q-2 -74 -2.5 -98.5t-3 -128.5t-3.5 -137q-7 -287 -7 -385q0 -17 12 -29t29 -12t29 12t12 29 q0 18 1.5 83.5t4.5 203.5t5 276q0 38 32 49q27 10 49 -12q65 -68 74 -230q3 -21 6 -82q1 -19 2.5 -37.5t3.5 -35t3 -23.5q9 -106 38 -164q21 -42 50.5 -56.5t59.5 -3t56 43.5q10 12 10 26q0 19 -14 33q-14 10 -30 8t-27 -14l-27 -10q0 2 -4 10q-29 65 -33 133l-6 90l-6 88 q-12 156 -70 246q-20 32 5 49q5 3 15 8.5t15 8.5q124 77 148 203q5 29 5 57q0 67 -30 123q-44 80 -133 127q-79 43 -171 49q-13 1 -27 1q-77 0 -148 -30q-17 -6 -23 -22zM106 1151v6q0 16 10 25q9 9 23 9q4 0 8 -1q68 -10 115 -37q68 -36 98 -92q21 -39 21 -86q0 -20 -4 -41 q-14 -74 -67.5 -119.5t-149.5 -83.5q-11 -4 -19 -4q-9 1 -17 5q-14 10 -13 32q0 39 1 80q-1 144 -6 307z" />
<glyph unicode="S" horiz-adv-x="591" d="M6 967q-4 -21 -4 -44q0 -28 6 -59q10 -49 29 -83.5t57 -75.5q54 -61 131 -123l25 -19q13 -10 51 -43l45 -45q31 -31 41 -45q38 -55 49 -104q4 -22 4 -46q0 -38 -10 -83q-11 -38 -48.5 -69.5t-86.5 -41.5q-22 -5 -42 -4q-27 0 -51 8q-41 15 -61 53q-28 54 -28 191v16 q0 17 -12 29t-29 12t-29 -12t-12 -29v-57q0 -34 4 -62q0 -38 10 -65q16 -49 23 -64q35 -62 101 -86q41 -15 87 -15q27 0 55 5q71 14 125.5 60t71.5 110q13 53 14 105q0 33 -6 65q-13 61 -63 131q-39 51 -97 105l-55 45q-4 2 -14 12q-64 52 -91 77t-61 66q-35 40 -45 80 q-6 23 -6 50q0 20 4 42q16 106 78 166q57 55 124 54h11q71 -6 111 -72q28 -46 28 -115q0 -31 -6 -67q-2 -18 8 -32.5t27 -15.5q18 -2 32 8t15 27q6 41 6 78q0 97 -44 167q-60 96 -171 103h-15q-98 0 -178 -73q-86 -79 -108 -215z" />
<glyph unicode="T" horiz-adv-x="542" d="M-33 1196q0 -17 12.5 -28t30.5 -11q33 2 111 2h6q36 0 35 -34v-5q-5 -173 -5 -460q0 -123 1 -267q2 -166 2 -344q0 -17 12 -29t29 -12t29 12t12 29q0 178 -2 344q-1 144 -1 267q0 287 5 462q3 39 41 39h39q47 -2 106 -2q17 0 29 12t12 29t-12 29t-29 12q-389 0 -424 -2 q-17 0 -28 -12.5t-11 -30.5z" />
<glyph unicode="U" horiz-adv-x="518" d="M29 1214q5 -109 8 -438q0 -322 8 -463q3 -49 5 -77.5t7 -68t11.5 -63t18 -51t27.5 -44t39 -30t52 -20.5q21 -4 40 -4q44 0 78 21q48 30 72 94q24 61 33 194q18 324 18 564q0 226 -16 376q-1 17 -14.5 28t-30.5 9q-17 -1 -28 -14.5t-9 -30.5q16 -157 16 -380 q0 -237 -18 -548q-6 -117 -27 -170q-22 -59 -76 -59q-11 0 -22 2q-50 10 -68 70.5t-26 205.5q-8 141 -8 461q-3 333 -8 441q0 17 -12.5 27.5t-30.5 10.5q-17 0 -28 -12.5t-11 -30.5z" />
<glyph unicode="V" horiz-adv-x="643" d="M-4 1212q4 16 18 26q10 7 23 8q4 0 8 -1q17 -3 26 -17t7 -32q-1 -1 2 -31q1 -12 14 -78q53 -253 86 -374l35 -148q16 -63 21 -80q3 -17 51 -221q8 -17 14 -17q11 0 20 50q2 8 3 18l2 15q21 92 63 334q37 227 49 288q2 7 11.5 45.5t17.5 71.5q18 86 22 113q1 17 15 27 t33 8q17 -1 27 -15q8 -12 7 -27v-6q-6 -47 -24 -120q-26 -101 -27 -113q-3 -16 -51 -289q-40 -230 -61 -334q-32 -137 -48 -219q-1 -8 -2 -14t-1.5 -8.5t-0.5 -3.5v-19q1 -39 -26 -55q-13 -8 -25 -8t-22 8l-11 10q-1 1 -2 3t-2 3q0 6 -2 8q-1 1 -1.5 3.5t-1 6t-1.5 5.5 l-12 45l-37 143q-54 223 -59 248q-2 13 -19 80l-35 143l-37 154q-32 128 -51 225q-16 86 -16 128v13zM272 313q2 -10 11 -37z" />
<glyph unicode="W" horiz-adv-x="911" d="M-29 1237q0 17 12 29t29 12t29 -12t12 -29q0 -65 29 -213q29 -146 31 -168q1 -3 8 -59q1 -11 3 -26t3 -23.5t2 -12.5l8 -57q2 -12 10 -62q1 -6 5 -25t6 -32q2 -12 5.5 -32t4.5 -27l12 -58l8 -28t9 -31l16 -55q1 -3 23 -80q6 -22 21.5 -9t18.5 44q3 15 3 18l55 344 q3 29 -2 53q-65 302 -86 514q-2 17 9 30.5t28 14.5q17 2 30.5 -8.5t14.5 -27.5q15 -138 22 -185q13 -82 22 -84l1 -1q9 0 26 85l35 193q5 17 18.5 26.5t30.5 6.5t26 -17.5t7 -32.5q-65 -348 -90 -512q-3 -29 2 -51l76 -336q6 -32 24 -86q5 -17 16 -21t21.5 6t14.5 30 q7 42 34 227l33 207l33 180q37 221 74 367q8 37 16 45q14 11 31 11q4 0 8 -1q17 -3 25 -18q5 -9 6 -20q0 -6 -2 -13l-39 -183q-22 -99 -39 -204l-31 -178q-13 -76 -33 -205l-28 -187q-8 -47 -33 -157q-2 -10 -21 -84q-2 -10 -8 -29l-4 -12q-1 -1 -3 -4t-3 -4 q-14 -17 -33 -17q-16 0 -24 8l-7 6q-1 1 -2 3.5t-2 3.5q-2 0 -2 2v-25q0 29 -2 31l-2 6l-10 25l-31 81q-40 110 -59 193l-8 33q-23 94 -27 94q-5 0 -20 -96l-7 -39q-2 -3 -8 -62q-12 -111 -28 -180q-8 -32 -25 -53q-14 -14 -35 -14q-19 0 -31 12q-6 6 -8 10t-5.5 16t-6.5 19 q0 1 -1 3t-1 3q-23 68 -27 84l-49 176q-3 10 -10 33t-10 37l-17 61q-2 10 -7 36t-7 38l-12 63q-1 4 -3 16.5t-4 27.5l-4 30q-3 15 -5 29.5t-3 23t-2 11.5t-2 11t-3.5 25t-4.5 33q-2 15 -4.5 32.5l-3.5 24.5t-2 9q0 1 -29 162q-31 155 -31 231z" />
<glyph unicode="X" horiz-adv-x="514" d="M-20 1178q12 -56 57 -193q42 -121 57 -184l58 -238q6 -27 -2 -53q-85 -271 -168 -481q-3 -6 -3 -12q1 -7 5 -17q8 -16 22 -23q8 -4 16 -4l14 3q15 6 23 24q47 110 113 309q5 15 12 37q10 34 13.5 35t11.5 -28q8 -27 14 -46q60 -187 117 -309q6 -14 23 -20q7 -2 15 -2 q9 0 17 4q15 6 20.5 22t-1.5 33q-89 190 -164 475q-6 28 2 53l78 264q14 55 28 113q37 154 78 225q5 8 5 19q1 6 -1 12q-4 18 -18 25q-13 8 -30.5 3t-24.5 -18q-43 -70 -88 -250q-22 -87 -27 -104l-21 -68q-22 -73 -27 -75q-2 -1 -5 6q-3 5 -19 71l-8 35q-21 81 -57 191 q-38 111 -54 182q-9 34 -38 34q-5 0 -11 -1q-32 -5 -32 -41v-8z" />
<glyph unicode="Y" horiz-adv-x="620" d="M-16 1219q12 -52 41 -146q42 -132 98 -274q10 -25 49 -131l5 -10t7.5 -20.5t3.5 -23.5q-10 -82 -10 -199q0 -89 6 -200q4 -176 4 -182q0 -17 12 -29t29 -12t29 12t12 29q0 56 -6 194q-5 104 -5 180q0 33 1 60q2 105 11 153t44 134q38 93 118.5 266t109.5 213q5 9 5 19 q0 6 -1 12q-4 17 -17 26q-10 6 -21 6h-9q-16 -4 -27 -18q-32 -47 -149 -303l-84 -191q-7 -16 -21 1q-6 6 -10 16q-2 8 -8 24.5t-8 22.5l-39 102l-31 88q-26 68 -57 197q-4 18 -18 27t-32 6q-32 -5 -32 -41v-8z" />
<glyph unicode="Z" horiz-adv-x="602" d="M-16 1223v-6q0 -15 8 -27q10 -14 26 -14q86 -10 170 -10q100 0 197 14q35 6 41 6h4l-4 -17q-7 -34 -31 -116q-56 -153 -78 -195q-13 -25 -67 -162l-109 -274l-98 -262l-31 -88q-2 -7 -4.5 -16t-3.5 -11l-4 -12v-8q0 -9 4 -21q9 -18 31 -24l20 -5q12 -2 51 -2q99 0 238 11 q53 3 94 6q25 2 51 2q17 0 29 12t12 29t-12 29t-29 12q-26 0 -51 -2q-43 -3 -98 -6q-147 -11 -234 -11q-4 0 -5 5.5t1 16.5t7 25l10 29l100 262l107 273q58 142 65 155q34 66 69.5 170.5t47.5 161.5q3 22 3 40q0 50 -24 69q-6 4 -18 8q-5 0 -10 1t-6 1q-2 0 -5 -1t-4 -1 q-16 0 -28 -2q-9 -3 -43 -6q-95 -14 -190 -14q-76 0 -152 9q-19 2 -32.5 -7.5t-14.5 -26.5z" />
<glyph unicode="[" horiz-adv-x="479" d="M33 141q-12 -94 3.5 -133.5t74.5 -52.5q36 -10 73 -12t181 -2q17 0 29 12t12 29t-12 29t-29 12q-144 0 -156 2q-56 3 -76 10q-24 14 -24 37q0 34 4 59q4 32 8.5 64t6 44.5t1.5 14.5q2 71 -2 362q-6 234 -6 320q0 4 -0.5 12.5t-1.5 23.5t-2 29q-12 100 -2 142q18 18 41 20 q18 2 73 -2q98 -6 127 -14q17 -5 31.5 3.5t18.5 25.5t-4 30.5t-25 18.5q-41 12 -141 18q-62 4 -82 2q-53 0 -80.5 -16t-38.5 -68q-13 -55 0 -170l2 -26l1.5 -19.5t0.5 -9.5q0 -86 6 -320q4 -289 2 -362z" />
<glyph unicode="\" d="M-16 1204q9 -73 59 -225q7 -23 16.5 -55t12.5 -41q79 -292 154 -495t177 -382q7 -13 25 -17.5t31 3.5q13 7 17.5 24.5t-3.5 30.5q-98 171 -169 363.5t-154 492.5q-7 30 -31 103q-44 140 -53 211q-1 17 -14.5 26.5t-31.5 7.5q-18 -1 -28 -14.5t-8 -32.5z" />
<glyph unicode="]" horiz-adv-x="415" d="M-47 1180q2 -19 14 -29.5t31 -9.5q79 8 154 8q51 -3 79 -6q23 -16 25 -39q1 -22 -10 -178q-6 -58 -6 -74q-3 -27 12 -440q2 -50 3.5 -108.5t2.5 -95t2 -56.5q2 -47 2 -84q0 -15 -4 -15h-4q-44 -10 -123 -10q-18 -2 -51 -2q-16 -2 -31 -2q-17 0 -28 -12.5t-11 -30.5 q0 -17 12.5 -28t30.5 -11q15 0 31 2q33 0 53 2q83 0 135 12q51 11 68 41q4 12 4 19v37q0 39 -2 86q-1 20 -2 55.5t-2.5 94.5t-3.5 108q-15 413 -12 434q0 17 6 72q3 57 6 86q9 122 -10 170q-11 35 -76 47q-86 14 -258 0q-17 -2 -27.5 -14t-9.5 -29z" />
<glyph unicode="^" horiz-adv-x="512" d="M-37 650.5q4 -16.5 17 -25.5t30 -6t27 16q111 172 190 344q2 5 7.5 17.5t7.5 17.5t6.5 10t8 0.5t8 -16.5t9.5 -35q29 -141 88 -301q6 -17 21.5 -24t32.5 -1t23.5 21t0.5 32q-59 160 -96 349q-1 7 -2 14.5t-1.5 12.5t-0.5 9q0 1 -1 5t-1 6q-4 33 -6 47q-4 33 -6 47 q-11 30 -15 35q-14 16 -35.5 17t-42.5 -23q0 -2 -2 -2q-8 -24 -8 -31v-6v-4l-2 -5q-93 -235 -254 -491q-8 -13 -4 -29.5z" />
<glyph unicode="_" horiz-adv-x="892" d="M-39 -23q3 -17 17 -25t32 -3q72 18 211 12q94 -4 101 -4q25 0 229 4q102 2 231 2q17 0 29 12t12 29t-12 29t-29 12q-129 0 -231 -2q-204 -4 -229 -4q-5 0 -17.5 0.5t-36 1.5t-43.5 2q-123 5 -213 -10q-3 -1 -11.5 -2.5t-12.5 -3t-9.5 -4.5t-9.5 -7q-12 -14 -8 -39z" />
<glyph unicode="`" horiz-adv-x="348" d="M25.5 1174q5.5 -17 19.5 -23q42 -19 80 -57l43 -39l39 -39q13 -10 31 -10q17 0 27.5 12t10.5 31q0 16 -12 28l-39 35l-45 43q-44 44 -98 70q-17 7 -33 1.5t-22 -20.5q-7 -15 -1.5 -32z" />
<glyph unicode="a" horiz-adv-x="522" d="M-27 14v-6q0 -14 8 -26q10 -14 27 -15q18 -2 32 8t15 27q9 54 23 264q6 82 15.5 198.5t10.5 135.5q3 37 38 37h5q104 -4 154 -8q40 -3 43 -41q25 -305 25 -584q0 -17 12 -29t29 -12t29 12t12 29q0 471 -68 961l-6 43q-8 77 -25 145q-14 46 -38 75q-22 30 -58 40 q-10 3 -21 2q-27 0 -59 -17q-34 -17 -56.5 -71t-41.5 -146q-37 -187 -82 -764q-13 -171 -23 -258zM121 764q15 134 37 256q12 61 32 119q13 35 33 47q5 2 9 2q15 0 28 -25q19 -39 29 -92q12 -86 12 -119q16 -107 27 -196v-5q0 -36 -37 -36h-6q-86 4 -125 4q-39 3 -39 40v5z " />
<glyph unicode="b" horiz-adv-x="600" d="M-4 1099q1 -29 10 -108l10 -100q6 -112 9 -248q0 -9 -1.5 -23t-0.5 -20q4 -21 4 -41q2 -115 2 -543q0 -17 12 -29t29 -12l39 2q7 -3 12 -3q2 0 4 1q103 22 183 65t128.5 99.5t72.5 123.5q22 62 22 127v10q-2 70 -29 141q-30 77 -83.5 134t-117.5 77q-2 1 -7 2t-7 2 q-31 6 -31 25q0 10 8 24q32 62 41 82q23 58 23 116q0 13 -1 25q-6 70 -44 131q-39 65 -105 97q-47 22 -100 22q-22 0 -45 -4q-33 -9 -33 -43v-6q2 -2 2 -6q0 -7 -2 -9q-4 -68 -4 -100v-11zM78 1153q2 23 14 33q7 7 18 6q6 0 13 -2q51 -14 90 -74q25 -44 31 -96q1 -12 2 -23 q0 -40 -15 -77q-33 -77 -71 -123q-17 -24 -36.5 -17t-21.5 37q-3 107 -14 187q-10 86 -10 134v15zM106 565q0 29 19 51q52 63 114 63q18 0 37 -5q45 -14 85 -57.5t63 -104.5q24 -58 24 -117v-17q-4 -68 -33 -126t-95.5 -106.5t-161.5 -75.5q-9 -2 -16 -3q-10 0 -18 6 q-12 9 -13 31q0 196 -5 461z" />
<glyph unicode="c" horiz-adv-x="559" d="M31 918q-29 -269 -29 -454q0 -226 43 -327q35 -86 97 -131q50 -37 104 -37q12 0 24 2q68 11 115.5 69.5t60.5 149.5q2 18 -7.5 32.5t-26.5 15.5q-18 2 -32 -8t-15 -27q-10 -66 -39 -105t-66 -45q-7 -1 -13 -1q-31 0 -63 24q-38 29 -65 94q-36 84 -36 283q0 181 30 456 q11 113 62 194t110 99q13 4 24 4q30 0 51 -28q46 -58 46 -195q0 -17 11.5 -29t28.5 -12t29 12t12 29q0 163 -63 245q-47 61 -113 61q-23 0 -49 -7q-87 -27 -152.5 -128t-78.5 -236z" />
<glyph unicode="d" horiz-adv-x="497" d="M20 625v-81q0 -292 19 -515q0 -1 1 -4t1 -5q9 -25 37 -28q31 0 47 4q8 2 20 14q95 112 164.5 252.5t98.5 284.5q19 96 19 183q0 233 -138 398q-52 64 -100.5 94.5t-114.5 34.5h-2q-18 0 -29.5 -10.5t-11.5 -27.5v-5q0 -127 -11 -589zM102 623q10 452 11 489q0 24 14 34 q5 4 12 4q10 0 21 -9q21 -13 67 -66q73 -89 101 -203q18 -75 18 -151q0 -41 -5 -82q-15 -119 -59.5 -237t-115.5 -226q-12 -21 -28 -21q-3 1 -7 1q-20 6 -22 34q-8 155 -7 328q-1 51 0 105z" />
<glyph unicode="e" horiz-adv-x="518" d="M27 1188q12 83 45 102q9 6 37 10h133q112 -4 146 -4h13q19 1 31 -9t14 -27q1 -4 1 -7q0 -13 -9 -24q-12 -12 -28 -15h-5q-25 0 -165 5h-86h-2q-35 0 -35 -2q-5 -9 -8 -37q-3 -27 -3 -64q0 -74 11 -188q6 -76 6 -94v-70v-6q0 -37 39 -37q37 0 53 2q18 0 30.5 -11t12.5 -28 q0 -18 -11 -30.5t-28 -12.5q-16 -2 -61 -2q-40 0 -43 -41q-6 -185 -6 -305q0 -98 4 -154q3 -60 10 -80q0 -1 1 -4t1 -4q0 -8 33 -14q10 -1 31 -1q41 0 122 5q62 4 68 4q17 0 29 -12t12 -29t-12 -29t-29 -12q-4 0 -62 -4q-74 -4 -77 -4q-20 -1 -39 -1q-74 0 -115 19 q-32 12 -43 68q-9 35 -12 92q-5 73 -5 170q0 117 7 268q3 94 6 170q2 45 2 93q0 12 -6 86q-11 120 -11 199q0 40 3 69z" />
<glyph unicode="f" horiz-adv-x="552" d="M31 426q-4 -62 -4 -132q0 -126 12 -276q1 -17 15 -28q11 -8 25 -8h5q17 1 28 14.5t9 30.5q-10 88 -10 227q0 154 12 369q3 40 39 43q54 4 74 4q17 0 27.5 12.5t10.5 30.5q0 17 -12.5 28t-30.5 11q-32 0 -55 -2h-4q-13 -2 -27.5 9.5t-13.5 31.5q0 35 2 49q1 13 1 38 q0 51 -3 152q-1 20 -2 61t-2 56q0 41 43 41h98q112 0 168 -6q17 -2 30.5 9t14.5 28v5q0 14 -9 26q-11 13 -28 14q-59 6 -178 6q-32 -1 -59 -1q-65 0 -109 5h-4q-16 0 -28 -12q-16 -18 -19 -35q-2 -2 -2 -13q0 -14 0.5 -38t1.5 -68.5t2 -81.5q2 -122 2 -165v-20 q-1 -22 -10 -196z" />
<glyph unicode="g" horiz-adv-x="509" d="M-10 642q5 -205 41 -374q37 -181 115 -259q48 -49 100 -49q30 0 61 17q58 33 92 123.5t41 196.5q1 16 1 31q0 76 -21 112q-26 43 -92 47q-10 2 -41 2l-29 -2q-17 0 -29 -12t-12 -29t12 -28.5t29 -11.5q13 0 33 2q50 0 57 -9q11 -14 11 -65q0 -17 -1 -38q-5 -83 -30 -153 q-27 -76 -58 -92q-9 -4 -19 -4q-26 0 -61 31q-47 44 -79.5 202t-38.5 363q-1 36 -1 71q0 160 23 284q28 149 78 186q26 17 50 17q33 0 63 -30q25 -26 33 -61q2 -13 2 -26q0 -21 -7 -40q-7 -17 0 -32t23 -21q14 -7 29.5 0t21.5 21q14 40 14 78q0 19 -3 38q-12 56 -52 99 q-45 46 -100 53q-8 2 -17 2q-47 0 -102 -33q-79 -52 -113 -239q-25 -137 -25 -305q0 -31 1 -63z" />
<glyph unicode="h" horiz-adv-x="573" d="M44 745q0 -55 1.5 -78.5t4.5 -118t5 -155.5q8 -216 8 -373q0 -17 12 -28.5t29 -11.5t29 11.5t12 28.5q0 146 -10 429q-1 27 -2 79.5t-2 75.5v5q0 36 39 36h188q39 0 39 -37v-6q0 -65 -4 -143v-54q0 -279 29 -389q4 -17 18 -25t31 -3q17 4 25 18q5 9 5 20q0 5 -1 11 q-25 112 -25 364v56q1 20 3.5 98.5t4.5 136.5q4 208 4 217q0 35 2 68q3 50 3 82q0 87 -23 155q-5 14 -21 22q-9 5 -18 5q-6 0 -12 -2q-16 -6 -24.5 -21t-2.5 -32q19 -48 19 -127q0 -45 -2 -76t-2 -74q0 -13 -1.5 -59.5t-1.5 -81.5q-3 -41 -43 -41h-192q-41 0 -41 41 q0 26 4 182q3 93 4 168q0 45 -2 84q0 17 -12 28t-29 11q-19 0 -30 -12t-11 -31q2 -37 2 -84q0 -70 -4 -162q-1 -70 -3 -111q-1 -31 -2 -69v-27z" />
<glyph unicode="i" horiz-adv-x="221" d="M53 547q-1 -43 -1 -88q0 -90 5 -189q11 -262 11 -272q0 -17 12 -29t29 -12t29 12t12 29q0 18 -11 276q-5 96 -5 184q0 44 1 85q11 277 11 485q0 110 -3 201q0 17 -12.5 28t-30.5 11q-17 0 -28 -12.5t-11 -30.5q3 -69 3 -167q0 -196 -11 -511z" />
<glyph unicode="j" horiz-adv-x="602" d="M-41 352q3 -9 6 -51q1 -16 8 -65l11 -56q15 -76 47 -121q47 -72 104 -86q14 -3 27 -3q42 0 80 34q71 65 98 193q27 133 30 453q1 43 1 85q0 259 -19 416q-1 5 -1 10q0 33 38 33q18 1 52 2t51 2q17 0 27.5 12.5t10.5 30.5q0 17 -12.5 28t-30.5 11q-126 -6 -360 -6 q-17 0 -29 -12t-12 -29t12 -29t29 -12h98q39 0 45 -37q20 -146 20 -408v-83q-4 -323 -32 -451q-21 -102 -72 -147q-19 -16 -32 -13q-26 3 -54 51q-27 42 -37 95q-10 52 -16 108q-3 44 -6 53q-1 18 -14 28.5t-31 8.5q-18 -1 -28 -14q-9 -11 -9 -25v-6z" />
<glyph unicode="k" horiz-adv-x="528" d="M25 401q4 -336 4 -378q0 -17 12 -29t29 -12t29 12t12 29q0 113 -5 428q0 23 0.5 39.5t3 24.5t4.5 13t6 2t7 -5t8 -11t7.5 -14t7.5 -15.5t6 -13.5q41 -93 59 -143q1 -2 22 -53t23 -58q6 -19 45 -108l23 -48q14 -31 55 -92q11 -13 27 -15q3 0 6 -1q12 0 24 8q13 11 16 27 q1 4 1 7q0 12 -8 23q-2 4 -10.5 15.5t-12.5 19.5l-20 33q-7 12 -21 43l-18 39q-15 38 -19 49q-16 36 -18 43q-4 9 -19.5 49.5t-17.5 46.5q-73 186 -133 277q-19 25 -4 55q18 33 69 141q60 123 105.5 202t95.5 140q12 14 10 31t-14 29q-14 10 -30 8t-27 -14q-30 -34 -78 -111 q-65 -106 -127 -235l-6 -15q-2 -5 -8 -17q-19 -45 -28 -45q-11 0 -13 62q-1 16 -1 35q0 107 9 328q0 18 -11 30.5t-28 12.5q-18 0 -30.5 -11t-12.5 -28q-9 -218 -9 -487q0 -162 3 -343z" />
<glyph unicode="l" horiz-adv-x="450" d="M0 588q2 -131 2 -295q0 -138 2 -152q4 -134 55 -161q46 -19 127 -19h23q47 3 77 3t44 -3q6 -1 11 -1q11 0 19 5q14 8 19 25q1 6 1 11q0 11 -5 19q-8 14 -25 19q-26 6 -76 6q-30 0 -69 -2q-11 -1 -24 0q-24 0 -52 2q-29 3 -33 14q0 2 -1 5.5t-1 5.5q-4 20 -8 75 q-2 14 -2 148q0 164 -2 293q-2 152 -2 280q0 213 6 359q0 18 -11 30.5t-28 12.5q-18 0 -30.5 -11t-12.5 -28q-6 -148 -6 -361q0 -128 2 -280z" />
<glyph unicode="m" horiz-adv-x="681" d="M4 1167q0 -69 8 -186l4 -86q3 -70 3 -180.5t-3 -259.5q-3 -132 -3 -233q0 -135 5 -214q0 -17 12.5 -28t30.5 -11q17 0 28 12.5t11 30.5q-5 77 -5 210q0 100 3 231q3 151 3 262.5t-3 183.5q0 6 -0.5 17.5t-1.5 32t-2 36.5q-4 86 -4 100q0 1 7.5 -10.5t16.5 -26.5t13 -22 q12 -20 39 -72q51 -102 55 -108q26 -50 47 -107l17 -47q4 -12 6 -14l4 -8l4 -4q3 -6 6 -9q21 -15 41 -8q7 3 12.5 7t7.5 7l1 3q0 2 2 4l3.5 7t2.5 7t1 4.5t1 3.5q2 5 14 45l45 144q11 31 21 65q26 86 38 86h2q7 -3 7 -41q0 -15 1 -43t1 -41v-309q0 -147 4 -307 q3 -115 18 -301q0 -17 14 -28q11 -9 26 -9h5q17 1 28 15q9 11 9 25v5q-15 182 -18 299q-4 164 -4 301v309q0 190 -10 275q-1 7 -7 37l-6 18q-11 22 -35 27q-4 1 -9 1q-19 0 -36 -18l-2 -2q-3 -3 -7.5 -14t-4.5 -14q0 -1 -1 -4.5t-1 -4.5l-2 -4q-36 -62 -109 -299l-8 -24 q-11 -37 -28 -42q-7 -2 -11 7q-6 20 -16 37l-49 96q-64 131 -119 203q-17 28 -25 43v-8q-2 2 -3.5 4.5t-2.5 3.5q-19 21 -42 21q-12 0 -25 -5q-18 -11 -21 -24q-4 -12 -4 -21v-29z" />
<glyph unicode="n" horiz-adv-x="536" d="M-8 256q0 160 8 313q6 169 6 244q0 47 6 141q4 118 4 136v94v4q-2 6 -4 14q-1 6 -1 11q0 34 24 47q15 9 35 2q32 -8 41 -50q2 -4 2 -16q0 -1 1 -2t1 -2q0 -6 8 -27q2 -6 9 -26t11 -35q18 -47 29 -90q0 -1 8 -36t19 -81t26 -108t31 -126l31.5 -126t31 -117t27.5 -90 l-18 59q16 -53 39 -89q4 -6 4 -3v33q0 76 -6 276q-3 117 -3 218q0 253 21 409q1 17 15 27q11 8 26 8h6q17 0 27 -14q8 -11 8 -27v-6q-22 -156 -22 -405q0 -96 3 -206q7 -226 7 -280v-162q-1 -15 -2 -45t-2 -43q-1 -3 -7 -29q-7 -29 -28 -39q-22 -11 -47 6q-1 1 -3.5 4.5 t-3.5 4.5q-5 5 -8 16l-3 9q-3 10 -5 16l-25 73l-51 164q-40 114 -94 344q-15 69 -43 182q-4 16 -13.5 45t-17.5 50l-8 22q-4 -118 -4 -135q0 -83 -6 -264q-8 -164 -8 -275q0 -103 14 -251q2 -19 -8 -33t-27 -15h-6q-15 0 -27 8q-14 10 -14 27q-14 98 -14 246z" />
<glyph unicode="o" horiz-adv-x="514" d="M-34 653q12 -138 30 -246.5t41 -191.5q38 -132 86 -188q46 -54 99 -54q36 0 75 25q72 48 106 182q29 100 37 257q4 70 4 162q0 115 -6 265v32q0 171 -30 253q-28 79 -82 119q-38 29 -87 29q-20 0 -42 -5q-48 -10 -93 -47.5t-69 -83.5q-49 -95 -65 -233q-10 -81 -9 -162 q0 -56 5 -113zM48 656q-5 56 -5 112q0 72 8 144q15 128 58 212q14 30 44.5 56t59.5 30q12 3 23 3q61 0 94 -91q23 -71 26 -159q2 -21 4 -227q1 -69 1 -123q0 -110 -3 -164q-16 -321 -106 -381q-17 -10 -29 -10h-5q-14 2 -34 22q-34 42 -69 158q-21 78 -38 183t-29 235z" />
<glyph unicode="p" horiz-adv-x="446" d="M-27 1206q2 -10 11 -24.5t12 -22.5q4 -15 7 -30t5 -34t3 -33t1 -38v-37t-1 -43t-1.5 -43t-2.5 -48.5t-3 -49.5q-3 -68 -3 -103q0 -17 1 -26q3 -68 18 -285q15 -218 15 -340q0 -17 12 -29t29 -12t29 12t12 29q0 95 -19 391q-9 127 -10 142q-3 32 12 36q8 0 15 7l49 26 q52 30 63 39q22 13 51 39.5t46 52.5q45 62 51 140q1 12 1 24q0 126 -104 236q-50 53 -123 73q-37 10 -73.5 10t-73.5 -10q-16 -3 -25 -18q-5 -9 -5 -20q0 -5 1 -11zM84 750q0 6 1 23t1 26q1 27 3.5 79.5t3.5 76.5t1 60.5t-2.5 63.5t-7.5 54q-1 5 -1 10q0 17 9 27q7 8 18 8 q6 0 13 -2q25 -8 61 -29q109 -79 109 -203q0 -64 -35 -117q-6 -8 -22 -24q-22 -25 -56 -45l-28 -19q-3 -2 -35 -18q-9 -6 -17 -10q-2 -1 -4 -1q-7 0 -10 14q-2 10 -2 26z" />
<glyph unicode="q" horiz-adv-x="626" d="M32 646q4 -140 21 -261q8 -50 45 -142.5t78 -158.5q40 -60 84 -94q38 -29 78 -29h10q44 4 76 57q6 9 11 15.5t8.5 10.5t7.5 4.5t6 1t6 -3.5t5.5 -5t6.5 -7.5t6 -8.5l2 -2q11 -13 27.5 -14.5t30.5 9.5q14 13 14 32q0 14 -10 26l-39 49q-20 23 -12 55q37 149 51 375 q5 88 5 167q0 124 -13 226q-1 3 -7 15q-14 82 -50.5 161t-84.5 127q-50 50 -103 57q-8 1 -16 1q-46 0 -90 -35q-52 -42 -92 -131q-35 -78 -50 -217q-13 -110 -13 -222q0 -29 1 -58zM116 784q7 226 52 326q47 103 94 115q6 2 13 2q28 0 61 -33q44 -44 78.5 -127t40.5 -156 q6 -25 8 -43q3 -46 3 -95q0 -45 -2 -92q-5 -100 -18.5 -235.5t-15.5 -164.5q-2 -25 -8 -35.5t-11.5 -9t-13.5 7.5q-14 14 -22 20q-12 10 -29.5 8t-28.5 -14q-10 -14 -7.5 -31t16.5 -28q24 -17 45 -41q23 -23 16 -41q-3 -10 -8 -17q-26 -49 -52 -49q-4 0 -7 1q-29 7 -74 77 q-39 57 -72.5 142t-38.5 126q-21 125 -21 291q0 46 2 96z" />
<glyph unicode="r" horiz-adv-x="548" d="M31 1223q3 -9 6 -15q15 -183 15 -412q0 -159 -7 -339q0 -7 -0.5 -20t-1.5 -37.5t-2 -43.5l-6 -110q-2 -42 -2 -81q0 -70 6 -130q1 -17 15 -28q11 -9 25 -9h5q17 1 28 14.5t9 30.5q-5 59 -5 128q0 34 1 71q3 39 6 110q1 18 1.5 42t1 37.5t1.5 21.5q0 7 1 23t1 24 q0 66 13 66h1q9 -1 35 -54q53 -103 127 -303q47 -119 82 -178q8 -14 24 -19t31 4q23 14 23 33q0 11 -8 23q-33 59 -74 168q-63 162 -72 178q-51 116 -90 188q-6 13 -6 24q0 21 23 32q94 52 165 141q69 87 75 189q1 11 0 21q0 89 -50 152q-57 79 -151 107q-47 14 -101 14 q-55 0 -117 -14q-17 -4 -25 -18q-5 -9 -5 -18q0 -6 2 -13zM121 1163q0 43 39 43h16q122 0 186 -88q35 -41 35 -110v-11q-5 -72 -62.5 -148.5t-144.5 -119.5q-22 -12 -51 -12l2 -2q-8 0 -8 45q0 230 -12 403z" />
<glyph unicode="s" horiz-adv-x="571" d="M-16 1001q-3 -23 -3 -44q0 -101 58 -181q34 -49 60.5 -77.5t84.5 -80.5q59 -54 85.5 -81t62.5 -72q72 -89 84 -203q2 -23 2 -43q0 -81 -34 -129q-40 -54 -103 -53h-13q-77 6 -131.5 84.5t-54.5 208.5q0 17 -12 29t-29 12t-29 -12t-12 -29q0 -160 74 -262t186 -113 q12 -1 24 -1q96 0 160 78q57 71 57 183q0 27 -3 55q-15 140 -101 244q-57 70 -157 164q-74 68 -111 112t-54 92q-12 33 -12 71q0 18 3 36q12 91 72 145q57 53 129 52h5q72 0 107 -60q20 -35 20 -86q0 -37 -10 -84q-2 -18 7 -31t26 -16t31 5.5t18 25.5q11 51 10 94 q0 82 -37 142q-58 90 -172 92h-5q-100 0 -182 -74q-84 -76 -101 -193z" />
<glyph unicode="t" horiz-adv-x="563" d="M-39 1211q-1 15 9 26q10 12 28 14q45 3 123 3q47 0 106 -1q87 -4 150 -4q42 0 72 2q18 0 30.5 -11t12.5 -28q0 -18 -11 -30.5t-28 -12.5q-30 -2 -72.5 -1.5t-97.5 1.5h-5q-34 0 -34 -35v-6q5 -52 5 -106q0 -23 -1 -47q-2 -43 -2 -82q0 -81 -6 -262q-6 -142 -6 -256 q0 -200 18 -314q2 -18 -8 -32t-27 -15h-6q-14 0 -26 8q-14 10 -15 27q-18 120 -18 326q0 117 6 262q6 181 6 256q0 47 2 90q0 20 1 48.5t1 39.5q0 -36 -6 1q-6 40 -6 61q0 41 -41 41q-70 0 -109 -5q-19 -1 -31 9q-14 12 -14 33z" />
<glyph unicode="u" horiz-adv-x="479" d="M-2 739q10 -245 10 -378q0 -62 -2 -99q-1 -32 -1 -59q0 -92 15 -140q36 -113 145 -113q17 0 36 3q73 11 113.5 57.5t66.5 128.5q22 70 22 172v90q-2 39 -2 76q0 11 7 258q1 81 1 138q0 94 -3 118q-1 6 -2.5 24t-3.5 41.5t-5 47.5q-6 68 -6 106q0 17 -12 29t-29 12 t-29 -12t-12 -29q0 -51 8 -114q7 -87 9 -109q3 -23 3 -117q0 -56 -1 -137q-7 -247 -7 -256q0 -25 3 -80v-86q0 -89 -19 -147q-19 -63 -45.5 -93t-69.5 -36q-40 -6 -59.5 6.5t-30.5 46.5q-12 40 -12 112q0 27 2 58q2 43 2 107q0 138 -10 378q-6 145 -6 258q0 131 8 218 q1 19 -9.5 31t-27.5 14h-3q-17 0 -28 -10q-12 -10 -14 -27q-8 -90 -8 -224q0 -116 6 -264z" />
<glyph unicode="v" horiz-adv-x="540" d="M-27 1219q29 -133 43 -248q8 -70 15 -119q1 -5 96 -549q6 -42 37 -164q10 -52 18 -76q2 -4 3.5 -8.5t2.5 -9t2 -6.5l5 -10l6 -13q11 -12 24 -14h8q18 0 33 12q17 21 23 49q4 12 16 84q9 54 41 347q15 134 47 350q29 192 74 342q3 7 3 14q0 9 -5 18q-8 15 -25 21 q-17 5 -32 -3.5t-19 -25.5q-50 -159 -78 -354q-32 -219 -45 -354l-20 -168l-4 -47l-8 -30q-8 -20 -15 7q-5 18 -10 55q-95 538 -96 545q-6 35 -15 115q-20 169 -47 260q-5 17 -19 25q-9 5 -19 5q-5 0 -11 -1q-17 -4 -25 -18q-5 -9 -5 -20q0 -5 1 -11z" />
<glyph unicode="w" horiz-adv-x="819" d="M0 1229q-2 -16 -2 -36q0 -63 18 -157q2 -14 5.5 -32.5t5 -29.5t2.5 -18q1 -11 4 -41t9.5 -86.5t12.5 -111.5l35 -307q18 -158 35 -248q6 -28 15 -67.5t10 -43.5q2 -12 8 -31l4 -12l4 -8q6 -9 12 -12q14 -6 26 -6q6 0 12 2q16 6 22 18q0 6 2 8l4 8l6 25q1 9 6.5 35t7.5 39 l43 223l31 172q4 22 7 36t6 23.5t6 10t5.5 -1t6.5 -12.5t7 -23t9 -33q50 -189 135 -403q22 -48 35 -72q11 -18 16 -23q18 -15 41 -8q31 11 35 41q3 13 6 37q6 46 6 117q0 59 -4 135q-3 75 -3 147q0 384 93 715q2 5 2 11q-1 8 -5 18q-8 16 -23 22q-15 5 -31 -4t-20 -26 q-98 -338 -98 -739q0 -73 3 -148l-2 -41q-3 -18 -10 -18q-12 0 -35 57q-54 133 -102 387q-1 9 -6 34t-6 31q-4 22 -6 29q-3 15 -13 25q-10 12 -28 16h-6q-36 0 -50 -31q-10 -18 -10 -69q0 -5 -4 -41q-4 -21 -13 -67t-25.5 -130t-31.5 -160q-14 -83 -26 -83q-1 0 -2 1 q-7 5 -13 43q-6 41 -12 103l-35 307q-6 55 -12.5 112t-9.5 87t-4 41q-2 25 -13 88q-16 99 -17 159q0 7 1 13q1 17 -9.5 29t-27.5 14h-3q-17 0 -28 -10q-12 -10 -14 -29z" />
<glyph unicode="x" horiz-adv-x="626" d="M-27 43q-3 -7 -3 -14q0 -9 5 -17q8 -14 25 -20t32 1.5t19 24.5q20 64 64 154q34 71 64 145t44 103q5 10 10 20.5t7.5 17t5.5 12t4 8.5t3.5 2.5t3 -1.5t3 -7.5t4 -12t5.5 -18.5t7 -23l23 -74q70 -232 141 -346q10 -13 28 -16q4 -1 8 -1q12 0 22 7q13 9 16.5 25.5 t-4.5 29.5q-65 96 -133 330l-51 162l-21 55q-12 26 0 55q153 406 244 557q5 8 5 18q0 6 -2 12q-4 18 -17 25q-8 5 -19 5q-6 0 -12 -2q-18 -4 -25 -17q-74 -118 -200 -438q-22 -55 -26 -58q-5 -2 -11 11q-1 3 -19 49q-142 371 -153 407q-6 14 -22 22.5t-30 2.5 q-16 -6 -24 -21t-2 -32q54 -148 119 -316l88 -227q12 -27 0 -53l-88 -230q-11 -33 -70 -153q-46 -94 -68 -164z" />
<glyph unicode="y" horiz-adv-x="581" d="M-25 1196q33 -84 123 -266q88 -178 123 -258q4 -8 6 -10q-48 -167 -186 -623q-6 -17 2 -31.5t25 -19.5q8 -3 15 -3q9 0 17 5q15 7 19 24l65 215l70 236l65 207q52 160 78 227l29 88q48 131 78 176q6 9 6 21q0 5 -2 10q-3 18 -16 27q-14 9 -30.5 5t-27.5 -18 q-41 -68 -86 -196q-16 -52 -29 -84l-30 -86q-8 -23 -15.5 -32t-14.5 -5t-12 12t-11 23q-8 16 -29.5 58t-34.5 69q-78 154 -119 258q-6 17 -22 23q-8 4 -16 4t-15 -3q-15 -6 -23 -23q-5 -10 -5 -18q0 -6 3 -12z" />
<glyph unicode="z" horiz-adv-x="579" d="M-8 1221q6 21 24 28q2 3 11 3q6 0 14 -2q21 -4 25 -3q30 0 55 -2q24 -1 72.5 -2t72.5 -2h205q2 -2 6 -2q1 -1 3 -1.5t3 -1t2 -1.5q14 -11 21 -29q3 -11 3 -23q0 -21 -9 -48q-9 -41 -33 -99l-41 -100q-27 -58 -27 -62q-39 -95 -170 -458l-100 -281l-14 -43q-16 -47 -4 -47 q41 -3 78 -3q19 0 36 1q118 3 199 15q18 2 32 -8t15 -27q2 -18 -8 -32.5t-27 -15.5q-66 -9 -177 -13q-46 -1 -80 -2q-49 0 -75 3q-78 4 -94 41q-4 12 -4 16v5q0 2 2 4v6q0 4 2 8l10 27l31 92l101 280q128 358 170 465q3 0 69 158q17 47 27 80q-3 14 -17 14h-137 q-218 4 -244 12q-17 5 -25 19q-5 9 -5 18q0 6 2 13z" />
<glyph unicode="{" horiz-adv-x="557" d="M-16.5 544.5q-3.5 24.5 14.5 37.5q4 4 8 6q3 3 12 6q1 0 9.5 4t15.5 8q106 42 143 72q10 3 13 10q-4 4 -6 8q-3 6 -15.5 20t-17.5 21q-62 80 -86 136t-8 124q17 71 77 124t144 81q83 25 157 25q17 0 29 -12t12 -29t-12 -29t-29 -12q-66 0 -131.5 -21.5t-109.5 -58.5 q-98 -81 -33 -205q2 -5 53 -72q25 -28 35 -45l14 -18q7 -12 11 -27q9 -45 -45 -86l45 35q-7 -6 -15.5 -13t-14.5 -11.5t-11 -8.5l-7.5 -6t-1.5 -2q68 -10 81.5 -61.5t-29.5 -112.5q-7 -8 -20.5 -25.5t-28.5 -37.5t-19 -25q-45 -60 -45 -115q0 -36 26.5 -81.5t67.5 -67.5 q40 -18 119 -29q17 -1 27 -15t8 -32q-1 -17 -15 -27t-32 -8q-103 14 -157 45t-95 107q-73 132 31 272l34 47q43 53 48 71q2 6 2 11q-2 2 -11 2q-40 2 -116 -10q-51 -11 -74 -8q-13 0 -25 4q-23 10 -26.5 34.5zM283 647q8 4 14 10z" />
<glyph unicode="|" horiz-adv-x="258" d="M61 1161q10 -56 13 -139q0 -103 2 -123q28 -446 28 -862q0 -17 12 -29t29 -12t29 12t12 29q0 458 -28 866q-1 3 -4 119q-3 111 -11 156q-10 38 -47 32q-38 -6 -35 -49z" />
<glyph unicode="}" horiz-adv-x="450" d="M-50.5 1171q-5.5 -15 1.5 -30q8 -16 22.5 -22t32.5 1q64 30 170 15q51 -6 57 -39q10 -61 -98 -244q-42 -67 -63 -109q-1 0 -4 -6q-6 -9 -9 -12q-17 -29 -5 -59.5t52 -44.5q9 -4 22 -8q11 -5 11 -7l-6 -6q-53 -31 -53 -70q0 -6 2 -12t4 -9.5t7 -9t7 -8t8.5 -8t8.5 -6.5 q3 -2 11.5 -9.5t18.5 -15.5t21 -16t21 -16t18.5 -15.5t11.5 -9.5q2 -1 5 -4t5 -4q23 -23 25 -39q10 -57 -63 -148.5t-179 -168.5q-14 -11 -16 -27.5t8 -30.5q11 -14 27 -16t30 8q41 31 79 64t75 72t63.5 79t42.5 79.5t15 79t-21 73.5q-3 5 -7 10.5t-10 11.5t-11 10.5 t-14.5 13t-15.5 13t-19.5 15t-20.5 16.5q-19 13 -17.5 29t23.5 26q11 5 43.5 19t52.5 22l25 10q2 1 5.5 2t4.5 2q4 2 11 9q11 8 14.5 22.5t-4.5 32.5q-12 21 -35 24q-10 1 -15 0.5t-10.5 -1.5t-7.5 -1q-6 0 -8 -2q-4 -2 -8 -2h-4q-22 0 -47 -2t-56 -2l-43 15q1 1 2 3t2 3 q2 5 60 98q63 103 91 174.5t17 128.5q-11 55 -72 84.5t-137 27.5t-135 -30q-14 -8 -19.5 -23z" />
<glyph unicode="~" horiz-adv-x="735" d="M-43 276q0 -17 12 -28.5t29 -11.5t29 11.5t12 28.5q0 21 16 64q15 38 39.5 66.5t48.5 35.5q45 14 62 -32q18 -43 33 -58q49 -57 108 -72t114.5 8t106 67.5t90.5 105.5q8 13 4.5 30.5t-16.5 26.5q-14 9 -30 5.5t-27 -17.5q-61 -96 -134 -131t-137 12q-16 14 -26 37 q-2 3 -5 9t-5 9q-18 44 -45 62q-58 34 -110 19.5t-93 -64.5q-34 -37 -55 -88.5t-21 -94.5z" />
<glyph unicode="&#xa1;" horiz-adv-x="174" d="M-27 836q3 -27 29 -37q27 -6 51 6q16 6 21 22l12 33q3 9 4 10q2 6 2 17q0 21 -18.5 33t-40.5 2q-9 -3 -13 -11l-4 -4l-32 -41q-14 -17 -11 -30zM-6 -319q0 -17 12 -29t29 -12t29 12t12 29q0 423 8 530q1 14 8.5 97t9.5 114q8 117 -16 213q-5 17 -18.5 25t-30.5 4 t-25.5 -18.5t-3.5 -31.5q17 -67 12 -188l-10 -111q-2 -26 -4.5 -59t-3.5 -41q-8 -107 -8 -534z" />
<glyph unicode="&#xa2;" horiz-adv-x="534" d="M-25 328q-6 -114 29.5 -199.5t97.5 -132.5q27 -21 19 -53q-21 -84 -33 -136q-4 -41 33 -47q40 -7 49 31q23 104 29 127q9 33 47 33q90 0 200 74q14 11 18 27t-5 30q-9 13 -27 16.5t-31 -4.5q-62 -42 -118 -57q-26 -5 -36.5 3.5t-0.5 41.5l59 205l31 98q11 37 26 82l19 49 q2 -29 2 -51q2 -17 14 -27.5t31 -9.5q17 2 27.5 14t9.5 31q0 16 -2 43q0 65 -27 115q-18 27 -10 53l27 100q5 17 -3.5 31.5t-25.5 18.5t-30.5 -4t-18.5 -25l-19 -64q-5 -17 -11.5 -23.5t-15.5 -6t-22 1.5q-25 3 -59 -4q-61 -10 -117.5 -49t-87.5 -91q-65 -109 -68 -241z M55 326q5 116 58 202q24 40 63 64q53 36 105 39q30 1 35 -13t-5 -34l-84 -273q-52 -167 -59 -196q-8 -34 -22 -37.5t-25 16.5q-11 11 -27 39q-44 77 -39 193z" />
<glyph unicode="&#xa3;" horiz-adv-x="819" d="M-80 498q5 -17 19.5 -25t31.5 -2q64 19 179 35q40 3 43 -12q4 -12 4 -19q30 -153 -78 -303l-39 -53q-15 -21 -31 -37l-10 -10q-43 -43 -43 -72q0 -26 21 -39.5t46 2.5q1 1 7 5.5t8 8.5q5 6 9 12l6 9t3 4q2 2 2 4q4 5 29 35q6 6 25 18q92 55 165 13q3 -1 9.5 -4.5 t20.5 -11t26 -13.5q100 -55 174 -63h14h43q3 1 9.5 2t9.5 2q6 2 14 3.5t12.5 2.5t7.5 2t14.5 3.5t18.5 4.5l29 10q15 3 26 21q9 15 4 30.5t-20 24.5q-7 4 -15 5t-12.5 0t-17 -5t-18.5 -6q-8 -3 -18 -6t-11 -4q-51 -10 -55 -9h-27q-60 7 -139 52l-64 32q-49 22 -90 25 q-22 3 -27.5 13t3.5 30q68 136 41 279q-5 14 4.5 22.5t31.5 9.5q50 4 109 13q17 1 27 15t8 32q-1 17 -15 26.5t-32 7.5q-5 -1 -144 -16q-33 -3 -47 16q-2 3 -7 9.5t-7 9.5q-30 35 -60 63q-19 16 -26 27q-49 49 -62 90q-19 45 0.5 130t63.5 140q37 47 74 65.5t69 11t60 -37.5 q45 -45 64 -127.5t1 -162.5q-2 -18 7 -31.5t26 -16.5t31 5.5t18 25.5q20 99 -4 203q-26 105 -91 168.5t-149 56.5q-88 -7 -157.5 -91.5t-96.5 -205.5q-19 -91 3.5 -154.5t84.5 -125.5l37 -39q17 -19 12 -33.5t-30 -17.5q-70 -11 -135 -31q-17 -5 -25 -19.5t-2 -31.5z" />
<glyph unicode="&#xa4;" horiz-adv-x="604" d="M-15.5 521.5q3.5 -55.5 33.5 -97.5q21 -30 5 -57q-12 -18 -27 -39q-8 -13 -4.5 -30t16.5 -26q14 -9 30.5 -6t27.5 17q8 14 26 41q17 28 53 16q6 -1 18.5 -4t18.5 -4q71 -13 125 4q36 9 43 -2q4 -4 7 -8l3 -4l43 -43q13 -13 29 -13q17 0 29 12t12 29t-12 29l-37 37 q-10 35 0 55q58 94 39 213q-3 34 14 53l4 4l37 29q14 11 16 28t-8 31q-11 12 -28 14.5t-29 -7.5q-38 -25 -43 -35q-1 -1 -3 -2t-3 -2q-6 -6 -35 18q-72 50 -156 41q-34 -3 -69 -18q-32 -16 -56 8l-45 45q-13 10 -28 10q-18 0 -29.5 -11.5t-11.5 -29.5q0 -19 12 -31l35 -32 q26 -26 4 -58q-27 -39 -39 -71q-21 -48 -17.5 -103.5zM68 555q8 63 59 117.5t111 60.5q34 0 84 -18l24 -19l14 -14q8 -8 11 -18q0 -3 4 -7q2 -2 2 -8q15 -53 4 -114q-14 -70 -60.5 -104t-121.5 -17q-145 26 -131 141z" />
<glyph unicode="&#xa5;" horiz-adv-x="593" d="M-41 735q0 18 11 30.5t28 12.5q33 2 108 2q25 0 33 13.5t-4 35.5q-132 230 -168 359q-4 17 4 30.5t25 18.5q17 4 30.5 -4t18.5 -25q20 -68 84.5 -196t126.5 -224q3 6 7.5 15.5t10.5 21.5t9 17q54 130 82 188q48 94 77 174q6 17 20.5 25t31.5 2q39 -14 26 -51 q-18 -57 -82 -187q-53 -105 -78 -176l2 4q-6 -22 2.5 -34.5t30.5 -12.5h58q17 0 29 -12t12 -29t-12 -29t-29 -12h-84q-39 3 -45 -35q-6 -28 -9 -53q-3 -42 39 -45q23 0 59.5 -1t49.5 -1q17 0 29 -12t12 -29t-12 -29t-29 -12q-12 0 -50.5 1t-64.5 1q-40 3 -43 -39 q0 -128 12 -413q0 -18 -10.5 -30.5t-27.5 -12.5q-18 0 -30.5 10.5t-12.5 27.5q-13 317 -13 422q3 40 -39 43q-92 3 -168 -4q-17 -2 -30.5 9t-14.5 28q-2 17 9 30.5t28 14.5q79 7 168 4q51 0 57 39l9 60q0 11 -3.5 18t-11 9.5t-12.5 3t-16 0t-13 -0.5q-111 3 -184 0 q-18 0 -30.5 11t-12.5 28z" />
<glyph unicode="&#xa6;" horiz-adv-x="217" d="M25 45q0 -17 12 -29t29 -12t28.5 12t11.5 29q0 7 11 258q8 144 4 262q0 17 -12.5 28t-30.5 11q-17 0 -28 -12.5t-11 -30.5q4 -114 -4 -254q-10 -225 -10 -262zM47 776q0 -17 12 -29t29 -12t29 12t12 29q0 50 16 400q0 18 -11 30.5t-28 12.5q-18 0 -30.5 -11t-12.5 -28 q-16 -350 -16 -404z" />
<glyph unicode="&#xa7;" horiz-adv-x="565" d="M-55 150q21 -107 98 -160q79 -51 167.5 -50.5t158.5 44.5q48 30 71 80t10.5 109.5t-63.5 107.5q-31 27 -4 57q75 75 100 139q15 34 12.5 65t-12.5 55.5t-35 48.5t-54.5 43.5t-71.5 41.5q-29 16 -82 41q-43 20 -95 47q-28 14 -36 17l-35 14q-27 14 -39 33q-4 8 -0.5 41.5 t10.5 58.5q29 95 90.5 138.5t126.5 29.5t100.5 -80t18.5 -162q-3 -38 35 -45q37 -6 47 33q20 127 -31.5 218.5t-150.5 115.5t-187.5 -37t-126.5 -186q-12 -39 -14 -74q-6 -61 12 -95t74 -63q18 -9 39 -16l8 -3q9 -11 -25 -42q-35 -32 -51 -58t-24 -61q-8 -33 -9 -62.5 t4.5 -53t19 -45t30 -38.5t41.5 -34t50.5 -30.5t59.5 -29.5q62 -28 86 -40t54 -34q30 -24 40.5 -50t8.5 -64q-2 -36 -48.5 -65t-111.5 -30q-71 -2 -121.5 36t-62.5 110q-10 39 -47 33q-38 -6 -35 -49zM57 523.5q-4 39.5 23.5 85t87.5 77.5q25 15 55 2l60 -29q91 -48 112 -75 q26 -34 11 -78q-18 -52 -103 -131q-26 -26 -55 -10q-15 6 -31 14q-102 45 -129 76q-27 29 -31 68.5z" />
<glyph unicode="&#xa8;" horiz-adv-x="444" d="M-12 1151q-10 -27 2 -48.5t35 -29.5q35 -12 57 3t29 44q2 11 6.5 27t5.5 20q3 13 -2 23q-6 20 -25 24q-28 9 -51 -2q-2 0 -6 -4q-17 -11 -37 -34q-7 -10 -14 -23zM250 1171.5q-4 -20.5 10 -38.5q1 -1 4.5 -4t5.5 -5q19 -19 21 -22q12 -12 31 -12q31 0 40 28q8 42 11 49 q2 9 -2 25q-6 14 -22 22.5t-32 2.5q-2 -1 -6.5 -3t-9.5 -3.5t-10 -2.5q-13 -4 -15 -6q-22 -10 -26 -30.5z" />
<glyph unicode="&#xa9;" horiz-adv-x="722" d="M-12 866q-47 -263 39 -549q21 -78 79 -159q62 -92 140 -143t153 -33q171 38 230 413q25 174 24.5 320t-20.5 243l-15 62q-20 40 -87 90.5t-151.5 83t-141.5 20.5q-96 -19 -159.5 -109t-90.5 -239zM70 850q23 130 71 201.5t113 83.5q60 12 133 -24t148 -120q19 -19 22 -47 q28 -161 5 -409.5t-85 -374.5q-40 -83 -90.5 -97.5t-105.5 29.5q-56 37 -106 109.5t-71 140.5q-80 266 -34 508zM120 624q0 -73 14 -144t50.5 -125.5t91.5 -69.5q49 -15 76.5 -3.5t50.5 60.5q19 48 27 94l8 37q5 17 -3 31t-25 18q-17 5 -31.5 -3t-18.5 -25q-2 -6 -14 -58 q-4 -13 -8 -39q-8 -21 -14 -30q-1 -2 -2.5 -5.5t-2.5 -5.5q-12 4 -22 6q-65 18 -86 154q-18 119 7 236.5t71 160.5q19 16 33 13.5t32 -23.5q42 -48 45 -104q0 -17 12.5 -28t30.5 -11q17 0 28 12.5t11 30.5q-2 37 -19.5 79.5t-45.5 73.5q-37 45 -84 52t-96 -33 q-68 -59 -103 -217q-13 -61 -13 -134z" />
<glyph unicode="&#xaa;" horiz-adv-x="557" d="M-29 1018q14 70 41 112.5t82 73.5q69 38 122.5 31.5t82.5 -57.5q32 -63 41 -213q10 -159 22 -193q8 -24 20.5 -27.5t43.5 9.5q17 7 33 1.5t24 -20.5q6 -15 0 -32t-20 -23q-67 -31 -113 -10q-26 13 -35 22q-9 -2 -34 -14q-141 -71 -215 -39t-52 145q18 81 74.5 158 t124.5 109q37 16 29 49q-5 21 -15 37q-9 15 -22 18q-25 4 -66.5 -19t-58.5 -51q-19 -34 -27 -84q-10 -37 -49 -30q-17 3 -26 16t-7 31zM96 770q-9 -51 8 -57q46 -16 166 53q2 2 4 2q0 12 -4 35q-9 56 -12 158q0 1 -1 4t-1 4q-1 2 -6.5 2t-17 -5.5t-23.5 -13.5 q-40 -33 -72 -82.5t-41 -99.5z" />
<glyph unicode="&#xab;" horiz-adv-x="620" d="M53 571q-47 89 17 119q25 9 43 25q42 35 47 39q36 33 78 59q13 8 30.5 3.5t24.5 -17.5q8 -13 3.5 -31t-17.5 -25q-18 -10 -66 -51q-15 -14 -30 -26t-27 -21t-15 -12q-2 -1 -5 -3t-5 -3q-3 -2 -4 -7t-1 -10l1 -4q8 -17 37 -63q47 -67 84 -109q10 -13 10 -28 q0 -17 -12.5 -28t-30.5 -11t-29 14q-44 49 -81.5 103t-51.5 87zM239.5 604q2.5 23 18.5 47q15 21 86 68q84 52 137 100q12 12 30 10t30 -14q10 -12 8 -29t-14 -28q-57 -51 -146 -109q-37 -25 -45 -31q-22 -14 -16 -43l2 -2q14 -27 92 -135q10 -14 8 -30t-16 -27 q-14 -10 -30.5 -8t-27.5 16q-44 59 -66.5 92.5t-37.5 66.5t-12.5 56z" />
<glyph unicode="&#xac;" horiz-adv-x="765" d="M-29 627q1 -17 14.5 -28t30.5 -9q11 1 125 10.5t195 15.5q53 3 117 8.5t77 6.5q54 4 64 4q18 0 18 -35q0 -6 -1 -18t-1 -19l-6 -47q-3 -32 -6 -43q-2 -17 9 -30.5t28 -14.5q17 -2 30.5 9t14.5 28q0 2 5.5 38t6.5 50q6 70 -5 107t-50 53q-12 4 -16 4h-29q-10 0 -68 -4 q-5 0 -214 -16.5t-302 -24.5q-17 -1 -28 -14.5t-9 -30.5z" />
<glyph unicode="&#xad;" horiz-adv-x="655" d="M-6 537q1 -17 15 -27t32 -8q129 19 342 10q144 -4 160 -4q17 0 29 12t12 29t-12 29t-29 12q-8 0 -156 4q-216 9 -358 -10q-17 -1 -27 -15t-8 -32z" />
<glyph unicode="&#xae;" horiz-adv-x="735" d="M-37 634.5q3 160.5 64 289.5q26 57 49.5 100.5t52.5 83.5t60.5 65t68.5 40.5t80.5 14t93.5 -19.5q48 -18 101 -60.5t65 -66.5q3 -5 35 -77q18 -43 25 -156.5t-3 -233.5q-29 -306 -106 -495q-33 -81 -74 -118.5t-88.5 -36.5t-105.5 26q-62 25 -113 76q-100 104 -154 256 t-51 312.5zM56 487q36 -228 169 -364q37 -37 92 -60.5t86 -13.5q31 8 70 101q71 175 100 471q2 18 6.5 58t6.5 59t3.5 55t-1 57.5t-8 53.5t-16.5 55.5t-28.5 51t-41.5 52.5l-8 9q-9 9 -16 16.5t-17 16t-17 11.5q-11 7 -33 14q-34 12 -63.5 13t-56 -10t-49.5 -30.5t-46 -52 t-43.5 -70.5t-44.5 -89q-80 -176 -44 -404zM128.5 811.5q-3.5 17.5 4.5 30.5q26 41 77 73t105 43q69 13 118 -20.5t59 -108.5q7 -53 -28 -100t-91 -78l6 4q-15 -7 -21 -16.5t0 -15.5l25 -45q24 -42 38.5 -57t49.5 -32q14 -8 19.5 -23t-1.5 -30q-8 -15 -23 -21t-32 1 q-47 23 -71 47t-50 74q-4 8 -13.5 23.5t-12.5 21.5q-14 18 -33 22q-2 0 -5.5 1t-4.5 1q-3 1 -5.5 -4t-4 -15.5t-1.5 -25.5q3 -77 15 -127q4 -41 -31 -47q-42 -7 -51 31q-17 79 -14 194q2 105 -2 170q-2 2 -5 2q-13 10 -16.5 27.5zM227 813q0 -1 1 -4t1 -4q7 -54 7 -107 q6 0 10 2q16 0 18 2q70 10 121 64q28 30 25.5 60.5t-27.5 43.5q-18 12 -53 9q-39 -5 -80 -35q-26 -21 -23 -31z" />
<glyph unicode="&#xaf;" horiz-adv-x="438" d="M-43 1176q0 -17 12 -29t29 -12q158 0 326 -7q18 0 30.5 11t12.5 28q0 18 -11 30.5t-28 12.5q-175 7 -330 7q-17 0 -29 -12t-12 -29z" />
<glyph unicode="&#xb0;" horiz-adv-x="477" d="M-4 1016q0 -59 6 -82.5t37 -65.5q54 -76 139.5 -95.5t145.5 24.5q63 39 80 105.5t-19 146.5q-7 14 -18 47q-16 39 -45 73q-69 79 -164 91q-39 5 -76.5 -13t-61.5 -57q-19 -24 -22 -74q-4 -52 -2 -74v-26zM78 970v11.5v15.5v19v63q0 15 2 25q0 28 10 45q21 29 55.5 28 t73.5 -27.5t60 -64.5q7 -14 12 -34q0 -5 4 -13q69 -119 -14 -172q-31 -27 -85.5 -13.5t-91.5 65.5q-6 8 -10 13.5t-7 10.5t-4.5 10t-3 8t-1.5 10z" />
<glyph unicode="&#xb1;" horiz-adv-x="473" d="M-61 651q7 -38 45 -35q80 10 106 11q39 0 45 -37q5 -29 29 -121q5 -17 19.5 -25t31.5 -2q17 5 25 20t2 32q-18 66 -21 88q-4 22 6.5 33.5t32.5 9.5q26 0 57 -1t35 -1q17 0 29 12t12 29t-12 29t-29 12q-2 0 -14.5 0.5t-38.5 1.5t-55 2q-43 0 -43 39q-4 74 -4 120 q0 17 -12 29t-29 12t-29 -12t-12 -29q0 -44 4 -118q0 -41 -41 -41q-28 -1 -107 -11q-38 -10 -32 -47zM-59 -20q-2 -18 8.5 -31.5t27.5 -14.5q62 -4 101 -4q67 0 94 2q18 0 193 9q17 0 27.5 12.5t10.5 30.5q0 17 -12.5 28t-30.5 11q-4 0 -18.5 -1t-46 -2.5t-62.5 -3.5 q-116 -6 -124 -4q-3 0 -17.5 0.5t-44 1.5t-61.5 2q-17 2 -30.5 -8.5t-14.5 -27.5z" />
<glyph unicode="&#xb2;" horiz-adv-x="438" d="M-41 1075q14 45 48.5 86t74.5 58q55 25 99 -2.5t61 -100.5q10 -43 -13.5 -98t-74.5 -133l-56 -78q7 -23 35 -23h33q16 0 94 4q56 3 66 3q17 0 29 -12t12 -29t-12 -29t-29 -12q-29 0 -66 -2q-15 -1 -34.5 -2t-33.5 -2t-24 -1q-37 0 -94 5q-23 4 -33.5 6.5t-24 10.5 t-20.5 21q-10 16 -4 37q3 9 6 21l22 35l64 92q87 129 76 170q-1 7 -4.5 16.5t-3.5 11.5q-3 7 -12 11.5t-17 4.5l-8 1q-23 -10 -45 -37t-33 -57q-5 -17 -19.5 -25t-31.5 -2q-17 5 -25 19.5t-2 31.5z" />
<glyph unicode="&#xb3;" horiz-adv-x="370" d="M-47 1106q-4 -17 4 -30.5t25 -18.5t31 3t18 25q7 29 29 53.5t46 32.5q1 0 3.5 1.5t3.5 1.5q21 8 39 -17q8 -15 10 -27q18 -71 -76 -137q-24 -16 -51 -16q15 0 14 -4q-1 0 -4 -1t-4 -1q-41 -14 -41 -47q0 -19 14 -33q26 -26 68 -10q20 10 43 10q32 0 47 -6 q40 -20 46.5 -40t-13.5 -44q-24 -30 -66 -52t-86 -26q-17 -2 -27.5 -14t-9.5 -29q2 -19 14 -29.5t31 -9.5q60 4 118.5 35.5t90.5 75.5q43 55 27 112.5t-88 93.5q-10 21 6 48q46 66 25 145q-18 67 -62.5 93t-99.5 5q-43 -17 -78 -56.5t-47 -86.5z" />
<glyph unicode="&#xb4;" horiz-adv-x="327" d="M16 1016q0 -17 12 -29t29 -12t29 12l160 160q12 12 12 29t-12 29t-29 12q-16 0 -29 -13l-159 -160q-13 -13 -13 -28z" />
<glyph unicode="&#xb5;" horiz-adv-x="626" d="M-154 -272q-6 -17 1 -32.5t24 -21.5t32 1t21 24q43 117 96 293q12 41 54 22q103 -41 186 -2q28 11 55 35q37 34 45 0q2 -12 11 -39q6 -17 21 -23.5t32 -0.5t24 21t1 32q-10 24 -13 43q-8 41 -8 86q-1 9 -2 26t-2 25v2q2 7 10 25q36 106 60 209q50 189 59 213q6 17 -1 32 t-24 21t-32 -1t-21 -24q-18 -51 -59 -221q-39 -159 -78 -244q-45 -105 -102.5 -137.5t-147.5 4.5q-32 17 -22 54l8 24q91 314 147 469q6 17 -0.5 32t-23.5 21q-18 6 -33 -0.5t-21 -23.5q-50 -142 -149 -475q-104 -351 -148 -469z" />
<glyph unicode="&#xb6;" horiz-adv-x="864" d="M4 776q29 -89 109 -135.5t157 -38.5q43 6 43 -33v-635q0 -17 12 -28.5t29 -11.5t29 11.5t12 28.5v240q-2 117 -2 266q0 162 15 488q3 41 0 137v68q0 37 38 43q4 0 11.5 1t11.5 1q40 0 43 -39q5 -84 5 -111t-5 -133q-4 -44 -7 -95.5t-3 -54.5q-4 -168 -4 -393 q-3 -270 -9 -407q0 -18 11 -30.5t28 -12.5q18 0 30.5 11t12.5 28q6 137 9 407q0 225 4 393q1 7 4 54.5t6 89.5q8 120 0 252q-1 22 10 33.5t31 9.5q25 -1 110 -11q18 -2 32.5 8t15.5 27q2 18 -8 32t-27 15q-263 38 -475 -24q-23 -11 -41 -19q-65 -24 -121 -80 q-73 -70 -109.5 -165t-7.5 -187z" />
<glyph unicode="&#xb7;" horiz-adv-x="243" d="M10 559q5 -34 35 -48t74 3q20 8 28 14q21 14 26 37t-13 41q-18 13 -33 41q-13 19 -33 19q-16 0 -31 -11l-4 -4l-10 -8q-42 -31 -39 -84z" />
<glyph unicode="&#xb8;" horiz-adv-x="428" d="M-6 -137q-4 -22 12 -35.5t31 -11.5h12q15 0 25 2q101 14 141 14h18q32 -4 41 -20q2 -7 -6 -21q-20 -33 -67 -57q-5 -4 -23 -10.5t-20 -6.5q-14 -8 -21 -23.5t0 -29.5q6 -15 21 -22.5t32 -1.5q2 2 13 6q8 3 8 4l27 10q66 37 100 88q27 37 17 80t-58 68q-35 18 -100 18 q-58 0 -47 14q6 6 11 12l5 5q10 14 8 30.5t-14 28.5q-14 10 -31 8t-29 -14q0 -4 -8 -12l-22 -23q-12 -15 -21 -24q-9 -12 -16 -19q-24 -28 -27 -33q-4 -4 -8 -12z" />
<glyph unicode="&#xb9;" horiz-adv-x="403" d="M-6 713q-2 -17 9 -30.5t28 -14.5q62 -4 260 -4q17 0 29 12t12 29t-12 28.5t-29 11.5h-60q-41 0 -41 41v-28q-6 60 7 192q14 132 10 205v27q-3 50 -47 53h-4q-12 2 -31 -10l-4 -8q-3 -1 -12 -15l-31 -39q-25 -33 -47 -69q-8 -13 -3.5 -31t17.5 -25q13 -8 30.5 -3t24.5 18 q3 0 6.5 -1t9.5 -8.5t5 -19.5q-4 -36 -6 -66q-12 -135 -6 -208q0 -5 -35 -2q-23 0 -35 2q-17 2 -30.5 -9t-14.5 -28z" />
<glyph unicode="&#xba;" horiz-adv-x="524" d="M-33 897q-3 -71 36.5 -137t109.5 -94q116 -49 206.5 8.5t122.5 179.5q24 65 11.5 148.5t-58.5 136.5q-7 8 -26 41q-5 8 -17 14q-122 58 -227 0q-81 -42 -117.5 -126t-40.5 -171zM55 846q-20 77 12.5 158.5t96.5 117.5q29 16 53 19q21 2 39 -11q8 -4 12 -4q66 -18 94 -90 q26 -74 2 -161t-81 -125q-60 -42 -134 -11.5t-94 107.5z" />
<glyph unicode="&#xbb;" horiz-adv-x="737" d="M45 376.5q2 -17.5 14 -28.5q12 -12 29.5 -10t28.5 14q47 52 108 111q67 67 84 102q18 32 11.5 65.5t-37.5 57.5q-48 40 -183 64q-41 3 -47 -33q-6 -39 31 -49q116 -21 149 -47q12 -9 3 -21q-12 -24 -68 -80q-91 -88 -113 -116q-12 -12 -10 -29.5zM264 762.5 q-4 -18.5 4 -31.5q3 -5 6 -8.5t9 -5.5t9.5 -3t14.5 -2.5t17 -2.5l65 -15q84 -17 170 -41q24 -6 21 -20q-1 -2 -4.5 -7.5t-4.5 -7.5q-19 -36 -67 -100q-21 -26 -57.5 -68t-63.5 -72t-31 -34q-12 -14 -10 -30t16 -27q12 -12 28.5 -10t27.5 14q5 5 63 69q123 140 168 220 q35 79 10 116q-9 13 -37 25q-15 6 -36 12q-88 24 -174 41l-64 12q-7 2 -15 3.5t-11.5 2.5t-4.5 1q-19 3 -32 -5q-13 -7 -17 -25.5z" />
<glyph unicode="&#xbc;" horiz-adv-x="710" d="M-13.5 20.5q-5.5 16.5 1.5 30.5l391 762q28 54 53 109q74 161 133 237q11 14 28.5 16t31.5 -8q12 -11 14 -28t-8 -29q-59 -75 -125 -221q-8 -18 -19.5 -43t-19.5 -41.5t-14 -28.5l-392 -762q-8 -14 -24.5 -19.5t-30.5 1.5q-14 8 -19.5 24.5zM47 990q-2 16 8 28l66 82 q19 23 45 14q2 2 8 2q19 1 31 -9.5t14 -27.5v17l19 -203q0 -42 43 -39h8q18 0 30.5 -11t12.5 -28q0 -18 -11 -30.5t-28 -12.5q-62 -5 -92 -10q-23 -4 -43.5 -6.5t-36.5 -5t-19 -2.5q-17 -2 -30.5 8.5t-14.5 27.5q-2 17 9 30.5t28 14.5q21 3 64 9q-2 2 -2 6q-4 37 -9 78 q-3 49 -18 51q-4 1 -8 -4q-12 -14 -29 -16t-29 10q-14 11 -16 27zM260 303q2 4 10 16q12 16 25 29q26 28 149 133q8 7 18.5 21.5t18.5 21.5q12 8 23 8h6q23 0 31 -4q15 -4 23 -17.5t3 -27.5q-1 -6 -8 -23.5t-6 -29.5v-59q-1 -14 6 -25.5t14 -16.5l7 -5q17 2 30.5 -9 t14.5 -28q2 -17 -9 -30.5t-28 -14.5q-6 -2 -23 -2q-25 -3 -28 -41q-5 -102 -5 -103q0 -17 -11.5 -29t-28.5 -12t-29 12t-12 29q0 20 4 94q3 43 -23 43q-58 -3 -92 0q-5 1 -12.5 2t-13 1.5t-9.5 1.5l-16 4q-19 6 -27.5 22.5t-1.5 38.5zM424 358q-31 -43 6 -43h16q18 0 21 41 q1 9 -4.5 12.5t-16 1t-22.5 -11.5z" />
<glyph unicode="&#xbd;" horiz-adv-x="792" d="M-12.5 10.5q5.5 -17.5 20.5 -24.5q15 -8 31.5 -3.5t23.5 21.5q18 34 82 133q23 36 36 56.5t27.5 48t19.5 37.5t26.5 57t34.5 74l63 139l60 119q54 109 69 135l66 115q54 88 82 126l84 107q12 14 10 30.5t-14 28.5q-14 10 -30.5 8t-27.5 -14q-97 -114 -172 -243l-69 -117 q-24 -41 -72 -139l-59 -123l-66 -140q-40 -85 -57 -127q-17 -37 -78 -133q-72 -105 -88 -141q-8 -13 -2.5 -30.5zM103 1083q-3 -17 6 -30t25.5 -17t29.5 4q1 1 2.5 -3t2.5 -12t1 -17q0 -5 1 -17t1 -18q0 -14 1 -34.5t1 -27.5q3 -45 -10 -45q-8 0 -12 2q-17 2 -31 -9t-15 -28 q-2 -17 9 -30.5t28 -14.5q62 -4 166 -4q17 0 29 12t12 29t-12 29t-29 12h-24q-26 0 -29 39q0 7 -1 32t-1 42q-3 64 -10 121q-4 19 -13 24q-20 20 -49 23q-8 0 -24 -8l-39 -27q-13 -10 -16 -27zM303 124q-6 -17 8 -42q14 -23 68 -27q39 -2 153 2q31 2 54 2q17 0 29 12t12 29 t-12 29t-29 12q-23 0 -54 -2t-75 -2q-5 0 10 15q4 6 14 16q25 32 45 66.5t36 74.5t15 79t-22 67q-35 48 -84 39q-34 -6 -62.5 -36t-70.5 -104q-8 -13 -3.5 -30.5t17.5 -24.5q13 -8 31 -3.5t25 17.5q33 62 55 84l24 13q0 -1 1 -2t1 -2q16 -22 -10 -84q-52 -117 -127 -158 l-12 -6q-9 -3 -14 -8q-17 -9 -23 -26z" />
<glyph unicode="&#xbe;" horiz-adv-x="745" d="M-41 12q46 124 117 259t190 333q93 155 148 256l65 107q53 86 78 134t37 97q5 17 18.5 25t30.5 4q17 -5 25 -18.5t4 -30.5q-12 -55 -41.5 -113.5t-81.5 -142.5q-39 -62 -62 -103l-151 -258q-120 -200 -189 -330t-110 -247q-6 -17 -21 -24t-32 -1t-24 21t-1 32zM21.5 819 q5.5 17 19.5 25q14 7 30.5 1t24.5 -20q14 -29 31.5 -33.5t29 7t17.5 28.5q9 21 0 47q-5 15 -6 17q-4 -2 -10 -2q-17 0 -31 12q-17 12 -18 34.5t14 37.5q9 9 22 14q5 0 9 4q28 36 28 64q0 14 -2 18q-4 4 -4 6q-17 6 -29 -14q-8 -11 -8 -37q0 -17 -12 -29t-29 -12t-29 12 t-12 29q0 53 28 89t71 42q45 8 77 -23t31 -81q-3 -41 -20 -76q-12 -23 0 -57q4 -5 8 -23q17 -53 -1 -100.5t-61 -73.5q-42 -26 -90 -8.5t-77 71.5q-7 14 -1.5 31zM227 258q5 21 35 51q114 103 191 156q13 8 30.5 4.5t26.5 -16.5q9 -15 6 -31q-3 -12 -3 -14.5t9 0.5 q-25 -14 -22 -50q2 -12 2 -39q1 -12 6.5 -22t10.5 -14l5 -4q18 0 30.5 -11t12.5 -28q0 -18 -11 -30.5t-28 -12.5h-6q-27 -9 -30 -41v-2q-1 -13 -2 -31t-2 -29.5t-1 -19.5q0 -17 -12 -29t-29 -12t-28.5 12t-11.5 29q0 16 4 86q3 21 -43 18h-11q-73 -4 -106.5 17t-22.5 63z M352 260q21 0 33 2q37 3 37 39q0 15 -24 7l-23 -7q-10 -9 -16 -19t-7 -16v-6z" />
<glyph unicode="&#xbf;" horiz-adv-x="473" d="M-4 -59q5 -73 42 -140t93 -102q59 -45 133.5 -28t128.5 93q10 14 7 32.5t-15 27.5q-14 9 -31.5 5.5t-25.5 -15.5q-71 -100 -154 -47q-40 27 -67.5 76.5t-28.5 101.5q-9 198 61 225q7 2 70 12q62 9 88 45q10 16 14 84q0 174 -12 318q-1 17 -14.5 28t-30.5 9 q-17 -1 -28 -14.5t-9 -30.5q12 -135 12 -308q0 -8 -2 -12l-2 -27v-4q-6 -3 -26 -6q-68 -9 -90 -18q-125 -49 -113 -305zM180.5 909.5q-8.5 -29.5 7 -54t50.5 -26.5q43 -7 96 41q25 25 18 52q-2 7 -5.5 12t-9 8.5t-9 5t-11 3.5t-10.5 3q-25 7 -33 7q-46 2 -59 -7 q-26 -15 -34.5 -44.5z" />
<glyph unicode="&#xc0;" horiz-adv-x="542" d="M-4 41q-2 -17 9 -30.5t28 -14.5q17 -2 30.5 9t14.5 28q2 27 31 307q25 242 28 278q6 35 35 44q66 19 125 26q45 7 45 -37q3 -54 6 -174q9 -296 41 -465q10 -37 49 -30q17 3 26 16t7 31q-32 143 -41 450q-9 312 -29 465q-15 107 -30 172q-31 137 -99 168 q-59 23 -100.5 -9.5t-62.5 -100.5q-26 -73 -29 -179q-7 -227 -51 -655zM142.5 1479q2.5 -16 15.5 -27q24 -15 61 -49q37 -33 66 -53q12 -10 29 -8t28 16q10 12 8 29t-16 28q-42 34 -62 51l-65 52q-14 10 -30 7t-27 -16q-10 -14 -7.5 -30zM152 788q8 137 10 207q3 85 24 152 q12 40 29 57q25 22 49 -26q15 -30 27 -82q28 -125 41 -281q6 -38 -43 -47q-37 -4 -94 -16q-46 -10 -43 36z" />
<glyph unicode="&#xc1;" horiz-adv-x="620" d="M6 41q2 23 29 242q23 187 28 258q5 55 7 116q1 21 3.5 69.5t3.5 67t4.5 51.5t8.5 66q10 57 19.5 93t36.5 89.5t69 102.5q30 35 62.5 54t68.5 15t64 -38q32 -40 45 -207q9 -100 22 -348q14 -268 29 -409t39 -195q7 -17 0.5 -32.5t-21.5 -21.5q-14 -7 -30.5 0t-22.5 21 q-29 63 -45 210t-29 414q-23 12 -41 9q-35 -2 -125 -21q-9 -1 -24.5 -4t-18.5 -4q-35 -6 -38 -43q0 -5 -2 -27.5t-3 -31.5q-5 -74 -28 -261q-27 -217 -29 -243q-1 -17 -14.5 -28t-30.5 -9q-17 1 -28 14.5t-9 30.5zM158 764q-3 -46 26 -43q4 1 27 6q73 15 119 21q5 0 15 1 t15 1q32 3 29 43q-13 203 -14 219q-10 84 -17 116l-4 19q-2 8 -9 16.5t-13 13.5l-6 5q-25 -7 -50 -39q-55 -63 -77 -131q-28 -86 -41 -248zM172 1354q0 17 12 26q92 88 154 133q13 8 30.5 4.5t26.5 -16.5q9 -14 5.5 -30t-17.5 -27q-57 -40 -141 -121q-12 -12 -29 -12 q-19 0 -30 12t-11 31z" />
<glyph unicode="&#xc2;" horiz-adv-x="630" d="M-6 33q3 89 24 227l29 221q5 46 19 260q12 183 36 291.5t80 175.5q46 62 105 55t112 -87q50 -79 62 -196t10 -386q-2 -230 13.5 -352t66.5 -185q10 -12 8 -29t-14 -28q-14 -10 -31.5 -8t-28.5 16q-62 81 -79 204.5t-17 383.5v4q0 42 -43 39q-31 -4 -62.5 -8t-63.5 -8.5 t-46 -6.5q-34 -6 -37 -43q-4 -72 -39 -325q-19 -141 -22 -219q0 -17 -12.5 -28t-30.5 -11q-17 0 -28 12.5t-11 30.5zM104 1354q29 87 48.5 125.5t48.5 54.5q44 22 81.5 -10.5t79.5 -112.5q8 -13 3.5 -30.5t-17.5 -24.5q-13 -8 -30.5 -3.5t-24.5 17.5q-8 16 -37 57 q-8 4 -17.5 4.5t-14.5 -0.5l-5 -1q-11 -25 -37 -101q-14 -39 -51 -26q-18 6 -25.5 20t-1.5 31zM147 737q-3 -41 43 -35q116 17 160 21q39 3 39 43q0 129 -11.5 219.5t-47.5 144.5q-30 47 -51 50q-14 3 -33 -23q-45 -54 -66.5 -152t-32.5 -268z" />
<glyph unicode="&#xc3;" horiz-adv-x="632" d="M-20 12q-3 -41 34 -47t47 31q27 153 50 473q9 102 10 125q3 39 43 39q82 4 117 10q44 9 47 -33q6 -80 12 -147q22 -200 59 -324t99 -164q13 -8 30.5 -4t26.5 17q9 14 5.5 30t-17.5 27q-37 22 -72 143q-29 116 -49 283q-17 148 -29 401q-8 120 -8 121q0 24 -6 105 q-9 78 -39 121q-25 35 -57.5 42t-63.5 -18q-64 -48 -125 -295q-44 -173 -65 -473q-24 -330 -49 -463zM20.5 1262q5.5 -15 22.5 -21q17 -8 32 -2t21 23q29 65 52 74.5t65 -13.5q47 -19 86 -20.5t77 29.5t73 98q7 14 1 30.5t-20 24.5q-14 7 -30.5 1t-24.5 -20q-33 -68 -61 -79 t-70 12q-47 19 -85 21t-73 -28.5t-63 -97.5q-8 -17 -2.5 -32zM141 760q30 215 88 352q2 5 13 27q5 12 12.5 21t12 12t5.5 2q2 -3 2 -5q17 -24 23 -79q6 -75 6 -105q2 -33 12 -213q3 -37 -26 -43q-46 -9 -109 -12q-45 -3 -39 43z" />
<glyph unicode="&#xc4;" horiz-adv-x="552" d="M-23 14q-2 -18 8.5 -31t28.5 -14q18 -2 31 8.5t14 28.5q15 137 29 465q1 19 2 55.5t2 53.5q3 38 43 38h172q42 0 39 -43q0 -60 -4 -110q-6 -303 61 -465q6 -14 22.5 -20.5t31.5 0.5q15 6 21 21t-1 32q-59 145 -53 430q0 6 8 160q4 141 3.5 158t-5.5 149q0 17 -6 65 q-2 37 -10 90q-25 127 -90 156q-33 17 -62 13t-52.5 -15t-44.5 -38t-36.5 -54.5t-29 -65t-23 -70t-17.5 -69.5q-37 -159 -53 -467q-14 -332 -29 -461zM106 743q11 91 31 179q29 120 69.5 191.5t84.5 53.5q13 -6 22 -28q21 -43 31 -150q0 -23 2 -37t2 -30q7 -57 4 -181 q0 -41 -41 -41h-166q-42 0 -39 43zM164 1438q0 -17 12 -29t29 -12t29 12t12 29q0 15 -13 28t-28 13q-17 0 -29 -12t-12 -29zM309 1448q0 -17 12 -29t29 -12t29 12t12 29t-12 29t-29 12t-29 -12t-12 -29z" />
<glyph unicode="&#xc5;" horiz-adv-x="598" d="M-14 66q-6 -18 0.5 -33t23.5 -21t32 1t21 24q29 74 41 233q6 80 9 95l26 235q3 34 37 43q65 15 154 23q45 6 45 -27v-35q-2 -43 -2 -96q3 -302 76 -473q6 -14 22.5 -21t30.5 0q15 6 21 21.5t-1 32.5q-64 155 -67 440q0 60 2 115v127q0 111 -17 233q-4 20 -9.5 55t-8.5 51 t-8.5 43t-10.5 40.5t-12.5 32.5t-16 29t-20.5 21.5t-27 18t-34 10.5q-42 10 -74 -3t-50.5 -36.5t-32.5 -70.5t-19.5 -84.5t-12.5 -98.5l-22 -194l-29 -228l-22 -196l-8 -99q-7 -83 -14 -126t-23 -82zM137 1495q0 -39 10 -57q23 -55 68 -79t84 -5q44 18 62 73t-7 101 q-27 46 -76.5 58.5t-91.5 -19.5q-3 -3 -8 -8.5t-8 -8.5q-2 -2 -13 -14t-16 -20q-4 -12 -4 -21zM160 770l26 213q12 112 27 156q14 40 31 57q13 13 32 10q34 -9 58 -88q34 -143 39 -321q3 -42 -39 -45q-69 -10 -133 -21q-22 -5 -33 5.5t-8 33.5zM227 1487q2 3 5 6.5t12 9.5 t16 4q17 -3 23 -18q7 -14 0.5 -35.5t-15.5 -26.5q-2 -2 -12 5q-12 6 -20 14q-16 19 -9 41z" />
<glyph unicode="&#xc6;" horiz-adv-x="864" d="M-39 8q-4 -41 33 -47q40 -7 49 31q5 25 20 127q14 108 33 178q8 34 43 37h142q41 0 41 -41q1 -24 2 -69.5t2 -65.5q0 -15 -2 -29q-2 -25 -2 -43q-3 -67 8 -92q16 -38 92 -49q74 -13 246 -2l40 2t30.5 1.5t13.5 0.5q17 0 29 12t12 29t-12 29t-29 12q-3 0 -13.5 -0.5 t-31 -1.5t-41.5 -2q-122 -5 -123 -5q-41 0 -109 5q-33 16 -33 30q0 4 1 12.5t1 12.5q0 6 3 41q2 16 2 37q-1 24 -5 217q-1 30 -2 89t-2 83q-3 40 39 43h195q17 0 29 12t12 29t-12 29t-29 12h-197q-41 -3 -41 39q-3 272 2 440q3 39 41 39q56 2 178 -4q18 -1 40.5 -2 t34.5 -1.5t18 -0.5q17 0 29 12t12 29t-12 29t-29 12q-6 0 -18 0.5t-33.5 1.5t-39.5 2q-161 10 -223 4q-66 -5 -95 -21t-54 -69q-31 -65 -80 -273q-13 -62 -82 -323q-57 -208 -82 -328q-6 -27 -20 -127q-6 -56 -21 -123zM137 461l27 104q80 306 84 328q22 107 41 168l8 10 q9 5 12 -23q3 -20 2 -55q-2 -123 6 -534q3 -43 -38 -43h-107q-47 0 -35 45z" />
<glyph unicode="&#xc7;" horiz-adv-x="573" d="M-4 752q-24 -300 16 -451q20 -75 65 -158t97 -131q4 -4 19 -14q31 -25 14 -57l2 4l-23 -43q-10 -14 -10 -41q0 -7 2 -11q9 -26 41 -32q3 -1 12.5 -2t14.5 -2q6 0 15 -1t13 -1q29 0 37 -2q2 -1 6.5 -2.5t6.5 -2.5q0 -2 -1 -4t-2 -5t-2 -5q0 -2 -30 -29q-11 -7 -74 -41 q-14 -8 -18.5 -24t2.5 -31q8 -15 24 -20t33 2q70 40 86 53l6 4q4 4 11 10t10 9l6 6q7 7 22 32q19 58 -7.5 91t-80.5 41q-14 0 -21.5 2.5t-10.5 4.5t0.5 9l4 8t7.5 10q2 3 6 7.5t5.5 6.5t4 5t4 4t4 2.5t5.5 2.5t6 1q85 15 143 137q19 44 25 101q0 14 2 24t2 23q3 24 6 39 t-6 30q-9 14 -26.5 18t-31.5 -5q-21 -14 -24 -76q0 -25 -4 -45q-3 -44 -17 -72q-27 -56 -54.5 -78t-53 -16t-56.5 35q-43 41 -82 113t-57 137q-36 137 -12 421q12 132 16 158q9 70 33.5 149.5t58.5 125.5q28 37 66 45t68.5 -14t39.5 -66q5 -5 2 -37q-2 -23 -2 -49 q0 -17 12 -29t29 -12t29 12t12 29q0 12 2 26v41q0 25 -2 35q-18 78 -76 117.5t-128 25.5q-126 -25 -189 -229q-19 -61 -29.5 -114t-14 -88t-9.5 -117z" />
<glyph unicode="&#xc8;" horiz-adv-x="477" d="M10 1149q0 -11 4 -57l9 -54q1 -7 2 -15l1.5 -12t0.5 -7q16 -312 2 -687q-1 -19 -2 -63.5t-2 -67.5v-82q0 -22 2 -28q0 -11 2 -13q4 -16 8 -22q21 -30 74 -33q63 -8 231 10q17 1 28 14.5t9 30.5q-1 17 -14.5 28t-30.5 9q-92 -9 -139 -12q-56 0 -74 2q-11 0 -15 2v92 q1 18 2 46t1.5 47.5t1.5 35.5q8 156 8 285q0 37 39 43q41 5 90 23q17 6 23.5 21t0.5 32t-21 23.5t-32 0.5q-9 -3 -27.5 -8t-27.5 -8q-45 -9 -45 37q-4 168 -10 246q0 8 -7 43q-10 61 -10 98q0 13 12 16q2 0 6.5 1t6.5 1q39 8 117 13.5t126 1.5q17 -2 31 9t15 28 q2 17 -9 30.5t-28 14.5q-52 4 -140 -2.5t-129 -14.5q-23 -3 -41 -10q-27 -12 -38 -32t-11 -56zM96 1491q0 -16 10 -29q5 -7 39 -41l37 -28q5 -5 41 -33l39 -29q14 -11 31 -8q17 1 27 14.5t8 32.5q-1 7 -2.5 11.5t-7 10t-9.5 8.5t-16 11.5t-19 13.5q-9 7 -41 31l-30 27 q-7 5 -35 33q-11 14 -29 14t-30.5 -11t-12.5 -28z" />
<glyph unicode="&#xc9;" horiz-adv-x="540" d="M6 170q-2 171 10 473q1 39 7 178q2 45 2 88v29v63q-5 123 -5 162v33q3 9 3 12v6q2 17 18 29l4 2q2 1 5.5 2t4.5 2h8q4 2 15 2h41q121 0 243 -10q50 -2 78 -8q17 -4 25.5 -19t3.5 -32q-10 -23 -29 -29q-11 -1 -16.5 -0.5t-16 3t-16.5 3.5q-3 0 -15 1t-20 1q-52 3 -120 6 q-37 2 -97 2q-37 0 -37 -6q0 -64 4 -162v-63v-29q0 -5 -0.5 -25t-1.5 -61t-2 -84q-1 -19 15.5 -30t25.5 -11h2q5 0 86 7q17 2 30.5 -9t14.5 -28q2 -17 -8.5 -30.5t-27.5 -14.5q-87 -7 -88 -7q-5 0 -14.5 -1t-14.5 -1q-26 -3 -29 -43q0 -85 -2 -122q-6 -209 -4 -277 q0 -71 2 -94q0 -2 1 -5t1 -5q0 -3 7 -6.5t15 -5.5l7 -3q35 -6 96 -6q68 0 111 2t71 2q17 0 29 -12t12 -29t-12 -29t-29 -12q-28 0 -71 -2t-111 -2q-65 0 -108 6q-62 4 -84 35q-14 23 -17 68q-2 23 -2 96zM236 1389q0 16 12 28q46 41 129 105q12 10 29 8t28 -14 q10 -14 8 -31.5t-16 -28.5q-93 -72 -121 -100q-13 -10 -29 -10q-18 0 -29 12t-11 31z" />
<glyph unicode="&#xca;" horiz-adv-x="530" d="M10 1044v123q2 4 2 9v6q2 6 6 14q2 4 4 7t5.5 5.5t5.5 4.5t7 4t7 3t7.5 3t6.5 2q36 7 43 8q44 6 153 11.5t163 4.5q17 0 28 -12.5t11 -30.5q0 -17 -12.5 -28t-30.5 -11q-50 1 -152.5 -4.5t-146.5 -11.5q-2 0 -6.5 -1t-6.5 -1q-12 0 -12 -12v-93q0 -159 2 -282v12 q0 -41 4 -41h2q68 -12 136 -6q17 2 30.5 -9t14.5 -28q2 -17 -9 -30.5t-28 -14.5q-52 -3 -105 0q-43 3 -43 -41q1 -89 2 -166t1.5 -112t0.5 -37v-25q-4 -50 -4 -98v-37q0 -41 17 -41q82 -10 288 -10q17 0 29 -12t12 -29t-12 -29t-29 -12q-213 0 -295 10q-7 1 -19.5 2t-18.5 2 q-3 1 -9 2t-8 2h-6q-10 0 -22 19q-7 11 -7 20q-2 2 -2 13v102q0 48 4 98v23v90q-2 47 -2 186q-1 34 -2 101t-2 96q-2 121 -2 282zM45 1338q-7 15 0 32q43 104 85 146.5t97 29.5q35 -9 88 -59l39 -37q16 -16 56 -51q12 -11 14 -28.5t-8 -29.5q-12 -12 -30 -14t-30 10 q-35 30 -57 52l-39 38q-17 15 -35 29q-17 12 -41 0v-2q-21 -21 -65 -117q-6 -14 -21 -20.5t-30 0.5q-16 6 -23 21z" />
<glyph unicode="&#xcb;" horiz-adv-x="567" d="M18 1059q4 -36 8.5 -71t6.5 -50.5t2 -17.5q0 -7 -0.5 -30.5t-1.5 -69t-2 -91.5q-8 -283 -4 -536q3 -125 18 -162q19 -37 86 -47q73 -10 223 -7q68 3 72 3q17 0 29 11.5t12 28.5t-12 29t-29 12q-27 0 -72 -2q-148 -3 -211 7q-28 10 -28 22q0 2 -1 7.5t-1 8.5q-1 13 -2 44 t-2 47q-2 133 2 407q0 38 36 41q27 4 91 4q17 0 29 12t12 29t-12 29t-29 12q-57 0 -82 -2q-43 -3 -43 39q1 37 2 73.5t1.5 55t0.5 25.5q0 4 -2 20.5t-6.5 55.5t-8.5 73q-2 20 -4.5 46t-3.5 32q0 24 14 27q3 0 8.5 1t8.5 1q65 8 250 8q47 -2 84 -2q17 0 28 12.5t11 30.5 q0 17 -12.5 28t-30.5 11h-213q-81 -3 -127 -9q-20 -3 -31 -5t-26 -7t-24 -13t-14 -20q-14 -27 0 -151zM94 1432q0 -17 12 -29t29 -12t29 12t12 29q0 16 -12 28q-13 13 -29 13q-17 0 -29 -12t-12 -29zM270 1434q0 -17 12 -29t29 -12t29 12t12 29q0 16 -12 28q-13 13 -29 13 q-17 0 -29 -12t-12 -29z" />
<glyph unicode="&#xcc;" horiz-adv-x="399" d="M-29 1225q0 -17 12.5 -28t30.5 -11q6 0 17 1t16 1q44 0 41 -43q-20 -504 18 -1018q2 -21 -8 -31.5t-30 -9.5h-54q-17 0 -29 -12t-12 -29t12 -29t29 -12q77 0 138 -2q118 -4 135 -4t29 12t12 29t-12 29t-29 12h-54q-40 3 -43 41q-41 510 -20 1026q3 41 43 41q45 0 70 -2 q18 0 30.5 11t12.5 28q0 18 -11 30.5t-28 12.5q-145 6 -277 0q-17 0 -28 -12.5t-11 -30.5zM8 1491.5q3 -16.5 17 -27.5q2 -1 53 -41q24 -22 59 -47q14 -10 32.5 -7t27.5 17q9 12 5 30t-16 26l-55 43q-37 34 -61 49q-13 8 -30 4.5t-26 -16.5q-9 -14 -6 -30.5z" />
<glyph unicode="&#xcd;" horiz-adv-x="419" d="M35 20q1 17 14 27t31 8q6 -1 18.5 -2t18.5 -2q37 0 28 43q-20 139 -25 316t1 436q3 208 6 291q0 42 -33 39q-19 -2 -32.5 8t-14.5 28q-2 18 8 31t27 14q119 16 209 7q17 -1 28 -14.5t9 -30.5q-1 -17 -14.5 -28t-30.5 -9q-6 0 -18.5 1t-18.5 1q-37 3 -37 -39 q-1 -24 -2.5 -124.5t-3.5 -178.5q-5 -202 -2 -381q0 20 4 -17q19 -160 33 -360q0 -38 41 -41q6 0 16.5 -1t15.5 -1q17 -1 28 -14.5t9 -30.5q-1 -17 -14.5 -28t-30.5 -9q-35 3 -113 6q-5 0 -118 8q-18 1 -28.5 14.5t-8.5 32.5zM141 1393q0 15 13 28q9 7 50.5 44t57.5 55 q11 14 29 14t30.5 -11t12.5 -28q0 -16 -10 -29q-8 -9 -29 -29t-29 -28q-52 -47 -55 -49q-13 -10 -29 -10q-19 0 -30 12t-11 31z" />
<glyph unicode="&#xce;" horiz-adv-x="536" d="M6 1196q0 18 11 30.5t28 12.5q30 2 174 -2q33 -1 73 -2t61.5 -1.5t33.5 -0.5q17 0 29 -12t12 -29t-12 -29t-29 -12q-9 0 -41.5 1t-56.5 1q-43 3 -43 -39t4 -272q2 -141 2 -320q0 -77 -2 -145q-2 -39 -2 -105q1 21 3 -6q9 -93 9 -168q0 -39 39 -39q5 0 21 -1t24 -1 q37 -2 80 -2q17 0 29 -12t12 -29t-12 -29t-29 -12q-49 0 -86 2q-132 4 -166 0q-35 -5 -78 -16q-17 -6 -31.5 2t-19.5 25q-6 17 2 31.5t25 19.5q38 11 67 16q41 3 35 45q-10 102 -4 285q2 68 2 139q0 181 -2 322q-4 234 -4 274q0 38 -41 41q-51 0 -74 -2q-18 0 -30.5 11 t-12.5 28zM93.5 1310q-6.5 16 0.5 33l47 97q30 51 66 49q19 0 32 -8.5t33 -28.5q60 -60 64 -63q12 -12 12 -29q0 -19 -11 -31t-28 -12q-18 0 -30 12q-6 4 -41 39q-13 9 -27 5t-23 -21l-20 -45q-6 -14 -22 -20t-31 1q-15 6 -21.5 22z" />
<glyph unicode="&#xcf;" horiz-adv-x="542" d="M-25 1196q3 -17 16.5 -26t31.5 -7q22 6 71 13q43 3 43 -41q0 -27 8 -125q2 -28 5 -60.5t4.5 -48.5t1.5 -22q5 -135 2 -277q-16 -296 20 -524q6 -42 -37 -45q-27 -2 -86 -10q-17 -1 -27 -15.5t-8 -32.5q1 -17 15.5 -26.5t32.5 -7.5q206 27 356 -2q18 -2 32 6.5t17 25.5 t-6.5 30.5t-26.5 18.5q-62 12 -137 15q-37 3 -43 39q-35 223 -20 522q3 141 -2 287q0 5 -3.5 51t-7.5 86q-8 90 -8 117q-3 42 43 39h47q17 0 29 12t12 29t-12 28.5t-29 11.5q-16 0 -69 3h-80q-66 0 -154 -15q-17 -4 -25.5 -18t-5.5 -31zM31 1419q0 -17 12 -29t29 -12t29 12 t12 29q0 16 -13 29q-12 12 -28 12q-17 0 -29 -12t-12 -29zM225 1427q0 -17 12 -29t29 -12t29 12t12 29t-12 29t-29 12t-29 -12t-12 -29z" />
<glyph unicode="&#xd0;" horiz-adv-x="688" d="M-57 633q6 -37 47 -33q35 9 71 12q43 6 43 -39v-69q0 -23 -1 -119.5t-1 -132.5q-3 -111 15 -250q4 -20 16 -27q9 -8 25 -8.5t28 8.5q4 5 15 20.5t20 22.5q152 119 274.5 308t122.5 340q0 108 -32 221t-92 198q-71 106 -173 148.5t-223 5.5q-15 -3 -24 -18q-10 -21 0 -41 q3 -6 11 -16t11.5 -18t3.5 -18q0 -6 4 -389q0 -40 -41 -43q-59 -7 -90 -14q-37 -9 -30 -49zM182 1133q0 21 10.5 31.5t30.5 9.5q116 -9 203 -134q53 -76 82 -177t29 -197q0 -118 -89 -263.5t-210 -259.5q-19 -19 -35.5 -12t-18.5 33q-3 88 0 213q2 57 2 127v74q0 40 41 40 q43 0 105 5q17 2 27.5 14t9.5 31q-2 17 -14 27.5t-31 9.5q-27 -3 -95 -3q-43 -3 -43 41q-4 386 -4 390z" />
<glyph unicode="&#xd1;" horiz-adv-x="624" d="M-7 1183.5q-6 -16.5 1 -30.5q17 -44 26 -190q10 -188 -8 -644q-6 -205 -6 -258q0 -17 12 -29t29 -12t29 12t12 29q0 53 6 258q18 455 8 648q0 32 23 -3q5 -7 15 -24q11 -19 16 -27q19 -36 65 -116q123 -212 201 -338q18 -25 18 -45q6 -243 31 -394q9 -38 49 -32 q36 6 33 45q-30 163 -33 473q-1 115 -2 154.5t-6 108.5t-18 194q-15 144 -15 229q0 17 -12 29t-29 12t-29 -12t-12 -29q0 -91 15 -238q20 -223 22 -264q1 -27 -2.5 -40t-8 -14.5t-12 6.5t-13 16.5t-13.5 21.5l-92 158q-127 216 -193 313q-54 70 -86 57q-15 -8 -21 -24.5z M27 1274q-6 -17 1.5 -32t24.5 -19q17 -6 32 1.5t19 24.5q17 53 27 58.5t51 -13.5q49 -22 86 -25.5t80.5 18t85.5 75.5q10 12 8 29t-14 28q-14 10 -31 8t-28 -16q-40 -52 -75 -58.5t-79 17.5q-36 16 -61.5 20.5t-50 -4t-43.5 -36t-33 -76.5z" />
<glyph unicode="&#xd2;" horiz-adv-x="587" d="M-10 588q11 -241 70.5 -416.5t164.5 -222.5q46 -18 84.5 -6t70 51t52 82.5t31.5 87.5q43 156 54 401.5t-21 415.5q-2 59 -29 145q-28 80 -81.5 128.5t-127.5 48.5q-47 0 -67 -6t-50 -33q-81 -69 -120 -256t-31 -420zM72 592q-8 208 27 382t96 228q3 2 9 6.5t7 5.5t5.5 3 t6.5 2t8 1t11.5 1h15.5q90 0 131 -121q10 -24 17 -66q1 -5 5 -41.5t8 -71t5 -44.5l6 -54q11 -160 -2 -342.5t-43 -296.5q-20 -69 -58.5 -121t-68.5 -40q-75 35 -126.5 193.5t-59.5 375.5zM149.5 1504q4.5 -17 18.5 -25q18 -10 61 -39q12 -8 26.5 -17.5t24 -16t15.5 -9.5 q13 -8 30.5 -3.5t24.5 17.5q8 13 3.5 30.5t-17.5 24.5q-14 7 -60 41q-10 7 -24.5 17t-24.5 17t-18 11q-17 8 -33.5 3.5t-23.5 -19.5t-2.5 -32z" />
<glyph unicode="&#xd3;" horiz-adv-x="587" d="M-16 752q-6 -114 1.5 -222.5t32 -215t77.5 -187.5t128 -115q26 -13 55.5 -19t62 0t54.5 25q83 78 107 439q14 172 14 458q0 5 -8 53.5t-22.5 113t-28.5 92.5q-28 56 -68 88t-92.5 36t-112.5 -30q-52 -29 -90 -83.5t-59.5 -127t-33 -144.5t-17.5 -161zM66 748 q18 372 159 450q99 54 160 -61q22 -47 35.5 -161t13.5 -155q-6 -438 -45 -608q-20 -102 -51 -133q-7 -8 -32.5 -6t-49.5 12q-75 35 -122 144.5t-61.5 242t-6.5 275.5zM150 1403q0 -17 11.5 -29t28.5 -12t29 12q49 49 121 105q14 11 16 28t-8 31q-11 12 -28 14t-29 -8 q-80 -63 -129 -112q-12 -12 -12 -29z" />
<glyph unicode="&#xd4;" horiz-adv-x="653" d="M-10 596q-9 -214 43 -354q24 -65 68 -126t96 -96q64 -49 137 -42t131 77q74 88 95.5 272.5t21.5 512.5q-9 160 -36.5 250t-78.5 143q-36 37 -91.5 47.5t-118 -10.5t-110.5 -72q-58 -68 -81 -123q-4 -10 -14 -33t-14 -34t-9.5 -30.5t-8.5 -39.5q-8 -40 -12 -66 q-12 -50 -12 -141q-6 -75 -6 -135zM72 592q0 28 2 61t2 64q0 61 10 119q1 4 2 11.5t2.5 20.5t3.5 23q3 33 10 55l17 53q9 28 22 52q35 59 66 90q52 58 119 61q35 2 63.5 -22.5t46 -61t30.5 -89t18.5 -95.5t9 -92t4 -68t0.5 -33q0 -521 -97 -632q-73 -84 -159 -23 q-43 31 -78.5 80.5t-54.5 103.5q-45 125 -39 322zM126.5 1335.5q5.5 -17.5 20.5 -24.5q15 -8 32 -3.5t24 21.5q55 104 61 113l5 2.5t10 4.5t10 -1q2 -2 6 -5t6 -5q44 -45 94 -82q14 -12 31 -10t29 16q10 12 8 28t-14 27l-58 49q-18 14 -37 33q-47 41 -80 41q-37 0 -60.5 -29 t-72.5 -123q-8 -14 -12 -22q-8 -13 -2.5 -30.5z" />
<glyph unicode="&#xd5;" horiz-adv-x="696" d="M16 514q4 -87 22.5 -164.5t53 -145.5t91.5 -115t130 -64q112 -22 166 16q100 64 131 362q15 144 15 388v6l-17 178q-3 34 -6 57q-23 78 -35 101q-53 97 -124 131t-150 4q-62 -26 -118 -88.5t-89 -141.5q-85 -199 -70 -524zM98 518q-15 305 62 488q26 65 73 118 q43 49 90 67t85 -1q43 -21 72 -69t38 -95q7 -35 16 -154t9 -143q-3 -367 -51 -516q-25 -85 -56 -105.5t-106 -1.5q-105 24 -164.5 137.5t-67.5 274.5zM101 1312.5q6 -16.5 20 -24.5q14 -7 30.5 -1t24.5 20q36 66 66 77q19 6 57 -8q40 -14 64 -19.5t51.5 -3t50 20.5t45.5 53 q8 13 4.5 31t-16.5 27q-14 9 -30.5 5.5t-27.5 -17.5q-21 -37 -47 -37q-11 0 -67 18q-46 15 -83.5 13.5t-73 -31.5t-67.5 -93q-7 -14 -1 -30.5z" />
<glyph unicode="&#xd6;" horiz-adv-x="665" d="M-12 567q2 -203 54.5 -354.5t158.5 -216.5q41 -26 91.5 -39t88.5 -2q79 22 124.5 129.5t67.5 282.5q17 119 20.5 270t-5.5 192q0 7 -15 74.5t-45 157.5t-59 127q-51 66 -111.5 91.5t-124.5 0.5t-114 -104q-60 -96 -95.5 -263.5t-35.5 -345.5zM70 567q0 166 33.5 324 t84.5 242q96 156 215 4q51 -66 81 -173.5t28 -209.5q6 -177 -15.5 -349t-58.5 -266t-78 -106q-19 -4 -53.5 6t-60.5 27q-85 53 -129.5 185t-46.5 316zM205 1442q0 -17 12 -29t29 -12t29 12t12 29q0 15 -13 28t-28 13q-17 0 -29 -12t-12 -29zM338 1450q0 -17 12 -29t29 -12 t29 12t12 29t-12 29t-29 12t-29 -12t-12 -29z" />
<glyph unicode="&#xd7;" horiz-adv-x="542" d="M62 789q2 -16 16 -27q31 -23 96 -88q23 -29 2 -60l-104 -137q-10 -14 -8 -30t16 -27q14 -10 30 -8t27 16l86 115q28 36 60 0q61 -76 118 -133q15 -11 31 -11q17 0 28 12t11 31q0 17 -12 29q-44 40 -131 147q-25 28 -2 58l77 104q10 14 8 30.5t-16 27.5q-14 10 -30 7.5 t-27 -16.5l-64 -81q-25 -37 -57 -5q-47 49 -90 84q-14 10 -30 8t-27 -16q-10 -14 -8 -30z" />
<glyph unicode="&#xd8;" horiz-adv-x="649" d="M-4 700q-11 -162 3.5 -304t51.5 -222q36 -82 91 -138t116 -69q72 -19 135.5 22.5t106.5 135.5q39 81 61.5 255t15 357t-48.5 273q-12 58 -50 120t-87 103q-59 52 -129.5 48t-128.5 -73q-113 -140 -137 -508zM76 483q-5 83 2 211q11 157 43 281t78 180q33 42 69 45 q32 0 70.5 -31t69.5 -82q28 -46 36.5 -76t12.5 -102q3 -29 -19 -51q-18 -20 -49 -59l-74 -99l-57 -79l-84 -99l-47 -55q-19 -22 -35 -17t-16 33zM106 260q-8 28 7 53q35 54 108 140q18 21 47 54t36 41.5t21 25t23 29.5t20 28t33 47q21 30 45 61q15 22 32.5 14.5t17.5 -36.5 q2 -146 -16 -311.5t-54 -247.5q-65 -134 -147 -113q-41 9 -82 53q-63 66 -91 162z" />
<glyph unicode="&#xd9;" horiz-adv-x="540" d="M10.5 745q12.5 -354 52.5 -499q11 -39 43 -93t68 -90t72.5 -54t76 -12t72.5 42q46 48 62 221q12 132 12 350q0 144 -6 361q-6 214 -6 243q0 17 -12 29t-29 12t-29 -12t-12 -29q0 -28 6 -243q6 -218 6 -361q0 -213 -12 -342q-7 -54 -19 -118q-10 -43 -25 -60t-36 -12 q-29 10 -62 43q-30 30 -57 74t-35 71q-37 127 -49.5 477t19.5 455q6 17 -2 32t-25 21q-17 5 -32 -3t-19 -25q-35 -124 -22.5 -478zM137 1446q0 -18 13 -31q2 -1 45 -51q16 -21 53 -53q12 -12 29.5 -10t29.5 14q10 12 8 29t-14 28q-16 15 -50.5 53.5t-41.5 47.5 q-12 12 -29 12q-19 0 -31 -11t-12 -28z" />
<glyph unicode="&#xda;" horiz-adv-x="530" d="M6 621.5q9 -310.5 35 -398.5q26 -89 72 -155q49 -72 110.5 -87t114.5 28t78 130q13 45 26.5 147t16.5 183q4 105 -6 287q-6 112 -6.5 156.5t2.5 168.5q2 84 2 162q0 17 -12 29t-29 12t-29 -12t-12 -29q0 -80 -2 -164q-4 -156 -2 -194q9 -154 14 -287q0 -184 -14 -268 q-21 -145 -39.5 -201.5t-59.5 -67.5q-41 -10 -80.5 44.5t-66.5 142.5q-22 78 -30 361.5t-1 426.5q3 55 10 109q3 36 11 53q7 17 1.5 33t-20.5 24q-15 6 -32 0t-23 -20q-19 -39 -29 -195q-9 -108 0 -418.5zM157 1340q3 -16 17 -27q12 -10 28 -7t27 15q42 58 146 143 q12 11 14 27.5t-8 30.5q-12 12 -28.5 14t-30.5 -10q-107 -85 -158 -156q-10 -14 -7 -30z" />
<glyph unicode="&#xdb;" horiz-adv-x="544" d="M23 1126q6 -74 6 -94v-147q-2 -186 4 -322q8 -178 49 -323q15 -59 34.5 -107.5t49 -93.5t71.5 -62t91 0q43 15 69 66q29 53 43 176q0 36 6 66q13 131 15 182q8 161 8 418q0 37 2 76t2 90q0 95 -8 163q-1 17 -15 27t-32 8q-17 -1 -27 -15t-8 -32q8 -47 8 -151 q0 -47 -2 -86t-2 -80q0 -88 -2 -180q-3 -264 -20 -412q0 -3 -7 -66q-13 -104 -34 -147q-1 -1 -2.5 -4t-2.5 -4q-13 -22 -38 -19q-68 14 -121 207q-37 135 -45 309q-6 129 -4 314v149q0 5 -7 101q-3 55 0 90q2 17 -8.5 30.5t-27.5 14.5q-17 2 -30.5 -9t-14.5 -28 q-3 -41 0 -105zM119 1358q-2 -19 8.5 -32.5t28.5 -14.5q18 -2 31 8t14 27q0 3 1 8t1 8q3 15 8 26t10 15.5t8 1.5q2 -2 6.5 -6t6.5 -6q12 -13 53 -62q11 -12 28 -14t29 10q12 11 14 28t-10 29l-55 66q-39 39 -63 47q-58 17 -86 -31q-25 -41 -33 -108z" />
<glyph unicode="&#xdc;" horiz-adv-x="526" d="M23 1221q-46 -528 34 -912q19 -91 54 -174q57 -137 145 -145q94 -8 143 137q52 152 58 487q4 208 -17 592q0 17 -12.5 28t-30.5 11q-17 0 -28 -12.5t-11 -30.5q2 -47 8 -154.5t7 -150.5q13 -334 -19 -586q-8 -88 -32 -157q-14 -44 -33 -66q-27 -37 -62 6q-18 20 -41 72 q-30 72 -47 160q-81 375 -35 886q1 19 -9 31t-27 14q-19 1 -31 -9t-14 -27zM125 1419q0 -17 12 -29t29 -12t29 12t12 29t-12 29t-29 12t-29 -12t-12 -29zM250 1427q0 -17 12 -29t29 -12t29 12t12 29q0 16 -13 29q-12 12 -28 12q-17 0 -29 -12t-12 -29z" />
<glyph unicode="&#xdd;" horiz-adv-x="587" d="M-13 1201.5q-3 -18.5 7 -30.5q36 -50 149 -258q87 -161 144 -245l18 -25q1 -1 3 -2t3 -2q-35 -106 -143 -399q-21 -49 -31 -74q-51 -111 -61 -184q-2 -18 8 -32.5t27 -15.5q18 -2 32 8t15 27q9 57 55 162q27 58 68 178l45 125q13 31 45 125t45 139l39 131q26 88 34 140 q29 149 29 225q0 17 -12 29t-29 12t-29 -12t-12 -29q0 -134 -74 -391q-7 -28 -24.5 -30.5t-32.5 20.5q-65 111 -90 159q-88 169 -156 265q-7 13 -25 17t-30 -5q-14 -9 -17 -27.5zM262 1321q-4 -17 4 -30.5t25 -18.5t31 3t18 25q12 36 22 54l13 22q19 32 39 58q8 13 4 30.5 t-17 26.5q-14 9 -30 5.5t-27 -17.5l-18 -27q-10 -17 -19 -31l-16 -28q-21 -37 -29 -72z" />
<glyph unicode="&#xde;" horiz-adv-x="659" d="M39 1180q29 -223 35 -568q10 -450 22 -577q1 -17 14.5 -28t30.5 -9q17 1 28 14.5t9 30.5q-12 130 -18 309q0 39 12 39q2 0 7 1t7 1q38 13 86 25q64 14 101 26q132 41 186 109q24 29 29 60t-4 71q-14 73 -51.5 116.5t-94 57t-114 11.5t-131.5 -17q-43 -6 -46 37 q-10 175 -26 303q-1 17 -15 27t-32 8q-17 -1 -27 -15t-8 -32zM156 614v109q-3 36 34 45q86 17 151 19t107 -27t54 -92q6 -29 5 -41t-13 -25q-11 -13 -23.5 -24t-31.5 -20.5t-31.5 -15.5t-39 -13.5t-36 -10.5t-42 -10.5t-38.5 -9.5q-16 -4 -49 -13q-45 -13 -45 23v37 q-2 31 -2 69z" />
<glyph unicode="&#xdf;" horiz-adv-x="733" d="M2 838q-2 -94 6 -193q6 -77 6 -90q23 -388 23 -561q0 -17 12 -29t29 -12t29 12t12 29q0 177 -23 565q-3 20 -6 94q-8 95 -6 181q11 137 103 244.5t200 88.5q53 -9 90 -54t44 -101.5t-15 -114.5q-20 -44 -64 -89.5t-88 -68.5q-18 -9 -55 -18q-19 -4 -25 -8 q-27 -10 -32 -33q-4 -23 10 -37q28 -35 94 -20q12 3 21 6q27 6 49 -4q49 -17 82 -58q70 -79 82 -200q13 -127 -52.5 -197.5t-224.5 -106.5q-38 -9 -31 -49q6 -36 47 -32q188 44 269 131q87 102 74.5 254t-103.5 254q-33 38 -70 57q-37 24 -4 53q68 65 95 133q22 55 22 115 q0 64 -20 117q-21 57 -69 99t-110 54q-63 11 -123.5 -7.5t-108 -59.5t-84.5 -97t-58.5 -120t-26.5 -127z" />
<glyph unicode="&#xe0;" horiz-adv-x="581" d="M6 16q6 104 12 308q10 442 52 677q7 38 28.5 96.5t48.5 98.5q21 34 46.5 54.5t52.5 25t54.5 -14.5t49.5 -61q40 -76 48 -175t6 -378q-1 -62 -1 -96q-3 -202 15 -336q21 -141 74 -176q14 -11 17.5 -27t-5.5 -30q-9 -13 -27 -17t-31 4q-79 52 -101.5 179.5t-22.5 402.5v37 q0 41 -7 41q-104 0 -159 8q-42 3 -45 -37q-4 -61 -11 -266q-6 -210 -12 -322q-1 -18 -13 -28.5t-30 -8.5q-18 0 -28.5 11.5t-10.5 29.5zM121 764q-3 -42 35 -45q47 -8 131 -8q37 3 37 41q4 314 -48 411q-2 2 -5 8.5t-5 8.5q-4 9 -15.5 6.5t-21.5 -17.5q-4 -4 -12 -16 q-21 -34 -40.5 -86t-24.5 -82q-21 -125 -31 -221zM165 1482q3 16 17 27q12 10 28.5 7t27.5 -15q36 -48 96 -86q13 -7 17.5 -24.5t-3.5 -30.5q-7 -13 -24.5 -17.5t-30.5 3.5q-77 47 -121 106q-10 14 -7 30z" />
<glyph unicode="&#xe1;" horiz-adv-x="552" d="M6 229q-12 -148 10 -225q4 -17 18.5 -25.5t31.5 -3.5q17 4 25 18.5t3 31.5q-17 67 -6 192l6 96q2 47 2 279q0 44 43 41q71 -6 172 4q43 3 43 -41q0 -302 7.5 -407.5t44.5 -188.5q6 -14 22 -20.5t31 0.5q15 6 21 21t-1 32q-30 73 -36.5 179.5t-6.5 430.5 q-2 252 -24.5 388.5t-89.5 199.5q-59 48 -112.5 41.5t-98.5 -58.5q-66 -78 -78 -182q-14 -117 -17 -360q-3 -344 -4 -355q0 -15 -6 -88zM98 760q3 130 17 264q9 78 59 137q24 27 43.5 29.5t46.5 -21.5q47 -41 66 -141.5t22 -265.5q0 -39 -51 -45q-93 -6 -164 0q-39 3 -39 43 zM123 1396q-2 -16 10 -28q11 -14 27 -16t30 10l52 39l59 49q36 28 51 43q13 13 13 31q0 17 -11 29t-28 12q-16 0 -31 -11q-34 -34 -107 -90q-11 -8 -51 -41q-12 -11 -14 -27z" />
<glyph unicode="&#xe2;" horiz-adv-x="542" d="M2 121q0 -40 8 -103q9 -37 51 -30q35 6 31 47q-8 57 -8 88q0 24 6 92q10 110 14 254q0 11 2 57.5t3 67.5q3 39 43 39h135q41 0 41 -41q0 -224 12.5 -355t52.5 -217q6 -14 23.5 -19.5t32.5 1.5q15 6 20 22t-2 33q-36 77 -46.5 208t-10.5 403q0 273 -14.5 388t-67.5 167 q-39 36 -78.5 39.5t-69.5 -19.5t-51 -65q-58 -108 -86 -363q-11 -102 -20 -338q-2 -99 -7 -160q0 -21 -6 -92q-8 -65 -8 -104zM107.5 1403q5.5 -17 19.5 -25q14 -7 30.5 -1t24.5 20q19 39 37 57q8 8 21 -2l12 -12q12 -9 53 -56q12 -12 31 -12q18 0 29.5 11.5t11.5 29.5 q0 16 -10 29l-58 59q-36 31 -65 37q-41 10 -72.5 -16.5t-62.5 -87.5q-7 -14 -1.5 -31zM119 758q13 129 35.5 232.5t46.5 150.5q20 34 31.5 38.5t37.5 -18.5q33 -29 44.5 -124.5t13.5 -278.5q0 -43 -41 -43h-129q-42 0 -39 43z" />
<glyph unicode="&#xe3;" d="M-16 31q-2 -17 8.5 -30.5t27.5 -14.5q17 -2 31 9t15 28q9 95 18 469q2 37 2 98q3 37 33 45q59 21 180 24q41 3 41 -41q3 -120 6 -186q11 -274 53 -434q4 -17 18.5 -25.5t31.5 -3.5q17 4 25 18t3 31q-53 219 -53 629q-3 218 -10 297q-23 321 -183 330q-34 2 -62.5 -9.5 t-48.5 -35t-35 -51.5t-25.5 -66t-17 -72t-11.5 -75q-23 -196 -29 -471q-6 -340 -18 -463zM26.5 1330q5.5 -15 22.5 -21q17 -8 32 -2.5t21 22.5q23 52 40 58t48 -17q31 -20 56 -28t49.5 -4t45 28.5t36.5 69.5q6 17 -1.5 32t-23.5 21q-14 6 -30.5 -2.5t-22.5 -22.5 q-1 -4 -8 -18q-11 -32 -37 -21q-15 10 -21 13q-32 20 -58.5 27.5t-52.5 2t-49.5 -32t-43.5 -73.5q-8 -17 -2.5 -32zM94 762q17 263 53 350q21 54 50 72t57.5 -3.5t48.5 -78.5q34 -95 37 -318q0 -40 -66 -43q-86 -3 -137 -14q-46 -13 -43 35z" />
<glyph unicode="&#xe4;" horiz-adv-x="540" d="M-25 43q-6 -17 2 -31.5t25 -19.5q17 -6 32 1.5t19 24.5q26 74 29 230q0 80 2 94q1 18 8 252q3 42 39 45q64 6 156 6q43 0 43 -43q-1 -32 -2 -62l-1.5 -45t-0.5 -18q-3 -325 67 -438q7 -13 25 -17.5t31 3.5q13 7 17.5 24.5t-3.5 30.5q-58 94 -55 395q0 66 2 121q1 22 2 67 t2 62q0 122 -13 211q-2 2 -8 68q-7 62 -14 90q-27 126 -100 153q-49 17 -92 -3.5t-72 -67.5t-47.5 -96.5t-28.5 -100.5q-28 -196 -31 -436q-3 -130 -6 -197q-2 -23 -2 -100q-3 -133 -25 -203zM98 762q5 101 23 205q13 79 53.5 147t75.5 55q42 -14 61 -174q6 -66 8 -71 q11 -71 11 -156q0 -41 -54 -41q-124 -5 -137 -6q-44 -3 -41 41zM137 1419q0 -17 12 -29t29 -12t29 12t12 29t-12 29t-29 12t-29 -12t-12 -29zM262 1432q0 -17 12 -29t29 -12t29 12t12 29q0 16 -12 28q-13 13 -29 13q-17 0 -29 -12t-12 -29z" />
<glyph unicode="&#xe5;" horiz-adv-x="602" d="M-10 4q0 55 10 168q8 65 16 160q6 176 27 456q0 6 3 44t4 49t4.5 45.5t6.5 49.5t8.5 45.5t12.5 49t16.5 43t21.5 45t27 39.5q45 63 103.5 71t122.5 -52q70 -73 82.5 -210.5t-9.5 -371.5q0 -10 -2.5 -52.5t-3 -54t-2 -48t-1 -50.5t0 -44.5t1 -48t3.5 -42t5.5 -45.5 t7.5 -41q21 -95 67 -150q10 -14 8 -30t-14 -27q-14 -12 -30.5 -10t-28.5 14q-54 70 -81 181t-22 225q1 27 4 96t4 108q-6 29 -38 29h-170q-38 -3 -41 -41q-4 -166 -15 -276q0 -4 -16 -164q-10 -110 -10 -160q0 -17 -12 -29t-29 -12t-29 12t-12 29zM123 768q-2 -21 9 -31.5 t32 -9.5h168q41 0 41 41q13 132 1 237.5t-59 153.5q-33 31 -55 28.5t-47 -38.5q-45 -61 -63 -148t-27 -233zM195 1440v16q0 17 2 25q6 51 31.5 82.5t66.5 35.5q44 6 81.5 -23.5t47.5 -80.5q10 -61 -26.5 -103t-92.5 -44q-60 -3 -90 41q-13 17 -16 36q-4 8 -4 15zM276 1454 q0 -24 25 -24q21 0 33 15t8 38q-1 17 -13 27t-24 8q-13 -3 -22 -23q0 -4 -2 -6q0 -2 -1 -6t-1 -6q0 -4 -1.5 -10.5t-1.5 -10.5v-2z" />
<glyph unicode="&#xe6;" horiz-adv-x="847" d="M-26 499.5q5 -17.5 18 -24.5q13 -8 30.5 -3.5t24.5 17.5q31 54 33 56q13 22 58 56t98 34q48 0 69.5 -39.5t24.5 -122.5q0 -43 -45 -37q-56 9 -115 -35q-70 -51 -109.5 -154t-19.5 -184q15 -61 62 -91t104 -27t110 32q39 19 56 -16q-4 10 0 9q3 0 15 -5q14 -7 24 -10 q39 -16 90 -10q94 7 151 55.5t95 142.5q6 14 -1 30.5t-22 23.5q-15 6 -31.5 -1t-23.5 -24q-26 -68 -68 -104q-37 -33 -100.5 -40t-79.5 17q-30 39 -19 213q3 41 46 35q99 -13 176 35q100 62 139 170t-21 188q-39 48 -107 55t-129.5 -14t-107.5 -55q-27 -22 -53 4 q-44 41 -110 41q-94 0 -162 -62q-46 -44 -56 -56.5t-41 -68.5q-8 -13 -3 -30.5zM121 84q-14 56 16.5 136t81.5 116q41 33 80 8q3 -2 7.5 -6t11.5 -16t6 -25q-6 -162 -5 -184q3 -31 -28 -31q10 0 -5 -19q-20 -25 -50 -32q-42 -9 -75 5.5t-40 47.5zM410 393v27q3 56 0 98 q-3 29 0 35q4 4 4 8q27 59 118 86q106 31 144 -9t6 -122q-29 -74 -94 -114.5t-144 -22.5q-34 8 -34 14z" />
<glyph unicode="&#xe7;" horiz-adv-x="552" d="M-27 854q-26 -281 11 -475q23 -130 65 -209.5t121 -142.5q20 -15 23 -17q34 -21 16 -55l6 10q-5 -9 -12 -23.5t-10 -19.5l-11 -20q-2 -4 -2 -11q-8 -19 4 -34q12 -19 27 -19q1 0 3 -1t3 -1q3 -1 11 -2t12 -2q75 -12 94 -29q4 -4 4 -10q-3 -14 -29 -20q-18 -6 -76 -9 q-17 0 -27.5 -12.5t-10.5 -30.5q0 -17 12.5 -27.5t30.5 -10.5q40 1 65.5 4t53.5 13t43.5 31t19.5 54q10 83 -107 115q-1 1 -2.5 3t-5.5 7.5t-5.5 11t-1 13.5t4.5 16l-16 -27l12 23q16 21 45 33q37 16 62 51q32 48 73 215q5 18 -3 33t-25 18q-18 3 -33.5 -5.5t-16.5 -25.5 q-38 -151 -63 -186q-4 -6 -12 -14q-11 -11 -31 -11h-10q-23 5 -66 37q-65 50 -98.5 117t-57.5 186q-15 75 -19 157t-0.5 144.5t11.5 149.5q6 60 45.5 154t87.5 155q36 46 63.5 61t55 -4t55.5 -79q21 -47 26 -68.5t1 -56.5q-2 -17 9 -30.5t28 -14.5q17 -2 30.5 8.5t14.5 27.5 q4 50 -3 82t-32 84q-32 68 -71.5 103t-80.5 35.5t-82 -24.5t-79 -75q-54 -70 -98 -174.5t-52 -175.5z" />
<glyph unicode="&#xe8;" horiz-adv-x="534" d="M10 1108q0 -49 2 -80v-51q0 -91 21 -334q18 -218 18 -326q0 -26 -2 -61q-4 -132 -2 -172q0 -49 12 -68q19 -30 84 -34q47 -7 105 -7q24 1 66.5 2.5t73 3t34.5 1.5q17 0 29 12t12 29t-12 28.5t-29 11.5q-29 0 -70 -2q-167 -4 -198 0q-25 16 -25 41v-14q-2 36 2 168 q2 35 2 61q0 124 -20 334q0 4 41 4h69q17 0 29 12t12 29t-12 29t-29 12h-78q-40 0 -43 39q-8 104 -8 201v51q-2 31 -2 80q0 33 2 45q0 23 4 31v8h33q40 2 133.5 -3.5t138.5 -12.5q18 -2 31.5 7.5t16.5 26.5t-7 29.5t-28 17.5q-50 7 -146.5 13t-140.5 4q-58 0 -80 -12 q-30 -21 -33 -72q-6 -30 -6 -82zM82.5 1497.5q3.5 -13.5 15.5 -22.5l41 -33q34 -26 45 -33q35 -28 101 -55q17 -6 32 0.5t21 23.5t-1 32.5t-24 21.5q-26 8 -82 43l-41 32q-40 31 -43 33q-13 9 -26 9t-22.5 -8.5t-14.5 -19t-1.5 -24z" />
<glyph unicode="&#xe9;" horiz-adv-x="540" d="M12 1079q0 -49 2 -82q2 -35 2 -59q0 -60 9 -373q6 -239 -2 -366q0 -3 -1.5 -18t-3 -35t-2.5 -29q-3 -63 11 -99q29 -55 178 -51q4 0 127 6q18 2 35 2t28 12.5t11 30.5q0 17 -13 28t-31 11q-16 0 -34 -2q-117 -6 -125 -6q-42 0 -82 4q-23 3 -23 19q-3 16 0 41q6 81 6 82 q8 133 2 372v31q0 22 9.5 31.5t31.5 9.5q5 0 20 1t23 1q17 0 28 12.5t11 30.5q0 17 -12.5 28t-30.5 11q-8 0 -23 -1t-22 -1q-39 0 -39 43q-4 136 -4 174q0 24 -2 59q-2 33 -2 84q0 60 2 78q7 23 17 23q4 2 14 2q51 6 190 6q31 -2 68 -2h45q17 0 28 12.5t11 30.5 q0 17 -12.5 28t-30.5 11q-35 0 -80 2q-170 0 -227 -6q-67 -4 -86 -33q-15 -17 -19 -68q-2 -23 -2 -86zM135 1372q7 -9 13.5 -14t14 -5.5t12.5 -0.5t13 5.5t11.5 8t12.5 10.5t11 10l29 23q27 21 53 33l31 16q14 6 21 22t1 31q-8 16 -22.5 22t-32.5 -1q-21 -8 -72 -37 q-34 -22 -59 -43l-29 -22q-33 -23 -8 -58z" />
<glyph unicode="&#xea;" horiz-adv-x="528" d="M18 1038q-10 120 2 160q12 41 89 53q80 14 309 4q17 0 28 -12.5t11 -30.5q0 -17 -12.5 -27.5t-30.5 -10.5q-146 6 -189 4q-57 0 -104 -7q-2 0 -6 -1t-6 -1q-6 -1 -10.5 -14t-4.5 -25v-4q3 -70 12 -137q1 -15 5 -36t4 -25q2 -16 2 -39q4 -78 4 -127q0 -41 41 -41h106 q17 0 29 -12t12 -29t-12 -29t-29 -12h-106q-40 0 -43 -41q0 -39 -1 -144t-1 -137v-28q-4 -58 -4 -113v-63q0 -11 6 -22t12 -16l6 -5q51 -9 92 -11q35 -2 166 -2q17 0 29 -12t12 -29t-12 -29t-29 -12q-196 0 -272 15q-62 11 -80 37q-10 12 -10 34q-2 8 -2 31v86q0 53 4 111 v28q0 103 2 181q2 76 2 209q0 68 -4 178q0 23 -2 39q-1 10 -5 34.5t-6.5 45t-3.5 34.5zM41 1353q-2 17 8 29l74 101q17 20 22.5 26t19 14.5t28.5 8.5t28 -8t20 -16.5t17 -24.5q16 -23 29.5 -43.5t21.5 -32.5l8 -12q10 -14 8 -30.5t-16 -27.5q-14 -10 -30 -7.5t-27 16.5 q-39 54 -62 88q-5 -6 -15 -19.5t-15 -19.5l-45 -62q-11 -14 -28.5 -16t-29.5 8q-14 11 -16 28z" />
<glyph unicode="&#xeb;" horiz-adv-x="528" d="M29 68v47q0 91 4 239q0 67 2 90v43q0 4 -0.5 22t-1.5 55t-2 77q-11 340 -2 467q0 5 8 82q12 49 37 63q37 19 180 9q138 -9 176 -23q17 -6 24 -21t1 -32t-21.5 -24t-32.5 -1q-27 11 -110 17t-137 6h-19q-16 0 -16 -10q-5 -18 -8 -72q-5 -81 0 -330q0 -43 43 -37 q4 1 14.5 2t21.5 2.5t21 3.5q18 2 32 -7.5t15 -26.5q2 -18 -8 -32t-27 -15q-16 -2 -39 -6t-32 -5q-39 -6 -39 -45q1 -31 2 -59.5t1.5 -42.5t0.5 -17v-43q-4 -94 -4 -190q-2 -61 -2 -135q0 -12 4.5 -22.5t8.5 -14.5l5 -4q35 -5 121.5 -3t144.5 9q18 2 31 -8t14 -27 q2 -19 -8.5 -32.5t-28.5 -14.5q-60 -7 -150 -9t-130 3q-25 0 -43 6q-18 5 -18 -8q0 -11 12 -35l6 -12q-28 58 -47 79q-2 2 -2 1zM92 1419q0 17 12 29t29 12t29 -12t12 -29t-12 -29t-29 -12t-29 12t-12 29zM256 1427q0 17 12 29t29 12t29 -12t12 -29t-12 -29t-29 -12t-29 12 t-12 29z" />
<glyph unicode="&#xec;" horiz-adv-x="518" d="M-23 1196q1 -17 15 -28t31 -9q43 3 106 6q43 0 37 -45q-10 -90 -4 -246q4 -122 4 -124q0 -38 -4 -332q-6 -225 -6 -334q-14 -14 -41 -16h-84q-17 0 -29 -12t-12 -29t12 -29t29 -12q66 0 315 12q17 0 28 12.5t11 30.5q0 17 -12.5 28t-30.5 11q-8 -1 -28.5 -2t-30.5 -2 q-45 -3 -45 2v6q0 109 6 334q4 294 4 332q0 11 -4 133q-9 158 8 252l6 26v4q84 -2 148 -2q17 0 28.5 12t11.5 29t-11.5 29t-28.5 12q-58 0 -101 2h-92q-117 3 -199 -6q-17 -1 -28 -14.5t-9 -30.5zM96.5 1433q2.5 -17 16.5 -28l30 -25q16 -12 37 -22l37 -21q13 -8 30.5 -2 t24.5 21q8 15 3.5 31.5t-21.5 23.5l-35 19q-14 8 -24 16l-33 24q-12 10 -29.5 8t-28.5 -14q-10 -14 -7.5 -31z" />
<glyph unicode="&#xed;" horiz-adv-x="421" d="M-35 18q-1 -19 9.5 -31t27.5 -14q169 -12 313 9q17 1 27 15t8 32q-1 17 -15 26.5t-32 7.5q-13 -2 -38.5 -5t-37.5 -5q-40 -3 -43 41q-6 228 -6 344q0 39 4 387q4 300 4 349q0 37 41 40q17 1 46.5 3.5t39.5 3.5q17 1 27 14.5t8 32.5q-1 17 -14.5 27t-32.5 8 q-61 -9 -133 -9q-43 0 -74 2h-69q-17 0 -29 -12t-12 -29t12 -29t29 -12h38q41 0 41 -40q0 -49 -4 -349q-4 -348 -4 -387q0 -116 6 -344q0 -44 -43 -41q-33 0 -49 2q-19 1 -31 -9.5t-14 -27.5zM113 1427q0 -19 11 -31t30 -12q13 0 28 11l82 75q12 12 12 29q0 18 -10.5 30.5 t-27.5 12.5q-14 0 -31 -10l-82 -76q-12 -12 -12 -29z" />
<glyph unicode="&#xee;" horiz-adv-x="546" d="M0 1212q0 -17 12.5 -27.5t30.5 -10.5q16 1 52.5 2t54.5 2q41 0 38 -43q-2 -25 -2 -58q0 -10 4 -100q1 -22 3 -53t2 -39q5 -91 2 -391q-1 -94 -2 -187.5t-1.5 -141.5t-0.5 -63q0 -10 2 -14l-136 4q-18 0 -30.5 -11t-12.5 -28q0 -18 11 -30.5t28 -12.5q181 -9 381 0 q17 0 28 12.5t11 30.5q0 17 -12.5 28t-30.5 11q-19 -1 -57.5 -2t-57.5 -2q-43 0 -43 6v8q0 14 1 63.5t2 141.5t2 189q3 291 -3 389q0 8 -4 102t-4 96q0 31 2 54q3 41 45 41q68 -2 115 -2q17 0 29 12t12 29t-12 28.5t-29 11.5q-362 0 -391 -2q-17 0 -28 -12.5t-11 -30.5z M63 1362q0 -19 12 -30t31 -11q17 0 29 12l62 68q29 32 57 0l-14 16q41 -47 102 -92q14 -10 32 -7t27 17q9 12 5.5 30t-15.5 26q-59 45 -90 79l-22 27q-15 18 -29 25q-24 11 -42 2t-42 -33l-92 -100q-11 -15 -11 -29z" />
<glyph unicode="&#xef;" horiz-adv-x="507" d="M-12 1217q0 -17 12 -29t29 -12h94q41 0 41 -41q0 -40 4 -252q4 -266 4 -305q0 -72 -2 -127t-2 -113q-3 -126 8 -246q0 -2 -43 -2h-102q-17 0 -29 -12t-12 -29t12 -29t29 -12q249 0 323 6q17 2 27.5 14t9.5 31q-2 17 -14 27.5t-31 9.5q-7 -1 -22 -2t-23 -2q-43 -3 -43 41 v-33q-11 112 -8 236q0 58 2 113t2 129q0 39 -4 305q-4 218 -4 256t41 41q75 0 110 2q17 0 28 12.5t11 30.5q0 17 -12.5 28t-30.5 11q-161 -7 -364 -7q-17 0 -29 -11.5t-12 -28.5zM35 1403q0 -17 12 -29t29 -12t29 12t12 29q0 16 -13 29q-12 12 -28 12q-17 0 -29 -12t-12 -29 zM236 1419q0 -17 11.5 -29t28.5 -12t29 12t12 29t-12 29t-29 12t-28.5 -12t-11.5 -29z" />
<glyph unicode="&#xf0;" horiz-adv-x="610" d="M-12 1217q-3 -18 5 -32t25 -18q49 -8 113 -57q30 -27 2 -59q-34 -42 -55 -78q-8 -13 -4 -30.5t18 -24.5q15 -9 31.5 -5.5t23.5 19.5q23 34 39 55q13 17 27 19t23 -9q99 -131 149 -264q2 -4 5 -14t5 -14q7 -21 -3 -33.5t-34 -12.5q-183 12 -286 -100q-64 -71 -79 -179.5 t17.5 -215.5t100.5 -182q56 -63 120.5 -84.5t119 -5t98.5 61.5t65 109q29 106 27.5 235.5t-27.5 264.5q-28 142 -73 250t-142 234q-23 30 8 55q20 17 43 31q13 7 17 25.5t-5 31.5q-9 12 -27 15t-30 -7q-15 -11 -53 -39q-31 -21 -59 4q-80 71 -158 86q-18 2 -31 -6.5 t-16 -25.5zM72 272q-14 157 72 242.5t268 56.5h10q8 0 16 -36q20 -133 23 -226q2 -137 -26.5 -223t-84.5 -106q-96 -32 -178 57.5t-100 234.5z" />
<glyph unicode="&#xf1;" horiz-adv-x="518" d="M-12 1342q2 -16 16 -27q14 -10 30 -8t27 16q36 51 62 51q9 0 55 -22q44 -22 81 -23.5t83 24.5t96 87q10 14 8 30.5t-14 28.5q-14 10 -30.5 8t-28.5 -14q-58 -73 -99 -82q-23 -3 -59 14q-35 18 -58.5 25.5t-51 5t-54 -23t-55.5 -60.5q-10 -14 -8 -30zM10 4q0 -17 12 -29 t29 -12t29 12t12 29q0 46 4 414q2 182 2 411q0 3 17.5 -52.5t27.5 -88.5l-28 100q135 -444 141 -481q9 -46 47 -180l25 -82q2 -6 5 -16t3 -11q1 -1 1.5 -3t1 -3t1.5 -2q2 -2 2 -8q1 -1 2 -3t2 -3q11 -11 27 -14q48 -9 63 49q6 24 2 114v15q-2 4 -2 10v6q-2 29 -2 127 q-2 114 -8 236t-8 231q-1 78 2 231q2 103 20 230q2 18 -7.5 32t-26.5 15q-18 2 -32.5 -8t-15.5 -27q-18 -134 -20 -237q-4 -158 -2 -236q2 -119 8 -235q1 -25 2 -52t1.5 -41t0.5 -20q0 -8 -0.5 -21.5t-1.5 -42t-1.5 -47.5t-0.5 -18q0 3 -2.5 14.5t-3.5 16.5q-13 54 -143 489 q-57 183 -80 274q-2 10 -13 54q-4 36 -4 47q-2 23 -2 33q0 6 -2 10q0 6 -4 18q-8 12 -18 17q-25 13 -47 -6q-8 -8 -11 -17q-7 -17 -4 -49q1 -8 2 -15l1.5 -10.5t0.5 -5.5t2 -4v-330q0 -229 -2 -411q-4 -368 -4 -414z" />
<glyph unicode="&#xf2;" horiz-adv-x="548" d="M-29 623q5 -75 8.5 -116.5t10.5 -103t14.5 -96.5t20 -81t28.5 -74t38 -58.5t51 -50.5t65 -35q52 -25 96.5 -18.5t79.5 51.5q39 50 62 129.5t29.5 185t6.5 180.5t-3 185q-1 19 -1 29q-3 82 -16 210t-21 148q-44 105 -112 143t-144 2q-59 -29 -107.5 -95.5t-72.5 -147.5 q-48 -167 -33 -387zM53 750.5q3 146.5 29 238.5q20 71 57 119q38 52 77.5 70.5t72.5 1.5q42 -23 73 -105q12 -24 15 -69l12 -134q1 -13 2 -45.5t2 -48.5q4 -135 2 -293q-9 -309 -78 -395q-13 -18 -29 -19.5t-48 11.5q-109 47 -152 227q-15 62 -26.5 178.5t-8.5 263z M156 1486.5q2 -17.5 14 -28.5q78 -69 131 -96q13 -8 30.5 -2.5t24.5 20.5q8 15 3.5 32t-21.5 24q-42 20 -115 84q-12 12 -29 10t-28 -14q-12 -12 -10 -29.5z" />
<glyph unicode="&#xf3;" horiz-adv-x="604" d="M-29 578q5 -69 28.5 -178.5t57.5 -198.5q26 -66 57 -113.5t68.5 -76t83.5 -26.5t96 38q95 67 140 405q30 237 30 434v6q0 79 -13 146t-41 125t-79.5 91.5t-122.5 33.5q-40 0 -61.5 -5.5t-50.5 -27.5q-101 -73 -153 -273.5t-40 -379.5zM53 582q-5 103 11 220t55.5 220.5 t93.5 142.5q18 12 26 14.5t37 2.5q89 0 132 -87t43 -227v-6q0 -188 -31 -424q-18 -140 -45 -229q-29 -95 -70.5 -127.5t-83.5 4.5q-46 40 -88 145q-31 85 -54.5 190t-25.5 161zM181 1396.5q-5 -17.5 3 -30.5q7 -13 25 -17.5t31 3.5q32 17 84 53q74 52 77 53q14 11 18 27.5 t-5 30.5q-9 13 -27 16.5t-31 -4.5l-80 -55q-15 -10 -41 -28.5t-36 -23.5q-13 -7 -18 -24.5z" />
<glyph unicode="&#xf4;" horiz-adv-x="571" d="M-28.5 487.5q3.5 -190.5 30.5 -292.5q14 -68 64 -127q50 -61 109 -83.5t130 1.5q141 58 180 356q14 98 12 221t-9.5 214.5t-16.5 150.5q-1 5 -7.5 47.5t-14.5 79t-17 53.5q-64 125 -178 147q-60 11 -112 -20t-87 -98q-42 -83 -64.5 -271t-19 -378.5zM53 493 q-3 181 17.5 357.5t58.5 249.5q44 85 114 74t115 -103q13 -23 19 -49q5 -24 17 -111t14 -110q24 -245 -7 -461q-8 -55 -19 -100t-28 -85.5t-38.5 -64t-50 -34t-62.5 4.5q-42 18 -76 59.5t-47 94.5q-24 97 -27 278zM58 1378q2 -17 14 -28q12 -12 29 -10t28 14q30 36 37 45 q18 24 20 26l15 11q2 0 4 -2q4 -2 65 -60q13 -10 31 -10q17 0 28 12t11 31q0 17 -12 29q-49 46 -74 63q-43 29 -71.5 23t-59.5 -45q-3 -3 -21 -27l-34 -43q-12 -12 -10 -29z" />
<glyph unicode="&#xf5;" horiz-adv-x="641" d="M0 799q-25 -255 11.5 -411t138.5 -290q132 -181 251 -88q79 64 125 269q36 163 43 361.5t-18 268.5q-34 148 -98 242q-41 59 -89.5 89t-105.5 23t-113 -57q-115 -103 -145 -407zM45 1295q7 -15 23 -21q15 -7 30 -0.5t21 20.5q12 27 22 42t18 23t22 5t23.5 -7.5 t33.5 -17.5q49 -25 86.5 -27t67 36.5t48.5 121.5q2 18 -6.5 32.5t-25.5 17.5t-31 -6.5t-19 -26.5q-18 -85 -36 -94q-9 -3 -46 18q-38 21 -66.5 29t-59 3t-56.5 -34t-49 -82q-7 -17 0 -32zM74.5 575q-2.5 114 9.5 226t42.5 208.5t72.5 135.5q55 45 98.5 34.5t87.5 -73.5 q79 -114 102 -330v-129q-6 -200 -44 -365t-93 -208q-24 -17 -47 -8q-39 15 -88 81q-83 111 -119 238q-19 76 -21.5 190z" />
<glyph unicode="&#xf6;" horiz-adv-x="657" d="M-12 604q-5 -228 49 -395t166 -219q70 -31 129.5 -13.5t103.5 78.5q66 93 107 287q30 146 37.5 323.5t-7.5 290.5q-6 114 -69 211q-38 56 -86 86.5t-107.5 28t-117.5 -44.5q-91 -65 -145.5 -243t-59.5 -390zM70 602q5 198 53 358t119 211q57 39 105.5 25t88.5 -74 q73 -111 66 -309q0 -253 -36.5 -443.5t-94.5 -265.5q-30 -39 -61 -49t-74 8q-81 38 -126 186t-40 353zM170 1442q0 -17 12 -29t29 -12t29 12t12 29q0 16 -12 28q-13 13 -29 13q-17 0 -29 -12t-12 -29zM358 1450q0 -17 12 -29t29 -12t29 12t12 29t-12 29t-29 12t-29 -12 t-12 -29z" />
<glyph unicode="&#xf7;" horiz-adv-x="704" d="M-4 641q0 -17 12 -29t29 -12q111 0 278 8q164 8 277 8q17 0 29 12t12 29t-12 29t-29 12q-113 0 -277 -8q-167 -8 -278 -8q-17 0 -29 -12t-12 -29zM217 885q0 -17 12 -29t29 -12t29 12t12 29q0 16 -12 28q-13 13 -29 13q-17 0 -29 -12t-12 -29zM240 469q0 -17 12 -29 t29 -12t29 12t12 29q0 16 -13 29q-12 12 -28 12q-17 0 -29 -12t-12 -29z" />
<glyph unicode="&#xf8;" horiz-adv-x="593" d="M-20 696q-9 -165 9 -315t67.5 -262t123.5 -142q84 -35 168 37q131 107 158 346q12 89 12 193v98q-2 39 -2 80v49q0 179 -10 240l-10 47q-38 159 -172 193q-76 20 -139 -17t-104 -118.5t-66.5 -189.5t-34.5 -239zM61 481q-8 160 11 318.5t73 269.5q32 64 75 92.5t81.5 20 t70.5 -43.5t44 -89q4 -13 8 -39q0 -3 -6 -9q-54 -67 -117 -190q-35 -69 -94 -170q-47 -70 -96 -166q-15 -28 -25 -38.5t-15 -3t-7 18.5t-3 29zM90 281q149 262 186 315q38 60 99 178q2 3 5 9.5t5 9.5q49 101 49 -13v-49q0 -43 2 -82v-94q0 -89 -10 -184q-27 -211 -131 -295 q-45 -36 -82 -21q-78 30 -121 217z" />
<glyph unicode="&#xf9;" horiz-adv-x="520" d="M10.5 838.5q5.5 -126.5 23.5 -392.5q7 -104 11 -161q4 -61 16.5 -112.5t36 -97.5t65 -71t97.5 -22q85 4 116 82q19 47 34 191q1 15 2 24q30 298 30 727q0 5 0.5 18t1.5 37.5t2 46.5q3 67 0 113q-1 17 -14.5 27.5t-30.5 8.5q-17 -1 -27.5 -14.5t-8.5 -30.5q3 -40 0 -98 q-1 -25 -2 -49.5t-2 -38.5t-1 -20q0 -414 -30 -719q-13 -133 -26.5 -178t-47.5 -46q-58 -1 -90.5 61t-38.5 165l-31 481q-12 339 23 451q6 17 -2 32t-25 21q-17 5 -32 -3.5t-19 -25.5q-24 -73 -30 -176.5t-0.5 -230zM127 1434q6 -15 23 -21q7 -3 17 -8t24.5 -12.5 t25.5 -12.5q32 -15 66 -30q14 -7 30.5 -1t24.5 21q7 15 0.5 31t-23.5 22l-65 31q-11 5 -26 13t-25 12.5t-17 7.5q-17 8 -32 2t-21 -23q-8 -17 -2 -32z" />
<glyph unicode="&#xfa;" horiz-adv-x="518" d="M29 1214q5 -109 8 -438q0 -322 8 -463q3 -49 5 -77.5t7 -68t11.5 -63t18 -51t27.5 -44t39 -30t52 -20.5q70 -13 118 17t72 94q24 61 33 194q35 630 2 940q-1 17 -14.5 28t-30.5 9q-17 -1 -28 -14.5t-9 -30.5q32 -324 -2 -928q-6 -117 -27 -170q-26 -71 -98 -57 q-50 10 -68 70.5t-26 205.5q-8 141 -8 461q-3 333 -8 441q0 17 -12.5 27.5t-30.5 10.5q-17 0 -28 -12.5t-11 -30.5zM141 1339q0 -17 12 -29t29 -12q16 0 29 13q44 44 119 108q12 11 14 27.5t-8 30.5q-12 12 -29 14t-31 -10q-58 -49 -122 -113q-13 -13 -13 -29z" />
<glyph unicode="&#xfb;" horiz-adv-x="481" d="M25 1200q10 -81 6 -377q-6 -434 20 -612q23 -180 86 -227q64 -48 119.5 -41.5t93.5 59.5q55 73 58 197q9 449 -19 997q0 17 -12.5 28t-30.5 11q-17 0 -28 -12.5t-11 -30.5q28 -565 19 -993q-3 -98 -41 -150q-18 -21 -37 -24q-26 -5 -51.5 16t-38.5 61q-17 52 -25 119 q-26 172 -20 600q4 298 -7 387q-1 18 -14 28.5t-31 8.5q-18 -1 -28 -14t-8 -31zM54.5 1355q3.5 -17 17.5 -26q12 -9 30 -6t25 16q38 53 41 58q1 2 3 5t3 5q6 9 13 15t11 7.5t5 0.5q1 0 3 -1.5t3 -1.5q18 -13 63 -67q11 -12 28.5 -14t29.5 10q12 11 14 28t-10 29 q-43 54 -74 78q-78 64 -143 -27l-15 -18q-3 -4 -10 -15t-10 -16l-21 -31q-10 -12 -6.5 -29z" />
<glyph unicode="&#xfc;" horiz-adv-x="499" d="M57 1200q10 -81 6 -377q-6 -427 21 -612q23 -180 86 -227q64 -48 119.5 -41.5t93.5 59.5q54 71 57 197q9 463 -18 997q0 17 -12.5 28t-30.5 11q-17 0 -28 -12.5t-11 -30.5q27 -550 18 -993q-3 -98 -41 -150q-18 -21 -36 -24q-26 -5 -52 16t-39 61q-15 47 -24 119 q-27 178 -21 600q4 305 -6 387q-1 18 -14 28.5t-31 8.5q-18 -1 -28.5 -14t-8.5 -31zM141 1397q0 -17 12 -29t29 -12t29 12t12 29q0 16 -12 28q-13 13 -29 13q-17 0 -29 -12t-12 -29zM258 1403q0 -17 12 -29t29 -12t29 12t12 29t-12 29t-29 12t-29 -12t-12 -29z" />
<glyph unicode="&#xfd;" horiz-adv-x="604" d="M-23.5 1243q-4.5 -18 3.5 -31q39 -76 83 -168q63 -129 111 -210.5t102 -141.5q21 -27 13 -55q-12 -30 -13 -33l-22 -67q-15 -37 -23 -64l-22 -67l-21 -66q-11 -34 -20 -70q-26 -91 -35 -135l-14 -65q-9 -54 -10 -70q-2 -19 8 -32.5t28 -14.5q18 -2 31 8t14 27 q10 68 41 194q36 143 113 369l62 174q23 69 61 258q37 173 63 246q6 17 -0.5 32t-23.5 21t-32 -1t-21 -24q-28 -72 -66 -258q-6 -33 -13.5 -66.5l-15 -67t-10.5 -48.5q-8 -25 -25 -28.5t-32 18.5q-67 98 -156 283q-48 98 -86 163q-7 13 -24.5 18t-30.5 -3q-13 -7 -17.5 -25z M182 1354q0 -19 12 -30t31 -11q18 0 27 12q33 35 88 86q14 11 14 29t-11 30.5t-28 12.5q-15 0 -28 -10q-36 -31 -92 -91q-13 -13 -13 -28z" />
<glyph unicode="&#xfe;" horiz-adv-x="688" d="M39.5 479q-0.5 -68 9.5 -334q14 -255 14 -356q0 -17 12 -29t29 -12t29 12t12 29q0 112 -8 268q-1 28 11 32.5t32 -15.5q52 -52 115.5 -70.5t126.5 0.5q87 26 140 110.5t54 200.5q2 146 -41.5 307t-121.5 222q-55 43 -109.5 51t-100.5 -14.5t-85 -69.5q-6 -8 -12 11 q-9 31 -9 85q3 171 -8 269q-1 18 -14 28t-31 8q-18 -1 -28.5 -14t-8.5 -31q10 -163 10 -217q0 -86 -8 -219q-9 -184 -9.5 -252zM127 506v4q0 1 1 4t1 4v6q5 59 30 125t62 109q80 99 182 20q57 -45 95.5 -191t36.5 -272q-1 -89 -40 -151t-98 -80q-58 -20 -118 14t-103 119 q-29 59 -39 122t-10 167z" />
<glyph unicode="&#xff;" horiz-adv-x="559" d="M-9 1234q-6 -15 1 -32q121 -249 235 -450q14 -26 6 -54l-178 -690q-4 -17 4 -30.5t25 -18.5q17 -4 30.5 4t18.5 25l227 864q12 41 68 186q48 129 59 201q2 18 -7.5 32t-26.5 15q-18 2 -32 -8t-15 -27q-8 -64 -54 -184q-63 -168 -69 -195q-7 -21 -30 6q-8 9 -15 21 q-94 176 -172 340q-8 14 -23.5 19.5t-30.5 -1.5q-15 -8 -21 -23zM133 1397q0 -17 12 -29t29 -12t29 12t12 29q0 16 -12 28q-13 13 -29 13q-17 0 -29 -12t-12 -29zM258 1403q0 -17 12 -29t29 -12t29 12t12 29t-12 29t-29 12t-29 -12t-12 -29z" />
<glyph unicode="&#x2000;" horiz-adv-x="800" />
<glyph unicode="&#x2001;" horiz-adv-x="1600" />
<glyph unicode="&#x2002;" horiz-adv-x="800" />
<glyph unicode="&#x2003;" horiz-adv-x="1600" />
<glyph unicode="&#x2004;" horiz-adv-x="533" />
<glyph unicode="&#x2005;" horiz-adv-x="400" />
<glyph unicode="&#x2006;" horiz-adv-x="266" />
<glyph unicode="&#x2007;" horiz-adv-x="266" />
<glyph unicode="&#x2008;" horiz-adv-x="200" />
<glyph unicode="&#x2009;" horiz-adv-x="320" />
<glyph unicode="&#x200a;" horiz-adv-x="88" />
<glyph unicode="&#x2010;" horiz-adv-x="655" d="M-6 537q1 -17 15 -27t32 -8q129 19 342 10q144 -4 160 -4q17 0 29 12t12 29t-12 29t-29 12q-8 0 -156 4q-216 9 -358 -10q-17 -1 -27 -15t-8 -32z" />
<glyph unicode="&#x2011;" horiz-adv-x="655" d="M-6 537q1 -17 15 -27t32 -8q129 19 342 10q144 -4 160 -4q17 0 29 12t12 29t-12 29t-29 12q-8 0 -156 4q-216 9 -358 -10q-17 -1 -27 -15t-8 -32z" />
<glyph unicode="&#x2012;" horiz-adv-x="655" d="M-6 537q1 -17 15 -27t32 -8q129 19 342 10q144 -4 160 -4q17 0 29 12t12 29t-12 29t-29 12q-8 0 -156 4q-216 9 -358 -10q-17 -1 -27 -15t-8 -32z" />
<glyph unicode="&#x2013;" horiz-adv-x="671" d="M-66 463q1 -19 13.5 -30t29.5 -9q35 2 183 16q276 23 399 23q17 0 29 12t12 29t-12 29t-29 12q-124 0 -403 -23q-154 -14 -183 -16q-19 -1 -30 -13.5t-9 -29.5z" />
<glyph unicode="&#x2014;" horiz-adv-x="1406" d="M-41 461q5 -17 18.5 -25t30.5 -4q128 35 643 49.5t633 -14.5q17 -4 30.5 4t18.5 25t-3 31t-25 18q-131 32 -655.5 17t-661.5 -52q-17 -5 -25 -18.5t-4 -30.5z" />
<glyph unicode="&#x2018;" horiz-adv-x="256" d="M-23 1008q-2 -18 7 -31t26 -16q39 -7 49 30q37 173 111 234q12 11 14 28t-8 29q-12 12 -29.5 14t-29.5 -10q-93 -75 -140 -278z" />
<glyph unicode="&#x2019;" horiz-adv-x="217" d="M-6 1268q0 -17 12 -29q78 -78 51 -252q-2 -18 8 -32t27 -15q18 -2 32 8t15 27q30 215 -76 321q-13 13 -28 13q-17 0 -29 -12t-12 -29z" />
<glyph unicode="&#x201a;" horiz-adv-x="266" d="M-18 139q-6 -16 0.5 -32.5t23.5 -22.5q30 -10 57 -37q21 -20 35.5 -44t14 -51.5t-26.5 -43.5q-13 -10 -16 -27.5t6 -30.5t25.5 -16.5t29.5 4.5q49 34 61.5 90t-14.5 99q-20 42 -59 79t-84 56q-14 6 -30.5 -1t-22.5 -22z" />
<glyph unicode="&#x201c;" horiz-adv-x="479" d="M35 924q-1 -19 9.5 -31t29.5 -14q17 -2 29.5 8.5t13.5 27.5q6 79 23.5 131t58.5 105q10 12 8 29t-14 28q-14 10 -31.5 8t-28.5 -16q-48 -62 -70 -124.5t-28 -151.5zM203 946q-6 -17 2 -32t24 -21q14 -6 30 2.5t22 22.5q32 92 54.5 137.5t61.5 85.5q11 18 11 30 q0 17 -12.5 28t-30.5 11q-17 0 -29 -12q-30 -33 -60 -84q-42 -75 -73 -168z" />
<glyph unicode="&#x201d;" horiz-adv-x="438" d="M41 1111q-2 -18 10 -30q21 -25 29 -43q17 -38 24 -71q8 -36 17 -45q15 -12 39 -9q17 3 25 17.5t3 32.5q-3 17 -8 37.5t-6 25.5q-22 63 -61 109q-11 12 -28.5 14t-29.5 -8q-12 -12 -14 -30zM193 1174.5q-2 -17.5 10 -29.5q40 -45 57 -100t25 -146q1 -17 14.5 -28t30.5 -9 q17 1 28 14.5t9 30.5q-12 106 -32.5 170t-70.5 121q-11 12 -28 14t-29 -8q-12 -12 -14 -29.5z" />
<glyph unicode="&#x201e;" horiz-adv-x="387" d="M18.5 149.5q-3.5 -17.5 4.5 -30.5q59 -89 24 -211q-4 -17 4 -30.5t25 -18.5t31 3t18 25q44 157 -33 277q-11 14 -27 17.5t-30 -5.5q-13 -9 -16.5 -26.5zM207 156q47 -121 12 -217q-6 -17 2.5 -32.5t24.5 -21.5q14 -6 29.5 2.5t21.5 22.5q44 127 -12 274q-6 17 -21.5 24 t-32.5 1t-23.5 -21t-0.5 -32z" />
<glyph unicode="&#x2022;" horiz-adv-x="366" d="M80 621l4 -9q16 -32 42 -44.5t53.5 -7t51.5 25.5q1 1 4 2.5t8.5 5t10.5 6.5q6 2 16 12q35 41 21 90q-13 52 -59.5 66.5t-88.5 -8.5l-6 -4q-1 0 -9 -4.5t-15 -8.5q-4 -2 -19 -12q-55 -46 -14 -110z" />
<glyph unicode="&#x2026;" horiz-adv-x="710" d="M-29 27q0 -2 1 -5.5t1 -5.5q5 -9 14.5 -17t10.5 -9l4 -8q8 -13 27 -17q25 -4 41 12q4 5 20 43q7 10 4 21q0 2 -2 4q3 13 0 23q-4 17 -23.5 23t-45.5 1l-19 -6q-1 -1 -3 -2t-3 -2q-10 -3 -12 -8q-15 -13 -15 -29v-8v-10zM236 -8q12 -10 27.5 -18t40 -7.5t46.5 17.5 q5 6 11.5 16t17.5 30.5t10 28.5q-4 30 -29 42.5t-53 9.5q-18 -2 -51 -13q-50 -19 -20 -106zM516.5 5q5.5 -21 24.5 -28h2q8 -2 49 -2h6q17 0 29 12t12 29q0 11 -2 15q0 1 -4 14.5t-10 24.5q-10 20 -35 20q-9 0 -29 -12l-22 -15q-12 -9 -17 -24q-9 -13 -3.5 -34z" />
<glyph unicode="&#x202f;" horiz-adv-x="320" />
<glyph unicode="&#x2039;" horiz-adv-x="354" d="M-51 430q-6 17 4 37q1 2 4.5 6.5t5.5 7.5q9 12 27 33q35 40 80 82q34 35 69.5 72t51 53t18.5 20q11 14 27 16.5t30 -7.5q14 -11 16 -27.5t-8 -30.5q-15 -21 -147 -153q-50 -50 -64 -66q-14 -32 19 -43q3 -1 9 -4t9 -4q83 -35 105 -43q14 -6 22 -21.5t2 -29.5 q-6 -16 -21 -24.5t-32 -2.5q-57 21 -110 47l-68 35q-40 22 -49 47z" />
<glyph unicode="&#x203a;" horiz-adv-x="399" d="M-4 286q-2 -16 10 -28q11 -14 27 -16t30 10q52 41 156 158q62 69 80 96q17 28 25 43q25 68 -60 98l-10 4q-10 4 -18 6t-20 7l-11 4q-75 27 -115 82q-11 12 -27 15t-28 -7q-14 -11 -17 -27.5t7 -30.5q54 -72 151 -108q6 -3 33 -12t47 -19l-14 6q-1 -2 -5 -6.5t-6 -7.5 q-26 -37 -73 -90q-84 -93 -148 -150q-12 -11 -14 -27z" />
<glyph unicode="&#x205f;" horiz-adv-x="400" />
<glyph unicode="&#x20ac;" horiz-adv-x="614" d="M-195 500q4 -17 18.5 -25.5t31.5 -3.5q67 15 82 18q43 6 43 -38q3 -97 15 -151t42 -116q86 -164 196 -196q73 -19 125.5 22t75.5 111q4 11 9 33t8.5 39t3.5 18q4 18 -4 31q-7 13 -25 17.5t-31 -3.5q-13 -7 -16.5 -16.5t-11.5 -51.5q-18 -79 -43 -102q-61 -56 -146 35 q-37 42 -66.5 98.5t-35.5 95.5q-10 59 -13 148q-3 43 37 43q63 4 230 4q59 -2 121 -2q17 0 29 12t12 29t-12 29t-29 12q-58 0 -115 2q-164 0 -230 -4q-43 0 -43 41q0 4 1.5 11.5t1.5 10.5q0 38 40 41h310q17 0 29 12t12 29t-12 29t-29 12h-297q-45 -3 -39 45 q16 101 39.5 152.5t66.5 97.5q42 45 86 63.5t76 4.5q66 -30 92 -142q4 -13 9 -45q1 -3 2 -9.5t2 -10.5q1 -7 3 -19t2.5 -16t2 -12t3 -11t4 -7.5t5 -7t6.5 -5.5q15 -9 31 -6q17 3 26.5 16.5t6.5 30.5q-6 32 -8 51q-5 29 -9 41q-28 175 -145 227q-62 27 -128.5 0.5 t-125.5 -88.5q-56 -59 -84.5 -124t-46.5 -195q-3 -37 -41 -43q-49 -6 -96 -12q-17 -4 -25.5 -17.5t-5.5 -30.5q6 -37 47 -34q38 8 66 10q43 6 43 -10v-17l-2 -37q-3 -37 -39 -43q-50 -5 -109 -22q-17 -5 -25 -18.5t-4 -30.5z" />
<glyph unicode="&#x2122;" horiz-adv-x="712" d="M-72 1241q0 -17 12.5 -28t30.5 -11q14 2 58 2q40 0 43 -41q13 -228 4 -348q-2 -17 9 -29.5t30 -13.5q17 -2 29.5 9t13.5 30q8 120 -4 352q-3 43 26 43q21 0 29 2q19 2 29.5 14t9.5 31q-2 17 -14 27.5t-29 9.5q-62 -4 -125 -4q-90 0 -113 -2q-17 0 -28 -12.5t-11 -30.5z M252 825q0 -17 12.5 -28t30.5 -11q17 0 28 12.5t11 30.5q0 33 6 86q3 17 10 51t13 60t6 25l16 -74q13 -40 51 -25q24 10 41 64q5 14 25 82q3 -22 12 -56l25 -124q19 -82 22 -89q8 -14 24 -20.5t31 0.5q15 6 22 21t1 32q-6 12 -18 74l-27 123q-10 48 -29 119q-10 29 -18 43 q-17 34 -49 34q-11 0 -17 -2q-7 -4 -12 -8t-8 -8.5t-4 -5.5q-4 -4 -4 -8q-1 -3 -3.5 -8t-7.5 -15.5t-9 -15.5t-5 -2q-4 12 -8 18q-17 42 -51 51q-24 3 -39 -12q-4 -2 -8 -10q-7 -11 -15 -47q-2 -7 -5 -25.5t-5 -26.5l-6 -40q-3 -12 -6 -27q-3 -13 -8.5 -32.5t-6.5 -26.5 l-10 -56q-11 -60 -8 -123z" />
<glyph unicode="&#x25fc;" horiz-adv-x="1259" d="M0 0v1260h1260v-1260h-1260z" />
</font>
</defs>
</svg>
